<svg width="12" height="12" viewBox="0 0 12 12" fill="none" xmlns="http://www.w3.org/2000/svg">
<path d="M4.46983 2.21983C4.32938 2.36045 4.25049 2.55108 4.25049 2.74983C4.25049 2.94858 4.32938 3.1392 4.46983 3.27983L7.18983 5.99983L4.46983 8.71983C4.33735 8.862 4.26523 9.05005 4.26865 9.24435C4.27208 9.43865 4.35079 9.62404 4.48821 9.76145C4.62562 9.89886 4.811 9.97758 5.00531 9.981C5.19961 9.98443 5.38765 9.91231 5.52983 9.77983L8.77983 6.52983C8.92028 6.3892 8.99917 6.19858 8.99917 5.99983C8.99917 5.80108 8.92028 5.61045 8.77983 5.46983L5.52983 2.21983C5.3892 2.07938 5.19858 2.00049 4.99983 2.00049C4.80108 2.00049 4.61045 2.07938 4.46983 2.21983V2.21983Z" fill="#3B5A89"/>
</svg>
