<svg width="24" height="24" viewBox="0 0 24 24" fill="none" xmlns="http://www.w3.org/2000/svg">
<path d="M15.0601 4.44015C15.341 4.7214 15.4988 5.10264 15.4988 5.50015C15.4988 5.89765 15.341 6.27889 15.0601 6.56015L9.62014 12.0001L15.0601 17.4401C15.3251 17.7245 15.4694 18.1006 15.4625 18.4892C15.4556 18.8778 15.2982 19.2486 15.0234 19.5234C14.7486 19.7982 14.3778 19.9556 13.9892 19.9625C13.6006 19.9694 13.2245 19.8251 12.9401 19.5601L6.44015 13.0601C6.15924 12.7789 6.00146 12.3976 6.00146 12.0001C6.00146 11.6026 6.15924 11.2214 6.44015 10.9401L12.9401 4.44015C13.2214 4.15924 13.6026 4.00146 14.0001 4.00146C14.3976 4.00146 14.7789 4.15924 15.0601 4.44015V4.44015Z" fill="#3B5A89"/>
</svg>
