<svg width="40" height="40" viewBox="0 0 40 40" fill="none" xmlns="http://www.w3.org/2000/svg">
<path d="M36.4333 20.8L31.9166 13.3333C31.6257 12.8295 31.2081 12.4106 30.7052 12.1182C30.2023 11.8259 29.6316 11.6702 29.0499 11.6667H24.9999V8.33332C24.9999 7.8913 24.8243 7.46737 24.5118 7.15481C24.1992 6.84225 23.7753 6.66666 23.3333 6.66666H6.66659C5.78253 6.66666 4.93468 7.01785 4.30956 7.64297C3.68444 8.26809 3.33325 9.11593 3.33325 9.99999V26.6667C3.33385 27.2512 3.48816 27.8253 3.78069 28.3314C4.07322 28.8375 4.49369 29.2577 4.99992 29.55C4.94025 31.0971 5.4976 32.6045 6.54936 33.7407C7.60113 34.8768 9.06116 35.5486 10.6083 35.6083C12.1553 35.668 13.6628 35.1106 14.7989 34.0589C15.9351 33.0071 16.6069 31.5471 16.6666 30H21.8333C22.0176 31.3945 22.7023 32.6745 23.7601 33.6017C24.8179 34.5289 26.1766 35.0401 27.5833 35.0401C28.9899 35.0401 30.3486 34.5289 31.4064 33.6017C32.4642 32.6745 33.149 31.3945 33.3333 30C34.2173 30 35.0652 29.6488 35.6903 29.0237C36.3154 28.3986 36.6666 27.5507 36.6666 26.6667V21.6667C36.664 21.3626 36.5836 21.0643 36.4333 20.8V20.8ZM10.8333 31.6667C10.3388 31.6667 9.85545 31.52 9.44433 31.2453C9.0332 30.9706 8.71277 30.5802 8.52355 30.1234C8.33433 29.6665 8.28483 29.1639 8.38129 28.6789C8.47775 28.194 8.71585 27.7485 9.06548 27.3989C9.41512 27.0493 9.86057 26.8112 10.3455 26.7147C10.8305 26.6182 11.3331 26.6677 11.79 26.857C12.2468 27.0462 12.6372 27.3666 12.9119 27.7777C13.1866 28.1889 13.3333 28.6722 13.3333 29.1667C13.3333 29.8297 13.0699 30.4656 12.601 30.9344C12.1322 31.4033 11.4963 31.6667 10.8333 31.6667ZM19.9999 18.3333H16.6666V21.6667H13.3333V18.3333H9.99992V15H13.3333V11.6667H16.6666V15H19.9999V18.3333ZM27.4999 31.6667C27.0055 31.6667 26.5221 31.52 26.111 31.2453C25.6999 30.9706 25.3794 30.5802 25.1902 30.1234C25.001 29.6665 24.9515 29.1639 25.048 28.6789C25.1444 28.194 25.3825 27.7485 25.7322 27.3989C26.0818 27.0493 26.5272 26.8112 27.0122 26.7147C27.4971 26.6182 27.9998 26.6677 28.4566 26.857C28.9134 27.0462 29.3039 27.3666 29.5786 27.7777C29.8533 28.1889 29.9999 28.6722 29.9999 29.1667C29.9999 29.8297 29.7365 30.4656 29.2677 30.9344C28.7988 31.4033 28.163 31.6667 27.4999 31.6667ZM24.9999 20V15H29.0499L32.0499 20H24.9999Z" fill="#3B5A89"/>
</svg>
