<svg width="50" height="50" viewBox="0 0 50 50" fill="none" xmlns="http://www.w3.org/2000/svg">
<path d="M23.4375 6.66192C23.9447 6.23445 24.5867 6 25.25 6C25.9133 6 26.5553 6.23445 27.0625 6.66192L35.5 13.7807C36.135 14.3144 36.5 15.1007 36.5 15.9307V28.1832C36.5 28.7633 36.2695 29.3197 35.8593 29.73C35.4491 30.1402 34.8927 30.3707 34.3125 30.3707H30.5625C29.9823 30.3707 29.4259 30.1402 29.0157 29.73C28.6055 29.3197 28.375 28.7633 28.375 28.1832V21.9332C28.375 21.6845 28.2762 21.4461 28.1004 21.2703C27.9246 21.0944 27.6861 20.9957 27.4375 20.9957H23.0625C22.8139 20.9957 22.5754 21.0944 22.3996 21.2703C22.2238 21.4461 22.125 21.6845 22.125 21.9332V28.1832C22.125 28.7633 21.8945 29.3197 21.4843 29.73C21.0741 30.1402 20.5177 30.3707 19.9375 30.3707H16.1875C15.9002 30.3707 15.6158 30.3141 15.3504 30.2042C15.085 30.0942 14.8438 29.9331 14.6407 29.73C14.4376 29.5268 14.2764 29.2857 14.1665 29.0203C14.0566 28.7549 14 28.4704 14 28.1832V15.9294C14 15.1007 14.365 14.3144 15 13.7794L23.4375 6.66192Z" fill="#9DACC4"/>
</svg>
