<svg width="30" height="32" viewBox="0 0 30 32" fill="none" xmlns="http://www.w3.org/2000/svg">
<path d="M12.6677 14.045L14.6796 12.077C15.2302 11.5383 15.6173 10.8363 15.7913 10.0613C15.9654 9.28624 15.9184 8.4734 15.6565 7.72702L14.7968 5.27902C14.4759 4.36563 13.8406 3.61712 13.0203 3.18605C12.2001 2.75497 11.2565 2.67378 10.3821 2.95902C7.16458 4.00902 4.69145 7.19902 5.4527 10.988C5.95333 13.48 6.91052 16.608 8.72645 19.937C10.2481 22.7407 12.1624 25.28 14.403 27.467C17.0936 30.079 20.9374 29.426 23.4105 26.967C24.0735 26.3077 24.4757 25.4035 24.5353 24.4388C24.5949 23.4741 24.3073 22.5214 23.7311 21.775L22.1552 19.733C21.6802 19.1172 21.0436 18.6669 20.3269 18.4399C19.6103 18.2129 18.8464 18.2196 18.1333 18.459L15.5308 19.334C15.4305 19.224 15.3152 19.093 15.1877 18.942C14.6527 18.3106 14.1793 17.6227 13.7749 16.889C13.3815 16.1485 13.0598 15.3671 12.8149 14.557C12.7625 14.3875 12.7135 14.2167 12.6677 14.045V14.045Z" fill="#3B5A89" fill-opacity="0.5"/>
</svg>
