<svg width="30" height="30" viewBox="0 0 30 30" fill="none" xmlns="http://www.w3.org/2000/svg">
<path d="M15.0001 2.41064C20.7698 2.41064 25.4466 7.08743 25.4466 12.8571C25.4466 17.2714 22.3448 22.0821 16.2216 27.3406C15.8811 27.6331 15.447 27.7938 14.9981 27.7934C14.5493 27.793 14.1155 27.6316 13.7755 27.3385L13.3705 26.9871C7.51835 21.8656 4.55371 17.1728 4.55371 12.8571C4.55371 7.08743 9.2305 2.41064 15.0001 2.41064ZM15.0001 8.83922C13.9345 8.83922 12.9126 9.26252 12.1591 10.016C11.4056 10.7695 10.9823 11.7915 10.9823 12.8571C10.9823 13.9227 11.4056 14.9446 12.1591 15.6981C12.9126 16.4516 13.9345 16.8749 15.0001 16.8749C16.0657 16.8749 17.0877 16.4516 17.8412 15.6981C18.5947 14.9446 19.018 13.9227 19.018 12.8571C19.018 11.7915 18.5947 10.7695 17.8412 10.016C17.0877 9.26252 16.0657 8.83922 15.0001 8.83922Z" fill="#3B5A89" fill-opacity="0.5"/>
</svg>
