<svg width="50" height="50" viewBox="0 0 50 50" fill="none" xmlns="http://www.w3.org/2000/svg">
<path d="M20.8334 6.77075C19.8664 6.77075 18.9391 7.15487 18.2554 7.83859C17.5717 8.52232 17.1875 9.44965 17.1875 10.4166V17.1874H10.4167C9.44977 17.1874 8.52244 17.5715 7.83871 18.2553C7.15499 18.939 6.77087 19.8663 6.77087 20.8333V29.1666C6.77087 31.1791 8.40421 32.8124 10.4167 32.8124H17.1875V39.5833C17.1875 41.5957 18.8209 43.2291 20.8334 43.2291H29.1667C30.1336 43.2291 31.061 42.845 31.7447 42.1612C32.4284 41.4775 32.8125 40.5502 32.8125 39.5833V32.8124H39.5834C40.5503 32.8124 41.4776 32.4283 42.1614 31.7446C42.8451 31.0609 43.2292 30.1335 43.2292 29.1666V20.8333C43.2292 19.8663 42.8451 18.939 42.1614 18.2553C41.4776 17.5715 40.5503 17.1874 39.5834 17.1874H32.8125V10.4166C32.8125 9.44965 32.4284 8.52232 31.7447 7.83859C31.061 7.15487 30.1336 6.77075 29.1667 6.77075H20.8334Z" fill="#3B5A89"/>
</svg>
