<svg width="30" height="30" viewBox="0 0 30 30" fill="none" xmlns="http://www.w3.org/2000/svg">
<path d="M5.625 8.4375C5.625 7.69158 5.92132 6.97621 6.44876 6.44876C6.97621 5.92132 7.69158 5.625 8.4375 5.625H21.5625C22.3084 5.625 23.0238 5.92132 23.5512 6.44876C24.0787 6.97621 24.375 7.69158 24.375 8.4375V21.5625C24.375 22.3084 24.0787 23.0238 23.5512 23.5512C23.0238 24.0787 22.3084 24.375 21.5625 24.375H8.4375C7.69158 24.375 6.97621 24.0787 6.44876 23.5512C5.92132 23.0238 5.625 22.3084 5.625 21.5625V8.4375ZM20.3512 12.8513C20.5273 12.6752 20.6262 12.4365 20.6262 12.1875C20.6262 11.9385 20.5273 11.6998 20.3512 11.5237C20.1752 11.3477 19.9365 11.2488 19.6875 11.2488C19.4385 11.2488 19.1998 11.3477 19.0238 11.5237L13.125 17.4244L10.9763 15.2738C10.8002 15.0977 10.5615 14.9988 10.3125 14.9988C10.0635 14.9988 9.82479 15.0977 9.64875 15.2738C9.47271 15.4498 9.37382 15.6885 9.37382 15.9375C9.37382 16.1865 9.47271 16.4252 9.64875 16.6012L12.4612 19.4137C12.5483 19.5011 12.6518 19.5703 12.7657 19.6176C12.8796 19.6648 13.0017 19.6892 13.125 19.6892C13.2483 19.6892 13.3704 19.6648 13.4843 19.6176C13.5982 19.5703 13.7017 19.5011 13.7887 19.4137L20.3512 12.8513Z" fill="#3B5A89"/>
</svg>
