<svg width="24" height="24" viewBox="0 0 24 24" fill="none" xmlns="http://www.w3.org/2000/svg">
<path d="M17.7541 13.9999C18.0495 13.9998 18.342 14.0579 18.615 14.1708C18.888 14.2838 19.136 14.4494 19.345 14.6583C19.5539 14.8671 19.7197 15.1151 19.8328 15.388C19.9458 15.6609 20.0041 15.9535 20.0041 16.2489V17.1669C20.004 17.7404 19.8246 18.2994 19.4911 18.7659C17.9451 20.9289 15.4201 21.9999 12.0001 21.9999C8.57805 21.9999 6.05505 20.9279 4.51305 18.7629C4.18138 18.2972 4.00311 17.7397 4.00305 17.1679V16.2479C4.00292 15.9525 4.061 15.6599 4.17396 15.3869C4.28692 15.114 4.45256 14.8659 4.66142 14.657C4.87027 14.448 5.11824 14.2823 5.39117 14.1692C5.66409 14.0561 5.95662 13.9979 6.25205 13.9979H17.7531L17.7541 13.9999ZM12.0001 2.00391C13.3261 2.00391 14.5979 2.53069 15.5356 3.46837C16.4733 4.40605 17.0001 5.67782 17.0001 7.00391C17.0001 8.32999 16.4733 9.60176 15.5356 10.5394C14.5979 11.4771 13.3261 12.0039 12.0001 12.0039C10.674 12.0039 9.4022 11.4771 8.46452 10.5394C7.52684 9.60176 7.00005 8.32999 7.00005 7.00391C7.00005 5.67782 7.52684 4.40605 8.46452 3.46837C9.4022 2.53069 10.674 2.00391 12.0001 2.00391Z" fill="#3B5A89"/>
</svg>
