<svg width="50" height="50" viewBox="0 0 50 50" fill="none" xmlns="http://www.w3.org/2000/svg">
<path d="M25 4.1626C23.6187 4.1626 22.2939 4.71133 21.3171 5.68808C20.3404 6.66484 19.7917 7.9896 19.7917 9.37093C19.7917 10.7523 20.3404 12.077 21.3171 13.0538C22.2939 14.0305 23.6187 14.5793 25 14.5793C26.3813 14.5793 27.7061 14.0305 28.6828 13.0538C29.6596 12.077 30.2083 10.7523 30.2083 9.37093C30.2083 7.9896 29.6596 6.66484 28.6828 5.68808C27.7061 4.71133 26.3813 4.1626 25 4.1626ZM42.3833 13.5751C42.2071 13.0396 41.9246 12.5452 41.5527 12.1215C41.1809 11.6978 40.7272 11.3535 40.2191 11.1094C39.711 10.8652 39.1587 10.7262 38.5956 10.7006C38.0324 10.675 37.4698 10.7634 36.9417 10.9605L33.5937 12.2105C33.2126 12.3522 32.9017 12.637 32.7271 13.0043C32.0393 14.4621 30.9517 15.6947 29.5909 16.5586C28.23 17.4226 26.6518 17.8824 25.0399 17.8845C23.428 17.8867 21.8486 17.4312 20.4854 16.5709C19.1222 15.7107 18.0313 14.4811 17.3396 13.0251C17.165 12.659 16.855 12.3751 16.475 12.2334L13.0833 10.9668C12.0585 10.596 10.9294 10.6401 9.93654 11.0896C8.9437 11.539 8.1656 12.3584 7.76797 13.3731C7.37034 14.3878 7.38461 15.5177 7.80775 16.5221C8.23089 17.5264 9.02945 18.3258 10.0333 18.7501L16.6667 21.4793V28.0376L12.5583 39.9397C12.1934 40.9572 12.2476 42.078 12.709 43.0555C13.1704 44.033 14.0013 44.7872 15.0187 45.1522C16.0362 45.5171 17.157 45.4629 18.1346 45.0015C19.1121 44.5401 19.8663 43.7093 20.2312 42.6918L24.0771 32.3626C24.1477 32.1711 24.2752 32.0057 24.4426 31.8888C24.6099 31.7719 24.809 31.709 25.0131 31.7085C25.2173 31.708 25.4167 31.7701 25.5845 31.8863C25.7523 32.0024 25.8806 32.1672 25.9521 32.3584L29.8729 42.7939C30.2362 43.8028 30.9854 44.6261 31.9557 45.0826C32.926 45.5391 34.0379 45.5915 35.0469 45.2282C36.0558 44.8649 36.8791 44.1157 37.3356 43.1454C37.7922 42.1751 37.8445 41.0632 37.4812 40.0543L33.3333 28.0126V21.4834L39.9896 18.7605C40.9707 18.3596 41.7634 17.6015 42.2076 16.6392C42.6519 15.6769 42.7147 14.5819 42.3833 13.5751Z" fill="#3B5A89"/>
</svg>
