<svg width="24" height="24" viewBox="0 0 24 24" fill="none" xmlns="http://www.w3.org/2000/svg">
<path d="M12 1.92871C16.6157 1.92871 20.3571 5.67014 20.3571 10.2859C20.3571 13.8173 17.8757 17.6659 12.9771 21.8727C12.7047 22.1067 12.3574 22.2352 11.9984 22.2349C11.6393 22.2346 11.2922 22.1055 11.0203 21.871L10.6963 21.5899C6.01454 17.4927 3.64282 13.7384 3.64282 10.2859C3.64282 5.67014 7.38425 1.92871 12 1.92871ZM12 7.07157C11.1475 7.07157 10.3299 7.41022 9.72712 8.01301C9.12433 8.61581 8.78568 9.43337 8.78568 10.2859C8.78568 11.1383 9.12433 11.9559 9.72712 12.5587C10.3299 13.1615 11.1475 13.5001 12 13.5001C12.8524 13.5001 13.67 13.1615 14.2728 12.5587C14.8756 11.9559 15.2143 11.1383 15.2143 10.2859C15.2143 9.43337 14.8756 8.61581 14.2728 8.01301C13.67 7.41022 12.8524 7.07157 12 7.07157Z" fill="#3B5A89" fill-opacity="0.5"/>
</svg>
