<svg width="20" height="20" viewBox="0 0 20 20" fill="none" xmlns="http://www.w3.org/2000/svg">
<path d="M2.5 3.3335C2.5 3.00198 2.6317 2.68403 2.86612 2.44961C3.10054 2.21519 3.41848 2.0835 3.75 2.0835C4.08152 2.0835 4.39946 2.21519 4.63388 2.44961C4.8683 2.68403 5 3.00198 5 3.3335V4.41016C6.2347 3.30659 7.79992 2.64269 9.45152 2.52202C11.1031 2.40134 12.7482 2.83068 14.1302 3.74306C15.5122 4.65544 16.5534 5.99956 17.0913 7.56575C17.6292 9.13195 17.6337 10.8321 17.104 12.4011C16.5743 13.9701 15.5402 15.3197 14.163 16.2393C12.7858 17.1589 11.143 17.5969 9.49078 17.4849C7.83858 17.3729 6.26989 16.7172 5.02942 15.6201C3.78895 14.5231 2.94645 13.0463 2.63333 11.4202C2.48667 10.6452 3.14167 10.0002 3.93 10.0002C4.52167 10.0002 4.99 10.4852 5.115 11.0635C5.34205 12.1083 5.89794 13.0529 6.70113 13.7586C7.50432 14.4644 8.51253 14.8942 9.57787 14.985C10.6432 15.0758 11.7096 14.8228 12.6206 14.2631C13.5317 13.7034 14.2394 12.8666 14.64 11.8753C15.0405 10.8839 15.1129 9.79032 14.8464 8.75485C14.58 7.71939 13.9887 6.79656 13.1594 6.12174C12.33 5.44692 11.3063 5.05562 10.2382 5.00524C9.17023 4.95487 8.11418 5.24807 7.225 5.84183H7.91833C8.24985 5.84183 8.5678 5.97353 8.80222 6.20795C9.03664 6.44237 9.16833 6.76031 9.16833 7.09183C9.16833 7.42335 9.03664 7.74129 8.80222 7.97571C8.5678 8.21013 8.24985 8.34183 7.91833 8.34183H3.75167C3.42015 8.34183 3.1022 8.21013 2.86778 7.97571C2.63336 7.74129 2.50167 7.42335 2.50167 7.09183V3.3335H2.5Z" fill="#E54141"/>
</svg>
