<svg width="100" height="100" viewBox="0 0 100 100" fill="none" xmlns="http://www.w3.org/2000/svg">
<circle cx="50" cy="50" r="50" fill="#3B5A89" fill-opacity="0.5"/>
<path d="M50 50C54.6413 50 59.0925 48.1563 62.3744 44.8744C65.6563 41.5925 67.5 37.1413 67.5 32.5C67.5 27.8587 65.6563 23.4075 62.3744 20.1256C59.0925 16.8437 54.6413 15 50 15C45.3587 15 40.9075 16.8437 37.6256 20.1256C34.3437 23.4075 32.5 27.8587 32.5 32.5C32.5 37.1413 34.3437 41.5925 37.6256 44.8744C40.9075 48.1563 45.3587 50 50 50V50ZM28.75 55C26.4294 55 24.2038 55.9219 22.5628 57.5628C20.9219 59.2038 20 61.4294 20 63.75V65C20 70.9825 23.8075 76.0425 29.2125 79.4825C34.6475 82.9425 42.005 85 50 85C57.995 85 65.35 82.9425 70.7875 79.4825C76.1925 76.0425 80 70.9825 80 65V63.75C80 61.4294 79.0781 59.2038 77.4372 57.5628C75.7962 55.9219 73.5706 55 71.25 55H28.75Z" fill="white"/>
</svg>
