<svg width="30" height="30" viewBox="0 0 30 30" fill="none" xmlns="http://www.w3.org/2000/svg">
<path d="M15.015 2.8125C15.9325 2.8225 16.8463 2.92875 17.7425 3.12875C17.9332 3.17131 18.1058 3.27238 18.2362 3.41783C18.3667 3.56327 18.4484 3.74583 18.47 3.94L18.6825 5.84875C18.7125 6.11786 18.8053 6.37616 18.9533 6.60288C19.1014 6.8296 19.3005 7.01841 19.5349 7.15411C19.7692 7.28981 20.0321 7.36862 20.3024 7.38419C20.5727 7.39976 20.8429 7.35165 21.0913 7.24375L22.8425 6.475C23.0203 6.39669 23.2181 6.37555 23.4084 6.41452C23.5988 6.45348 23.7723 6.55062 23.905 6.6925C25.17 8.04386 26.1119 9.66451 26.66 11.4325C26.7175 11.6183 26.7158 11.8174 26.6551 12.0021C26.5944 12.1869 26.4777 12.3482 26.3213 12.4637L24.7688 13.6088C24.5504 13.7691 24.3729 13.9786 24.2506 14.2203C24.1282 14.462 24.0645 14.7291 24.0645 15C24.0645 15.2709 24.1282 15.538 24.2506 15.7797C24.3729 16.0214 24.5504 16.2309 24.7688 16.3912L26.3225 17.535C26.4795 17.6504 26.5965 17.8119 26.6574 17.9969C26.7184 18.182 26.7202 18.3814 26.6625 18.5675C26.1142 20.3354 25.1723 21.956 23.9075 23.3075C23.7751 23.4491 23.6021 23.5461 23.4123 23.5853C23.2225 23.6245 23.0251 23.6038 22.8475 23.5262L21.0888 22.755C20.8408 22.6463 20.5706 22.5974 20.3002 22.6125C20.0299 22.6275 19.7668 22.706 19.5324 22.8416C19.298 22.9772 19.0988 23.1661 18.9509 23.3929C18.8031 23.6198 18.7107 23.8783 18.6813 24.1475L18.47 26.055C18.4487 26.2471 18.3686 26.4278 18.2406 26.5726C18.1126 26.7174 17.943 26.8191 17.755 26.8637C15.9445 27.2945 14.0581 27.2945 12.2475 26.8637C12.0595 26.8191 11.8899 26.7174 11.7619 26.5726C11.634 26.4278 11.5538 26.2471 11.5325 26.055L11.3225 24.15C11.2919 23.8815 11.1987 23.6239 11.0504 23.3979C10.9021 23.172 10.7029 22.984 10.4687 22.849C10.2346 22.714 9.97203 22.6359 9.70218 22.6209C9.43233 22.6059 9.16272 22.6544 8.91503 22.7625L7.15753 23.5325C6.97975 23.6104 6.78219 23.6312 6.5921 23.592C6.40201 23.5528 6.22876 23.4556 6.09628 23.3137C4.83091 21.9608 3.88894 20.3384 3.34128 18.5687C3.28365 18.3827 3.28542 18.1832 3.34635 17.9982C3.40729 17.8132 3.52435 17.6517 3.68128 17.5363L5.23503 16.3912C5.45358 16.231 5.63132 16.0216 5.75384 15.7799C5.87635 15.5382 5.9402 15.271 5.9402 15C5.9402 14.729 5.87635 14.4618 5.75384 14.2201C5.63132 13.9784 5.45358 13.769 5.23503 13.6088L3.68128 12.4662C3.52457 12.3506 3.40776 12.1891 3.34705 12.0041C3.28635 11.8191 3.28476 11.6197 3.34253 11.4338C3.89068 9.66578 4.83264 8.04514 6.09753 6.69375C6.23026 6.55187 6.40379 6.45473 6.59413 6.41577C6.78447 6.3768 6.98222 6.39794 7.16003 6.47625L8.91003 7.245C9.1588 7.35284 9.4294 7.40083 9.70008 7.38511C9.97077 7.36939 10.234 7.2904 10.4686 7.15449C10.7032 7.01858 10.9027 6.82954 11.051 6.60255C11.1993 6.37556 11.2923 6.11695 11.3225 5.8475L11.535 3.94C11.5565 3.74544 11.6383 3.56248 11.769 3.41677C11.8997 3.27106 12.0727 3.16991 12.2638 3.1275C13.16 2.92875 14.0763 2.82375 15.015 2.8125ZM15 11.25C14.0055 11.25 13.0516 11.6451 12.3484 12.3483C11.6451 13.0516 11.25 14.0054 11.25 15C11.25 15.9946 11.6451 16.9484 12.3484 17.6517C13.0516 18.3549 14.0055 18.75 15 18.75C15.9946 18.75 16.9484 18.3549 17.6517 17.6517C18.3549 16.9484 18.75 15.9946 18.75 15C18.75 14.0054 18.3549 13.0516 17.6517 12.3483C16.9484 11.6451 15.9946 11.25 15 11.25Z" fill="#3B5A89"/>
</svg>
