<svg width="50" height="50" viewBox="0 0 50 50" fill="none" xmlns="http://www.w3.org/2000/svg">
<path d="M24.7157 6C25.6332 6.01 26.547 6.11625 27.4432 6.31625C27.6339 6.35881 27.8065 6.45988 27.9369 6.60533C28.0674 6.75077 28.1491 6.93333 28.1707 7.1275L28.3832 9.03625C28.4132 9.30536 28.506 9.56366 28.654 9.79038C28.802 10.0171 29.0012 10.2059 29.2355 10.3416C29.4699 10.4773 29.7328 10.5561 30.0031 10.5717C30.2734 10.5873 30.5436 10.5392 30.792 10.4313L32.5432 9.6625C32.721 9.58419 32.9188 9.56305 33.1091 9.60202C33.2994 9.64098 33.473 9.73812 33.6057 9.88C34.8706 11.2314 35.8126 12.852 36.3607 14.62C36.4182 14.8058 36.4165 15.0049 36.3558 15.1896C36.2951 15.3744 36.1784 15.5357 36.022 15.6512L34.4695 16.7963C34.2511 16.9566 34.0736 17.1661 33.9513 17.4078C33.8289 17.6495 33.7652 17.9166 33.7652 18.1875C33.7652 18.4584 33.8289 18.7255 33.9513 18.9672C34.0736 19.2089 34.2511 19.4184 34.4695 19.5787L36.0232 20.7225C36.1801 20.8379 36.2972 20.9994 36.3581 21.1844C36.4191 21.3695 36.4208 21.5689 36.3632 21.755C35.8149 23.5229 34.873 25.1435 33.6082 26.495C33.4758 26.6366 33.3028 26.7336 33.113 26.7728C32.9231 26.812 32.7258 26.7913 32.5482 26.7137L30.7895 25.9425C30.5414 25.8338 30.2713 25.7849 30.0009 25.8C29.7305 25.815 29.4675 25.8935 29.2331 26.0291C28.9987 26.1647 28.7995 26.3536 28.6516 26.5804C28.5037 26.8073 28.4114 27.0658 28.382 27.335L28.1707 29.2425C28.1494 29.4346 28.0693 29.6153 27.9413 29.7601C27.8133 29.9049 27.6437 30.0066 27.4557 30.0512C25.6451 30.482 23.7588 30.482 21.9482 30.0512C21.7602 30.0066 21.5906 29.9049 21.4626 29.7601C21.3346 29.6153 21.2545 29.4346 21.2332 29.2425L21.0232 27.3375C20.9926 27.069 20.8994 26.8114 20.7511 26.5854C20.6028 26.3595 20.4036 26.1715 20.1694 26.0365C19.9353 25.9015 19.6727 25.8234 19.4029 25.8084C19.133 25.7934 18.8634 25.8419 18.6157 25.95L16.8582 26.72C16.6804 26.7979 16.4829 26.8187 16.2928 26.7795C16.1027 26.7403 15.9294 26.6431 15.797 26.5012C14.5316 25.1483 13.5896 23.5259 13.042 21.7562C12.9843 21.5702 12.9861 21.3707 13.047 21.1857C13.108 21.0007 13.225 20.8392 13.382 20.7238L14.9357 19.5787C15.1543 19.4185 15.332 19.2091 15.4545 18.9674C15.577 18.7257 15.6409 18.4585 15.6409 18.1875C15.6409 17.9165 15.577 17.6493 15.4545 17.4076C15.332 17.1659 15.1543 16.9565 14.9357 16.7963L13.382 15.6537C13.2253 15.5381 13.1084 15.3766 13.0477 15.1916C12.987 15.0066 12.9854 14.8072 13.0432 14.6213C13.5914 12.8533 14.5333 11.2326 15.7982 9.88125C15.9309 9.73937 16.1045 9.64223 16.2948 9.60327C16.4852 9.5643 16.6829 9.58544 16.8607 9.66375L18.6107 10.4325C18.8595 10.5403 19.1301 10.5883 19.4008 10.5726C19.6715 10.5569 19.9347 10.4779 20.1693 10.342C20.4039 10.2061 20.6034 10.017 20.7517 9.79005C20.9 9.56306 20.993 9.30445 21.0232 9.035L21.2357 7.1275C21.2572 6.93294 21.339 6.74998 21.4697 6.60427C21.6004 6.45856 21.7734 6.35741 21.9645 6.315C22.8607 6.11625 23.777 6.01125 24.7157 6ZM24.7007 14.4375C23.7061 14.4375 22.7523 14.8326 22.0491 15.5358C21.3458 16.2391 20.9507 17.1929 20.9507 18.1875C20.9507 19.1821 21.3458 20.1359 22.0491 20.8392C22.7523 21.5424 23.7061 21.9375 24.7007 21.9375C25.6953 21.9375 26.6491 21.5424 27.3524 20.8392C28.0556 20.1359 28.4507 19.1821 28.4507 18.1875C28.4507 17.1929 28.0556 16.2391 27.3524 15.5358C26.6491 14.8326 25.6953 14.4375 24.7007 14.4375Z" fill="#9DACC4"/>
</svg>
