<svg width="19" height="19" viewBox="0 0 19 19" fill="none" xmlns="http://www.w3.org/2000/svg">
<path d="M7.12467 5.54159V10.2916H10.2913V11.8749H7.12467V13.4583H10.2913C10.7113 13.4583 11.114 13.2914 11.4109 12.9945C11.7079 12.6976 11.8747 12.2948 11.8747 11.8749V10.2916C11.8747 9.87166 11.7079 9.46893 11.4109 9.172C11.114 8.87507 10.7113 8.70825 10.2913 8.70825H8.70801V7.12492H11.8747V5.54159H7.12467ZM9.49968 1.58325C10.5393 1.58325 11.5688 1.78802 12.5293 2.18587C13.4897 2.58372 14.3625 3.16686 15.0976 3.90199C15.8327 4.63712 16.4159 5.50985 16.8137 6.47034C17.2116 7.43084 17.4163 8.46029 17.4163 9.49992C17.4163 11.5996 16.5823 13.6132 15.0976 15.0978C13.6129 16.5825 11.5993 17.4166 9.49968 17.4166C8.46004 17.4166 7.43059 17.2118 6.4701 16.814C5.5096 16.4161 4.63688 15.833 3.90175 15.0978C2.41708 13.6132 1.58301 11.5996 1.58301 9.49992C1.58301 7.40029 2.41708 5.38665 3.90175 3.90199C5.38641 2.41733 7.40004 1.58325 9.49968 1.58325Z" fill="#FFAAA5"/>
</svg>
