<svg width="19" height="19" viewBox="0 0 19 19" fill="none" xmlns="http://www.w3.org/2000/svg">
<path d="M7.12467 5.54159V7.12492H10.2913V8.70825H8.70801C8.28808 8.70825 7.88536 8.87507 7.58842 9.172C7.29149 9.46893 7.12467 9.87166 7.12467 10.2916V13.4583H11.8747V11.8749H8.70801V10.2916H10.2913C10.7113 10.2916 11.114 10.1248 11.4109 9.82784C11.7079 9.53091 11.8747 9.12818 11.8747 8.70825V7.12492C11.8747 6.70499 11.7079 6.30227 11.4109 6.00533C11.114 5.7084 10.7113 5.54159 10.2913 5.54159H7.12467ZM9.49968 1.58325C10.5393 1.58325 11.5688 1.78802 12.5293 2.18587C13.4897 2.58372 14.3625 3.16686 15.0976 3.90199C15.8327 4.63712 16.4159 5.50985 16.8137 6.47034C17.2116 7.43084 17.4163 8.46029 17.4163 9.49992C17.4163 11.5996 16.5823 13.6132 15.0976 15.0978C13.6129 16.5825 11.5993 17.4166 9.49968 17.4166C8.46004 17.4166 7.43059 17.2118 6.4701 16.814C5.5096 16.4161 4.63688 15.833 3.90175 15.0978C2.41708 13.6132 1.58301 11.5996 1.58301 9.49992C1.58301 7.40029 2.41708 5.38665 3.90175 3.90199C5.38641 2.41733 7.40004 1.58325 9.49968 1.58325Z" fill="#FFAAA5"/>
</svg>
