<svg width="19" height="19" viewBox="0 0 19 19" fill="none" xmlns="http://www.w3.org/2000/svg">
<path d="M11.8747 11.8749V10.6874C11.8747 10.3725 11.7496 10.0704 11.5269 9.84773C11.3042 9.62503 11.0021 9.49992 10.6872 9.49992C11.0021 9.49992 11.3042 9.37481 11.5269 9.15211C11.7496 8.92941 11.8747 8.62736 11.8747 8.31242V7.12492C11.8747 6.70499 11.7079 6.30227 11.4109 6.00533C11.114 5.7084 10.7113 5.54159 10.2913 5.54159H7.12467V7.12492H10.2913V8.70825H8.70801V10.2916H10.2913V11.8749H7.12467V13.4583H10.2913C10.7113 13.4583 11.114 13.2914 11.4109 12.9945C11.7079 12.6976 11.8747 12.2948 11.8747 11.8749ZM9.49968 1.58325C10.5393 1.58325 11.5688 1.78802 12.5293 2.18587C13.4897 2.58372 14.3625 3.16686 15.0976 3.90199C15.8327 4.63712 16.4159 5.50985 16.8137 6.47034C17.2116 7.43084 17.4163 8.46029 17.4163 9.49992C17.4163 11.5996 16.5823 13.6132 15.0976 15.0978C13.6129 16.5825 11.5993 17.4166 9.49968 17.4166C8.46004 17.4166 7.43059 17.2118 6.4701 16.814C5.5096 16.4161 4.63688 15.833 3.90175 15.0978C2.41708 13.6132 1.58301 11.5996 1.58301 9.49992C1.58301 7.40029 2.41708 5.38665 3.90175 3.90199C5.38641 2.41733 7.40004 1.58325 9.49968 1.58325Z" fill="#FFAAA5"/>
</svg>
