<svg width="30" height="30" viewBox="0 0 30 30" fill="none" xmlns="http://www.w3.org/2000/svg">
<path d="M25 6.25H21.25L18.75 3.75H11.25L8.75 6.25H5C3.625 6.25 2.5 7.375 2.5 8.75V23.75C2.5 24.413 2.76339 25.0489 3.23223 25.5178C3.70107 25.9866 4.33696 26.25 5 26.25H25C26.3875 26.25 27.5 25.1375 27.5 23.75V8.75C27.5 8.08696 27.2366 7.45107 26.7678 6.98223C26.2989 6.51339 25.663 6.25 25 6.25ZM6.25 15H8.875C9.03855 14.1953 9.35914 13.4308 9.81844 12.7502C10.2777 12.0695 10.8667 11.4861 11.5517 11.0334C12.2367 10.5806 13.0042 10.2673 13.8104 10.1114C14.6166 9.95555 15.4456 9.96017 16.25 10.125C17.2 10.3125 18.0375 10.7375 18.75 11.25L16.95 13.0625C16.3875 12.7125 15.725 12.5 15 12.5C13.425 12.5 12 13.5 11.475 15H13.75L10 18.75L6.25 15ZM21.1375 17.5C20.45 20.8875 17.15 23.0625 13.75 22.375C12.8489 22.1736 11.9983 21.7908 11.25 21.25L13.05 19.4375C13.625 19.7875 14.2875 20 15 20C16.5875 20 18.0125 19 18.5375 17.5H16.25L20 13.75L23.75 17.5H21.1375Z" fill="#FFAAA5"/>
</svg>
