<svg width="30" height="30" viewBox="0 0 30 30" fill="none" xmlns="http://www.w3.org/2000/svg">
<path d="M5 5H8.75L11.25 2.5H18.75L21.25 5H25C25.663 5 26.2989 5.26339 26.7678 5.73223C27.2366 6.20107 27.5 6.83696 27.5 7.5V22.5C27.5 23.163 27.2366 23.7989 26.7678 24.2678C26.2989 24.7366 25.663 25 25 25H5C4.33696 25 3.70107 24.7366 3.23223 24.2678C2.76339 23.7989 2.5 23.163 2.5 22.5V7.5C2.5 6.83696 2.76339 6.20107 3.23223 5.73223C3.70107 5.26339 4.33696 5 5 5ZM15 8.75C13.3424 8.75 11.7527 9.40848 10.5806 10.5806C9.40848 11.7527 8.75 13.3424 8.75 15C8.75 16.6576 9.40848 18.2473 10.5806 19.4194C11.7527 20.5915 13.3424 21.25 15 21.25C16.6576 21.25 18.2473 20.5915 19.4194 19.4194C20.5915 18.2473 21.25 16.6576 21.25 15C21.25 13.3424 20.5915 11.7527 19.4194 10.5806C18.2473 9.40848 16.6576 8.75 15 8.75ZM15 11.25C15.9946 11.25 16.9484 11.6451 17.6517 12.3483C18.3549 13.0516 18.75 14.0054 18.75 15C18.75 15.9946 18.3549 16.9484 17.6517 17.6517C16.9484 18.3549 15.9946 18.75 15 18.75C14.0054 18.75 13.0516 18.3549 12.3483 17.6517C11.6451 16.9484 11.25 15.9946 11.25 15C11.25 14.0054 11.6451 13.0516 12.3483 12.3483C13.0516 11.6451 14.0054 11.25 15 11.25Z" fill="#FF8B94"/>
</svg>
