<svg width="24" height="24" viewBox="0 0 24 24" fill="none" xmlns="http://www.w3.org/2000/svg">
<path d="M21.9496 8.721L21.9246 8.553L21.8986 8.559C21.7209 7.72804 21.3115 6.96437 20.7179 6.35635C20.1243 5.74833 19.3706 5.32082 18.5442 5.12328C17.7177 4.92574 16.8522 4.96625 16.0478 5.24011C15.2434 5.51397 14.5329 6.00999 13.9987 6.67079C13.4644 7.33159 13.1282 8.13015 13.0289 8.97408C12.9296 9.818 13.0712 10.6728 13.4375 11.4396C13.8038 12.2063 14.3796 12.8537 15.0985 13.3068C15.8173 13.76 16.6498 14.0003 17.4996 14C17.7226 14 17.9366 13.966 18.1496 13.935C18.0806 14.167 18.0096 14.403 17.8956 14.615C17.7816 14.923 17.6036 15.19 17.4266 15.459C17.2786 15.75 17.0176 15.947 16.8256 16.196C16.6246 16.438 16.3506 16.599 16.1336 16.8C15.9206 17.01 15.6416 17.115 15.4196 17.263C15.1876 17.396 14.9856 17.543 14.7696 17.613L14.2306 17.835L13.7566 18.032L14.2406 19.971L14.8376 19.827C15.0286 19.779 15.2616 19.723 15.5266 19.656C15.7976 19.606 16.0866 19.469 16.4086 19.344C16.7256 19.201 17.0946 19.106 17.4366 18.877C17.7806 18.659 18.1776 18.477 18.5276 18.185C18.8666 17.884 19.2756 17.623 19.5776 17.241C19.9076 16.883 20.2336 16.507 20.4866 16.079C20.7796 15.671 20.9786 15.223 21.1886 14.78C21.3786 14.337 21.5316 13.884 21.6566 13.444C21.8936 12.562 21.9996 11.724 22.0406 11.007C22.0746 10.289 22.0546 9.692 22.0126 9.26C21.9985 9.07959 21.9775 8.89979 21.9496 8.721ZM10.9496 8.721L10.9246 8.553L10.8986 8.559C10.7209 7.72804 10.3115 6.96437 9.7179 6.35635C9.12428 5.74833 8.37063 5.32082 7.54416 5.12328C6.71769 4.92574 5.85218 4.96625 5.04777 5.24011C4.24336 5.51397 3.53293 6.00999 2.99868 6.67079C2.46443 7.33159 2.1282 8.13015 2.02889 8.97408C1.92958 9.818 2.07124 10.6728 2.4375 11.4396C2.80375 12.2063 3.37963 12.8537 4.09849 13.3068C4.81735 13.76 5.64981 14.0003 6.49956 14C6.72256 14 6.93656 13.966 7.14956 13.935C7.08056 14.167 7.00956 14.403 6.89556 14.615C6.78156 14.923 6.60356 15.19 6.42656 15.459C6.27856 15.75 6.01756 15.947 5.82556 16.196C5.62456 16.438 5.35056 16.599 5.13356 16.8C4.92056 17.01 4.64156 17.115 4.41956 17.263C4.18756 17.396 3.98556 17.543 3.76956 17.613L3.23056 17.835C2.92956 17.958 2.75756 18.03 2.75756 18.03L3.24156 19.969L3.83856 19.825C4.02956 19.777 4.26256 19.721 4.52756 19.654C4.79856 19.604 5.08756 19.467 5.40956 19.342C5.72656 19.199 6.09556 19.104 6.43756 18.875C6.78156 18.657 7.17856 18.475 7.52856 18.183C7.86756 17.882 8.27656 17.621 8.57856 17.239C8.90856 16.881 9.23456 16.505 9.48756 16.077C9.78056 15.669 9.97956 15.221 10.1896 14.778C10.3796 14.335 10.5326 13.882 10.6576 13.442C10.8946 12.56 11.0006 11.722 11.0416 11.005C11.0756 10.287 11.0556 9.69 11.0136 9.258C10.9986 9.0783 10.9773 8.89918 10.9496 8.721Z" fill="black"/>
</svg>
