<svg width="24" height="24" viewBox="0 0 24 24" fill="none" xmlns="http://www.w3.org/2000/svg">
<path d="M21 9C19.9 9 19 8.1 19 7C19 5.9 21 3 21 3C21 3 23 5.9 23 7C23 8.1 22.1 9 21 9ZM17.5 7C17.5 6.27 17.91 5.29 18.42 4.34C16.623 2.8272 14.349 1.99838 12 2C6.47 2 2 6.5 2 12C2 17.5 6.47 22 12 22C17.5 22 22 17.5 22 12C22 11.45 21.94 10.91 21.86 10.38C21.5794 10.4555 21.2905 10.4959 21 10.5C19.07 10.5 17.5 8.93 17.5 7V7ZM15.62 7.38L16.68 8.44L15.62 9.5L16.68 10.56L15.62 11.62L13.5 9.5L15.62 7.38V7.38ZM7.32 8.44L8.38 7.38L10.5 9.5L8.38 11.62L7.32 10.56L8.38 9.5L7.32 8.44ZM15.44 17C14.75 15.81 13.47 15 12 15C10.53 15 9.25 15.81 8.56 17H6.88C7.18 16.24 7.64 15.57 8.22 15L5.24 13.3C4.79 13.56 4.23 13.58 3.75 13.3C3.41151 13.0979 3.16611 12.7708 3.0668 12.3893C2.96749 12.0078 3.02225 11.6026 3.21924 11.2611C3.41624 10.9196 3.73966 10.6694 4.11964 10.5644C4.49961 10.4594 4.90564 10.5081 5.25 10.7C5.73 11 6 11.5 6 12L9.57 14.06C10.3 13.7 11.12 13.5 12 13.5C14.33 13.5 16.32 14.95 17.12 17H15.44V17Z" fill="url(#paint0_linear)" fill-opacity="0.5"/>
<defs>
<linearGradient id="paint0_linear" x1="12.5" y1="2" x2="12.5" y2="22" gradientUnits="userSpaceOnUse">
<stop stop-color="#FFAAA5"/>
<stop offset="1" stop-color="#FFEFE4"/>
</linearGradient>
</defs>
</svg>
