<svg width="45" height="37" viewBox="0 0 45 37" fill="none" xmlns="http://www.w3.org/2000/svg">
<path d="M43.6318 7.43441C42.9381 5.97958 41.9377 4.66123 40.6868 3.55316C39.435 2.44178 37.959 1.55858 36.3392 0.951596C34.6595 0.319688 32.858 -0.00375837 31.0392 3.29478e-05C28.4875 3.29478e-05 25.9979 0.632845 23.8345 1.82816C23.3169 2.1141 22.8252 2.42816 22.3594 2.77035C21.8936 2.42816 21.4019 2.1141 20.8843 1.82816C18.7208 0.632845 16.2312 3.29478e-05 13.6796 3.29478e-05C11.8422 3.29478e-05 10.0617 0.318783 8.37959 0.951596C6.75439 1.56097 5.28965 2.43753 4.03193 3.55316C2.77938 4.65998 1.7788 5.97864 1.08691 7.43441C0.367481 8.94847 0 10.5563 0 12.211C0 13.7719 0.351953 15.3985 1.05068 17.0532C1.63555 18.436 2.47402 19.8703 3.54541 21.3188C5.24307 23.611 7.57734 26.0016 10.4758 28.425C15.2789 32.4422 20.0354 35.2172 20.2373 35.3297L21.464 36.0422C22.0074 36.3563 22.7062 36.3563 23.2496 36.0422L24.4763 35.3297C24.6781 35.2125 29.4295 32.4422 34.2378 28.425C37.1362 26.0016 39.4705 23.611 41.1682 21.3188C42.2396 19.8703 43.0832 18.436 43.6629 17.0532C44.3616 15.3985 44.7136 13.7719 44.7136 12.211C44.7188 10.5563 44.3513 8.94847 43.6318 7.43441V7.43441Z" fill="#FFAAA5"/>
</svg>
