<svg width="28" height="28" viewBox="0 0 28 28" fill="none" xmlns="http://www.w3.org/2000/svg">
<g clip-path="url(#clip0)">
<g filter="url(#filter0_d)">
<path d="M13.9998 18.0833C12.9168 18.0833 11.8782 17.653 11.1125 16.8873C10.3467 16.1215 9.91648 15.0829 9.91648 13.9999C9.91648 12.917 10.3467 11.8783 11.1125 11.1126C11.8782 10.3468 12.9168 9.91659 13.9998 9.91659C15.0828 9.91659 16.1214 10.3468 16.8872 11.1126C17.6529 11.8783 18.0831 12.917 18.0831 13.9999C18.0831 15.0829 17.6529 16.1215 16.8872 16.8873C16.1214 17.653 15.0828 18.0833 13.9998 18.0833ZM22.6681 15.1316C22.7148 14.7583 22.7498 14.3849 22.7498 13.9999C22.7498 13.6149 22.7148 13.2299 22.6681 12.8333L25.1298 10.9316C25.3515 10.7566 25.4098 10.4416 25.2698 10.1849L22.9365 6.14825C22.7965 5.89159 22.4815 5.78659 22.2248 5.89159L19.3198 7.05825C18.7131 6.60325 18.0831 6.20659 17.3481 5.91492L16.9165 2.82325C16.8928 2.68584 16.8212 2.56125 16.7144 2.47156C16.6077 2.38188 16.4726 2.33288 16.3331 2.33325H11.6665C11.3748 2.33325 11.1298 2.54325 11.0831 2.82325L10.6515 5.91492C9.91648 6.20659 9.28648 6.60325 8.67981 7.05825L5.77481 5.89159C5.51815 5.78659 5.20315 5.89159 5.06315 6.14825L2.72981 10.1849C2.57815 10.4416 2.64815 10.7566 2.86981 10.9316L5.33148 12.8333C5.28481 13.2299 5.24981 13.6149 5.24981 13.9999C5.24981 14.3849 5.28481 14.7583 5.33148 15.1316L2.86981 17.0683C2.64815 17.2433 2.57815 17.5583 2.72981 17.8149L5.06315 21.8516C5.20315 22.1083 5.51815 22.2016 5.77481 22.1083L8.67981 20.9299C9.28648 21.3966 9.91648 21.7933 10.6515 22.0849L11.0831 25.1766C11.1298 25.4566 11.3748 25.6666 11.6665 25.6666H16.3331C16.6248 25.6666 16.8698 25.4566 16.9165 25.1766L17.3481 22.0849C18.0831 21.7816 18.7131 21.3966 19.3198 20.9299L22.2248 22.1083C22.4815 22.2016 22.7965 22.1083 22.9365 21.8516L25.2698 17.8149C25.4098 17.5583 25.3515 17.2433 25.1298 17.0683L22.6681 15.1316Z" fill="#FF8B94"/>
</g>
</g>
<defs>
<filter id="filter0_d" x="-0.351074" y="2.33325" width="28.6966" height="29.3333" filterUnits="userSpaceOnUse" color-interpolation-filters="sRGB">
<feFlood flood-opacity="0" result="BackgroundImageFix"/>
<feColorMatrix in="SourceAlpha" type="matrix" values="0 0 0 0 0 0 0 0 0 0 0 0 0 0 0 0 0 0 127 0" result="hardAlpha"/>
<feOffset dy="3"/>
<feGaussianBlur stdDeviation="1.5"/>
<feComposite in2="hardAlpha" operator="out"/>
<feColorMatrix type="matrix" values="0 0 0 0 1 0 0 0 0 0.666667 0 0 0 0 0.647059 0 0 0 1 0"/>
<feBlend mode="normal" in2="BackgroundImageFix" result="effect1_dropShadow"/>
<feBlend mode="normal" in="SourceGraphic" in2="effect1_dropShadow" result="shape"/>
</filter>
<clipPath id="clip0">
<rect width="28" height="28" fill="white"/>
</clipPath>
</defs>
</svg>
