<svg width="28" height="28" viewBox="0 0 28 28" fill="none" xmlns="http://www.w3.org/2000/svg">
<g clip-path="url(#clip0)">
<g filter="url(#filter0_d)">
<path d="M24.4998 19.8334H8.1665V3.50008H24.4998V19.8334ZM24.4998 1.16675H8.1665C7.54767 1.16675 6.95417 1.41258 6.51659 1.85017C6.079 2.28775 5.83317 2.88124 5.83317 3.50008V19.8334C5.83317 20.4523 6.079 21.0457 6.51659 21.4833C6.95417 21.9209 7.54767 22.1667 8.1665 22.1667H24.4998C25.1187 22.1667 25.7122 21.9209 26.1498 21.4833C26.5873 21.0457 26.8332 20.4523 26.8332 19.8334V3.50008C26.8332 2.88124 26.5873 2.28775 26.1498 1.85017C25.7122 1.41258 25.1187 1.16675 24.4998 1.16675ZM3.49984 5.83341H1.1665V24.5001C1.1665 25.1189 1.41234 25.7124 1.84992 26.15C2.28751 26.5876 2.881 26.8334 3.49984 26.8334H22.1665V24.5001H3.49984V5.83341ZM18.6198 12.0051L15.4115 16.1351L13.1248 13.3817L9.9165 17.5001H22.7498L18.6198 12.0051Z" fill="#FF8B94"/>
</g>
</g>
<defs>
<filter id="filter0_d" x="-1.8335" y="1.16675" width="31.6667" height="31.6667" filterUnits="userSpaceOnUse" color-interpolation-filters="sRGB">
<feFlood flood-opacity="0" result="BackgroundImageFix"/>
<feColorMatrix in="SourceAlpha" type="matrix" values="0 0 0 0 0 0 0 0 0 0 0 0 0 0 0 0 0 0 127 0" result="hardAlpha"/>
<feOffset dy="3"/>
<feGaussianBlur stdDeviation="1.5"/>
<feComposite in2="hardAlpha" operator="out"/>
<feColorMatrix type="matrix" values="0 0 0 0 1 0 0 0 0 0.666667 0 0 0 0 0.647059 0 0 0 1 0"/>
<feBlend mode="normal" in2="BackgroundImageFix" result="effect1_dropShadow"/>
<feBlend mode="normal" in="SourceGraphic" in2="effect1_dropShadow" result="shape"/>
</filter>
<clipPath id="clip0">
<rect width="28" height="28" fill="white"/>
</clipPath>
</defs>
</svg>
