<svg width="28" height="28" viewBox="0 0 28 28" fill="none" xmlns="http://www.w3.org/2000/svg">
<g clip-path="url(#clip0)">
<g filter="url(#filter0_d)">
<path d="M11.6665 22.1668V16.3334H16.3332V22.1668C16.3332 22.8084 16.8582 23.3334 17.4999 23.3334H20.9999C21.6415 23.3334 22.1665 22.8084 22.1665 22.1668V14.0001H24.1499C24.6865 14.0001 24.9432 13.3351 24.5349 12.9851L14.7815 4.20009C14.3382 3.80342 13.6615 3.80342 13.2182 4.20009L3.46487 12.9851C3.0682 13.3351 3.3132 14.0001 3.84987 14.0001H5.8332V22.1668C5.8332 22.8084 6.3582 23.3334 6.99987 23.3334H10.4999C11.1415 23.3334 11.6665 22.8084 11.6665 22.1668Z" fill="#FF8B94"/>
</g>
</g>
<defs>
<filter id="filter0_d" x="0.269043" y="3.90259" width="27.4668" height="25.4308" filterUnits="userSpaceOnUse" color-interpolation-filters="sRGB">
<feFlood flood-opacity="0" result="BackgroundImageFix"/>
<feColorMatrix in="SourceAlpha" type="matrix" values="0 0 0 0 0 0 0 0 0 0 0 0 0 0 0 0 0 0 127 0" result="hardAlpha"/>
<feOffset dy="3"/>
<feGaussianBlur stdDeviation="1.5"/>
<feComposite in2="hardAlpha" operator="out"/>
<feColorMatrix type="matrix" values="0 0 0 0 1 0 0 0 0 0.666667 0 0 0 0 0.647059 0 0 0 1 0"/>
<feBlend mode="normal" in2="BackgroundImageFix" result="effect1_dropShadow"/>
<feBlend mode="normal" in="SourceGraphic" in2="effect1_dropShadow" result="shape"/>
</filter>
<clipPath id="clip0">
<rect width="28" height="28" fill="white"/>
</clipPath>
</defs>
</svg>
