<svg width="28" height="28" viewBox="0 0 28 28" fill="none" xmlns="http://www.w3.org/2000/svg">
<path d="M25.3165 15.5751L24.1498 16.7417L21.7582 14.3501L22.9248 13.1834C23.0448 13.0658 23.206 13 23.374 13C23.542 13 23.7032 13.0658 23.8232 13.1834L25.3165 14.6767C25.5615 14.9217 25.5615 15.3301 25.3165 15.5751ZM13.9998 22.0967L21.0698 15.0267L23.4615 17.4184L16.4032 24.5001H13.9998V22.0967ZM13.9998 16.3334C8.84317 16.3334 4.6665 18.4217 4.6665 21.0001V23.3334H11.6665V21.1284L16.3332 16.4617C15.5632 16.3684 14.7815 16.3334 13.9998 16.3334ZM13.9998 4.66675C12.7622 4.66675 11.5752 5.15841 10.7 6.03358C9.82483 6.90875 9.33317 8.09574 9.33317 9.33341C9.33317 10.5711 9.82483 11.7581 10.7 12.6332C11.5752 13.5084 12.7622 14.0001 13.9998 14.0001C15.2375 14.0001 16.4245 13.5084 17.2997 12.6332C18.1748 11.7581 18.6665 10.5711 18.6665 9.33341C18.6665 8.09574 18.1748 6.90875 17.2997 6.03358C16.4245 5.15841 15.2375 4.66675 13.9998 4.66675Z" fill="#FFC4C0"/>
</svg>
