<svg width="35" height="35" viewBox="0 0 35 35" fill="none" xmlns="http://www.w3.org/2000/svg">
<g clip-path="url(#clip0)">
<g filter="url(#filter0_d)">
<path d="M30.25 26.7917V28.25H4V26.7917L6.91667 23.875V15.125C6.91667 10.6042 9.87708 6.62292 14.2083 5.33958V4.91667C14.2083 4.14312 14.5156 3.40125 15.0626 2.85427C15.6096 2.30729 16.3515 2 17.125 2C17.8985 2 18.6404 2.30729 19.1874 2.85427C19.7344 3.40125 20.0417 4.14312 20.0417 4.91667V5.33958C24.3729 6.62292 27.3333 10.6042 27.3333 15.125V23.875L30.25 26.7917ZM20.0417 29.7083C20.0417 30.4819 19.7344 31.2237 19.1874 31.7707C18.6404 32.3177 17.8985 32.625 17.125 32.625C16.3515 32.625 15.6096 32.3177 15.0626 31.7707C14.5156 31.2237 14.2083 30.4819 14.2083 29.7083" fill="white" fill-opacity="0.7" shape-rendering="crispEdges"/>
</g>
</g>
<defs>
<filter id="filter0_d" x="0" y="2" width="34.25" height="38.625" filterUnits="userSpaceOnUse" color-interpolation-filters="sRGB">
<feFlood flood-opacity="0" result="BackgroundImageFix"/>
<feColorMatrix in="SourceAlpha" type="matrix" values="0 0 0 0 0 0 0 0 0 0 0 0 0 0 0 0 0 0 127 0" result="hardAlpha"/>
<feOffset dy="4"/>
<feGaussianBlur stdDeviation="2"/>
<feComposite in2="hardAlpha" operator="out"/>
<feColorMatrix type="matrix" values="0 0 0 0 0 0 0 0 0 0 0 0 0 0 0 0 0 0 0.25 0"/>
<feBlend mode="normal" in2="BackgroundImageFix" result="effect1_dropShadow"/>
<feBlend mode="normal" in="SourceGraphic" in2="effect1_dropShadow" result="shape"/>
</filter>
<clipPath id="clip0">
<rect width="35" height="35" fill="white"/>
</clipPath>
</defs>
</svg>
