<svg width="227" height="164" viewBox="0 0 227 164" fill="none" xmlns="http://www.w3.org/2000/svg">
<path d="M195.208 50.4059L195.062 53.6769L195.533 53.6978L195.678 50.4268L195.208 50.4059Z" fill="url(#paint0_linear)"/>
<path d="M195.711 39.0966L195.324 47.8237L195.795 47.8446L196.182 39.1175L195.711 39.0966Z" fill="url(#paint1_linear)"/>
<path d="M188.277 91.6771H97.7914C97.2854 91.6803 96.784 91.58 96.3182 91.3824C95.8523 91.1848 95.4318 90.8941 95.0824 90.5281C94.7329 90.1622 94.4619 89.7286 94.2861 89.2541C94.1103 88.7797 94.0333 88.2742 94.0598 87.7689L97.1121 19.6089C97.1705 18.5625 97.6236 17.5772 98.38 16.8518C99.1365 16.1265 100.14 15.7151 101.188 15.7007H191.683C192.189 15.6968 192.691 15.7967 193.157 15.994C193.623 16.1914 194.044 16.4821 194.394 16.8482C194.743 17.2143 195.014 17.6481 195.19 18.1229C195.365 18.5977 195.442 19.1034 195.415 19.6089L192.362 87.7689C192.303 88.8165 191.848 89.8024 191.09 90.5278C190.332 91.2532 189.327 91.6639 188.277 91.6771Z" fill="url(#paint2_linear)"/>
<path opacity="0.5" d="M187.612 91.6771H97.7914C97.2854 91.6803 96.784 91.58 96.3182 91.3824C95.8523 91.1849 95.4318 90.8941 95.0824 90.5282C94.7329 90.1622 94.4619 89.7286 94.2861 89.2542C94.1103 88.7797 94.0333 88.2743 94.0598 87.7689L97.1121 19.6089C97.1705 18.5625 97.6236 17.5772 98.38 16.8519C99.1365 16.1265 100.14 15.7151 101.188 15.7007H191.017C191.523 15.6976 192.025 15.7978 192.491 15.9954C192.957 16.1929 193.378 16.4835 193.728 16.8494C194.078 17.2153 194.349 17.6488 194.525 18.1233C194.702 18.5978 194.779 19.1033 194.753 19.6089L191.697 87.7689C191.637 88.8165 191.182 89.8025 190.424 90.5278C189.666 91.2532 188.661 91.6639 187.612 91.6771Z" fill="white"/>
<path opacity="0.4" d="M161.236 73.5083L145.042 73.3634L147.066 50.6434H162.604L161.236 73.5083Z" fill="url(#paint3_linear)"/>
<path opacity="0.4" d="M122.115 47.9081L105.916 47.8357L107.836 25.1156L124.035 25.1881L122.115 47.9081Z" fill="url(#paint4_linear)"/>
<path opacity="0.4" d="M164.021 46.7216L147.728 47.41L148.728 24.7715L164.37 24.1103L164.021 46.7216Z" fill="url(#paint5_linear)"/>
<path opacity="0.4" d="M181.996 65.4565L166.078 64.2066L168.288 41.5092L183.88 43.1395L181.996 65.4565Z" fill="url(#paint6_linear)"/>
<path opacity="0.4" d="M142.017 41.6541L129.555 41.319L130.809 23.8522L143.127 24.0378L142.017 41.6541Z" fill="url(#paint7_linear)"/>
<path opacity="0.4" d="M120.285 88.3078L108.044 88.0497L109.294 70.5783L121.05 70.3564L120.285 88.3078Z" fill="url(#paint8_linear)"/>
<path opacity="0.4" d="M186.678 38.8056L174.202 38.8373L175.62 21.3524L187.856 21.3207L186.678 38.8056Z" fill="url(#paint9_linear)"/>
<path opacity="0.4" d="M125.511 66.3531L137.851 67.7751L140.057 49.9777L128.282 48.9904L125.511 66.3531Z" fill="url(#paint10_linear)"/>
<path d="M160.603 72.8426L144.408 72.6977L146.432 49.9777L162.627 50.1271L160.603 72.8426Z" fill="white"/>
<path d="M121.987 47.3964L105.793 47.2515L107.817 24.5315L124.012 24.6809L121.987 47.3964Z" fill="white"/>
<path d="M163.388 46.0559L147.094 46.7443L148.09 24.1103L164.389 23.4219L163.388 46.0559Z" fill="white"/>
<path d="M181.498 65.2255L165.444 63.5454L167.654 40.8435L183.708 42.5236L181.498 65.2255Z" fill="white"/>
<path d="M141.777 40.9929L129.314 40.6578L130.564 23.1865L143.027 23.5216L141.777 40.9929Z" fill="white"/>
<path d="M119.873 87.7191L107.41 87.384L108.66 69.9171L121.123 70.2523L119.873 87.7191Z" fill="white"/>
<path d="M186.258 38.5611L173.781 38.5928L175.199 21.1033L187.675 21.0716L186.258 38.5611Z" fill="white"/>
<path d="M124.877 65.6874L137.217 67.1094L139.984 49.7468L127.648 48.3248L124.877 65.6874Z" fill="white"/>
<path opacity="0.4" d="M131.402 74.0065C131.402 74.0065 131.33 78.748 130.65 80.1563C132.865 80.7904 137.135 80.7813 137.135 80.7813C137.135 80.7813 138.068 76.221 137.914 74.4412C136.642 74.1378 131.402 74.0065 131.402 74.0065Z" fill="url(#paint11_linear)"/>
<path d="M131.402 74.0065C131.402 74.0065 130.877 78.7389 130.202 80.1563C132.192 80.6308 134.212 80.9652 136.248 81.1572C136.248 81.1572 138.132 76.2346 137.914 74.4277C136.642 74.1378 131.402 74.0065 131.402 74.0065Z" fill="white"/>
<path opacity="0.4" d="M164.747 74.7809C164.747 74.7809 167.315 81.2749 167.17 83.5664C170.648 83.1769 176.703 81.1798 176.703 81.1798C176.703 81.1798 175.407 74.0291 174.162 71.6697C172.215 72.0048 164.747 74.7809 164.747 74.7809Z" fill="url(#paint12_linear)"/>
<path d="M163.908 74.2918C163.908 74.2918 166.064 82.6335 165.919 84.925C169.397 84.531 176.108 81.841 176.108 81.841C176.108 81.841 175.203 73.3181 173.844 70.9723C171.915 71.321 163.908 74.2918 163.908 74.2918Z" fill="white"/>
<path opacity="0.4" d="M172.391 72.9649C172.38 73.1648 172.294 73.3531 172.149 73.4912C172.004 73.6293 171.812 73.7067 171.612 73.7076C171.515 73.709 171.419 73.6905 171.33 73.6533C171.241 73.616 171.161 73.5609 171.094 73.4912C171.028 73.4215 170.976 73.3388 170.943 73.2482C170.909 73.1577 170.895 73.0612 170.901 72.9649C170.911 72.7646 170.997 72.5758 171.142 72.437C171.287 72.2982 171.479 72.2197 171.68 72.2177C171.776 72.2169 171.872 72.236 171.961 72.2737C172.05 72.3115 172.13 72.3671 172.197 72.4372C172.264 72.5072 172.315 72.5902 172.349 72.681C172.382 72.7718 172.396 72.8684 172.391 72.9649Z" fill="url(#paint13_linear)"/>
<path d="M122.608 24.69C122.585 25.0289 122.437 25.3472 122.191 25.5819C121.945 25.8166 121.621 25.9508 121.281 25.958C121.116 25.9601 120.953 25.9283 120.801 25.8647C120.649 25.801 120.512 25.7067 120.399 25.5878C120.285 25.4689 120.197 25.3278 120.14 25.1733C120.083 25.0189 120.058 24.8543 120.067 24.69C120.09 24.351 120.239 24.0327 120.484 23.798C120.73 23.5633 121.055 23.4291 121.394 23.422C121.559 23.4205 121.722 23.4527 121.873 23.5166C122.025 23.5805 122.161 23.6748 122.275 23.7936C122.389 23.9124 122.477 24.0532 122.534 24.2073C122.592 24.3615 122.617 24.5258 122.608 24.69Z" fill="url(#paint14_linear)"/>
<path d="M131.027 48.7323C131.015 48.9751 130.911 49.2042 130.736 49.3726C130.561 49.541 130.328 49.636 130.085 49.638C129.968 49.6395 129.851 49.6168 129.743 49.5712C129.635 49.5256 129.538 49.4582 129.457 49.3731C129.376 49.2881 129.314 49.1873 129.274 49.077C129.234 48.9667 129.217 48.8494 129.224 48.7323C129.236 48.4896 129.34 48.2605 129.515 48.0921C129.69 47.9236 129.923 47.8286 130.166 47.8266C130.284 47.8251 130.4 47.8479 130.508 47.8935C130.616 47.9391 130.714 48.0065 130.794 48.0915C130.875 48.1766 130.938 48.2774 130.978 48.3877C131.018 48.4979 131.034 48.6153 131.027 48.7323Z" fill="url(#paint15_linear)"/>
<path d="M169.371 30.7311C169.357 30.9731 169.252 31.201 169.078 31.369C168.903 31.537 168.671 31.6327 168.429 31.6368C168.311 31.6376 168.195 31.6144 168.087 31.5686C167.979 31.5229 167.882 31.4555 167.801 31.3707C167.72 31.2859 167.657 31.1854 167.616 31.0754C167.575 30.9654 167.558 30.8482 167.564 30.7311C167.576 30.4888 167.681 30.2603 167.856 30.0921C168.031 29.9239 168.263 29.8285 168.506 29.8254C168.623 29.8246 168.739 29.8478 168.847 29.8936C168.955 29.9394 169.053 30.0067 169.134 30.0916C169.215 30.1764 169.277 30.2769 169.318 30.3869C169.359 30.4968 169.377 30.614 169.371 30.7311Z" fill="url(#paint16_linear)"/>
<path d="M70.0355 35.2054C70.5246 37.7007 71.0091 42.27 69.2656 43.9366C70.6811 46.2238 72.7873 48.0016 75.2796 49.0131C78.6172 46.9254 77.0186 43.9366 77.0186 43.9366C74.238 43.2709 74.3014 41.2194 74.7951 39.2676L70.0355 35.2054Z" fill="#FFEFE4"/>
<path d="M66.7247 36.0568C64.6732 35.8485 58.5732 44.4664 70.3838 48.3112C68.4637 46.5314 67.5081 44.8061 68.0108 42.7682C68.3112 41.1898 68.3935 39.5777 68.2554 37.9769C68.2554 37.9769 68.9573 36.2832 66.7247 36.0568Z" fill="#263238"/>
<path d="M67.9752 46.5405C67.5542 46.06 67.2229 45.5078 66.997 44.9102C66.857 44.5129 66.8215 44.0863 66.8941 43.6713C66.9667 43.2564 67.1448 42.8671 67.4114 42.5409C67.678 42.2148 68.024 41.9627 68.4162 41.809C68.8084 41.6552 69.2336 41.605 69.6508 41.6632C70.9228 41.8379 72.2121 41.847 73.4865 41.6904C76.3758 41.3326 77.8883 42.7863 79.4507 45.902C79.4507 45.902 78.7216 47.2606 76.5343 47.7904C74.347 48.3203 67.9752 46.5405 67.9752 46.5405Z" fill="url(#paint17_linear)"/>
<path d="M80.7092 33.0045C80.6323 33.3351 80.7409 33.643 80.9583 33.6928C81.1757 33.7427 81.4112 33.5208 81.4927 33.1902C81.5742 32.8596 81.461 32.5516 81.2436 32.5018C81.0262 32.452 80.7908 32.6739 80.7092 33.0045Z" fill="#263238"/>
<path d="M81.1436 32.4973L81.9904 32.4565C81.9904 32.4565 81.4379 32.9773 81.1436 32.4973Z" fill="#263238"/>
<path d="M81.678 31.1478C81.7166 31.1496 81.7548 31.1402 81.7882 31.1207C81.8215 31.1012 81.8484 31.0724 81.8657 31.0378C81.883 31.0033 81.8899 30.9645 81.8855 30.9261C81.8811 30.8877 81.8656 30.8515 81.841 30.8217C81.643 30.5753 81.3886 30.38 81.0994 30.2524C80.8102 30.1247 80.4945 30.0684 80.179 30.0881C80.1528 30.0909 80.1274 30.0989 80.1042 30.1116C80.0811 30.1243 80.0608 30.1415 80.0443 30.1621C80.0279 30.1827 80.0157 30.2064 80.0085 30.2318C80.0013 30.2572 79.9993 30.2838 80.0024 30.31C80.0092 30.3625 80.0362 30.4102 80.0776 30.4432C80.119 30.4762 80.1716 30.4917 80.2243 30.4866C80.4747 30.4735 80.7245 30.5206 80.953 30.6238C81.1814 30.727 81.3819 30.8834 81.5376 31.0798C81.5738 31.1198 81.6242 31.1441 81.678 31.1478Z" fill="#263238"/>
<path d="M80.2973 34.0144C80.4094 34.8385 80.6349 35.6432 80.9675 36.4055C80.7706 36.4846 80.5588 36.5199 80.3469 36.5089C80.135 36.498 79.928 36.441 79.7402 36.3421L80.2973 34.0144Z" fill="#A02724"/>
<path d="M69.9085 28.9831C69.1839 33.0951 68.79 34.8159 70.3342 37.3882C72.6574 41.2556 77.8608 41.2466 79.8035 37.438C81.547 34.0099 82.4437 27.8645 78.8661 25.3013C78.0805 24.7318 77.1623 24.3726 76.1988 24.2577C75.2353 24.1428 74.2584 24.2762 73.3609 24.6451C72.4634 25.014 71.6752 25.6061 71.0709 26.3654C70.4667 27.1246 70.0665 28.0257 69.9085 28.9831Z" fill="#FFEFE4"/>
<path d="M77.213 32.2437C78.4584 31.7365 81.4201 30.6134 82.1447 28.8427C82.8693 27.072 79.8804 22.3442 77.3262 23.277C70.6737 21.8596 66.0364 25.0432 66.0636 30.07C66.0908 35.3231 68.1785 38.312 71.6021 39.0909C75.0257 39.8699 78.001 36.2832 77.213 32.2437Z" fill="#263238"/>
<path d="M67.653 33.6883C66.2944 33.5027 65.5698 34.8794 66.0635 36.0206C66.5571 37.1618 68.2055 38.9687 68.8395 38.9687C69.4735 38.9687 70.7279 38.5158 71.0449 37.8048C71.3619 37.0938 68.5678 33.8197 67.653 33.6883Z" fill="url(#paint18_linear)"/>
<path d="M76.0807 31.8633C75.988 32.2516 75.9731 32.6543 76.0369 33.0484C76.1006 33.4425 76.2417 33.82 76.452 34.1593C77.0181 35.065 78.0189 34.7344 78.4627 33.8196C78.8612 33 79.0424 31.5553 78.1865 30.9485C77.9969 30.8198 77.7779 30.741 77.5498 30.7197C77.3217 30.6983 77.0919 30.735 76.8818 30.8262C76.6716 30.9175 76.488 31.0605 76.3479 31.2418C76.2078 31.4231 76.1159 31.6369 76.0807 31.8633Z" fill="#FFEFE4"/>
<path d="M66.539 48.13C66.539 48.2976 66.539 48.5829 66.539 48.8048V49.5384C66.539 50.0305 66.5616 50.5242 66.6069 51.0193C66.6759 51.9966 66.8029 52.9689 66.9873 53.9312C67.3215 55.7719 68.0138 57.529 69.0252 59.1029C69.3965 59.5829 69.2516 59.5059 69.5686 59.7233C69.9066 59.9343 70.2684 60.1045 70.6464 60.2305C71.578 60.5463 72.5316 60.7931 73.4994 60.9686C75.5147 61.349 77.6476 61.6117 79.7398 61.8246L79.7987 63.9575C77.5802 64.2477 75.3397 64.3342 73.1054 64.2157C71.9274 64.1614 70.757 63.9976 69.6094 63.7266C68.9465 63.5673 68.3038 63.3334 67.6937 63.0292C67.3127 62.8298 66.9582 62.5833 66.6386 62.2955C66.548 62.214 66.4574 62.1189 66.3669 62.0238L66.1993 61.8291L65.8914 61.4623C65.1124 60.4847 64.4639 59.4099 63.9622 58.2651C63.4735 57.1622 63.0943 56.0139 62.83 54.8369C62.5608 53.6883 62.3776 52.5212 62.2821 51.3454C62.2413 50.7612 62.2141 50.177 62.2051 49.5883C62.2051 49.2939 62.2051 48.9995 62.2051 48.7052C62.2051 48.4108 62.2277 48.1346 62.2594 47.7587L66.539 48.13Z" fill="#FFEFE4"/>
<path d="M79.6087 61.6661L84.0966 60.9596L81.8866 64.6187C81.8866 64.6187 79.1694 64.5055 78.4268 62.9341L79.6087 61.6661Z" fill="#FFEFE4"/>
<path d="M86.3157 62.1914L86.3293 64.9131L81.8867 64.6187L84.0967 60.9596L86.3157 62.1914Z" fill="#FFEFE4"/>
<path d="M95.7764 73.7801H81.7377C81.6447 73.7914 81.5504 73.7781 81.4642 73.7415C81.378 73.7049 81.3029 73.6463 81.2465 73.5715C81.1901 73.4967 81.1543 73.4085 81.1427 73.3155C81.1312 73.2226 81.1443 73.1282 81.1807 73.0419L87.6611 54.1622C87.7473 53.9501 87.8935 53.7678 88.0817 53.6375C88.2699 53.5072 88.492 53.4346 88.7208 53.4285H102.76C102.852 53.4162 102.947 53.4286 103.033 53.4646C103.119 53.5006 103.195 53.5588 103.251 53.6333C103.308 53.7079 103.344 53.7961 103.355 53.889C103.367 53.9818 103.353 54.0761 103.317 54.1622L96.8361 73.0419C96.7491 73.2538 96.6029 73.4362 96.415 73.5671C96.227 73.698 96.0053 73.772 95.7764 73.7801Z" fill="url(#paint19_linear)"/>
<path d="M95.5261 73.1823H81.9675C81.9155 73.1893 81.8626 73.1823 81.8142 73.162C81.7658 73.1417 81.7238 73.1088 81.6923 73.0668C81.6609 73.0248 81.6413 72.9751 81.6356 72.923C81.6298 72.8708 81.6381 72.8181 81.6595 72.7702L88.063 54.0988C88.1122 53.9806 88.1942 53.879 88.2993 53.806C88.4045 53.7329 88.5283 53.6915 88.6562 53.6867H102.242C102.294 53.6802 102.347 53.6875 102.395 53.7079C102.443 53.7283 102.485 53.761 102.517 53.8027C102.549 53.8444 102.569 53.8937 102.575 53.9457C102.582 53.9977 102.575 54.0505 102.555 54.0988L96.1465 72.7702C96.0955 72.8926 96.0093 72.997 95.8988 73.0704C95.7884 73.1437 95.6587 73.1827 95.5261 73.1823Z" fill="white"/>
<path d="M62.3455 44.8332L66.8741 46.6673L69.2878 49.3437L69.6003 53.0345C69.6003 53.0345 64.3245 57.0378 61.5213 56.6574C60.5521 49.8736 61.159 46.142 62.3455 44.8332Z" fill="#263238"/>
<path d="M84.6221 47.8266C84.69 50.8744 84.2598 57.219 82.1178 70.3927H65.0404C65.3257 63.4413 65.6654 59.0712 62.3232 44.8242C64.6193 44.352 66.9475 44.0523 69.2882 43.9275C71.8692 43.7416 74.4602 43.7416 77.0412 43.9275C78.7123 44.0815 80.4965 44.3487 81.8551 44.5841C82.6213 44.7188 83.3167 45.1161 83.8216 45.7079C84.3266 46.2996 84.6096 47.0488 84.6221 47.8266Z" fill="#263238"/>
<path opacity="0.2" d="M81.2845 49.0131L84.3232 53.9629C84.1647 55.7245 83.9337 57.8349 83.6031 60.3573L81.1124 58.8855C80.0934 51.3952 81.2845 49.0131 81.2845 49.0131Z" fill="black"/>
<path d="M84.903 49.0946C85.534 51.0782 86.1378 53.0708 86.7144 55.0724L87.5839 58.0749L88.4217 61.0864L88.8338 62.5944L89.0376 63.3507C89.0845 63.5439 89.1419 63.7344 89.2097 63.9213C89.2954 64.169 89.4094 64.4061 89.5493 64.6278C89.581 64.673 89.5765 64.6821 89.5493 64.6957C89.5222 64.7093 89.5176 64.7364 89.572 64.7455C89.8391 64.7472 90.1013 64.6734 90.3283 64.5327C90.7024 64.3301 91.0571 64.0937 91.388 63.8262C91.7502 63.5364 92.108 63.2194 92.4612 62.8842C92.8145 62.5491 93.1632 62.1733 93.4802 61.8381L95.2916 62.9793C95.0439 63.4922 94.7656 63.9897 94.4584 64.4693C94.1566 64.9613 93.8191 65.4306 93.4485 65.8731C93.0529 66.3559 92.6065 66.7947 92.1171 67.1819C91.5027 67.6788 90.7744 68.015 89.9977 68.1601C89.4889 68.2455 88.9675 68.2161 88.4715 68.074C87.9821 67.9292 87.5274 67.6857 87.1356 67.3585C86.5383 66.8421 86.0554 66.2066 85.7181 65.4927C85.5729 65.2001 85.4488 64.8974 85.3468 64.587L85.0932 63.8398L84.586 62.3499L83.5942 59.361L82.6387 56.3585C81.9911 54.3569 81.3797 52.3462 80.791 50.3309L84.903 49.0946Z" fill="#FFEFE4"/>
<path d="M80.2653 48.0032C80.9854 46.2824 83.2406 45.1729 83.2406 45.1729C85.6679 46.7533 86.4876 47.5006 88.0998 55.5388C85.7494 57.5948 81.8548 57.5948 81.8548 57.5948L79.7536 52.1605C79.7536 52.1605 79.5453 49.7377 80.2653 48.0032Z" fill="#263238"/>
<path d="M92.9229 62.6352L94.535 58.7043L96.5095 62.4948C96.5095 62.4948 95.0151 64.7591 93.2761 64.578L92.9229 62.6352Z" fill="#FFEFE4"/>
<path d="M97.5101 59.4969C97.4701 59.4978 97.4306 59.4888 97.395 59.4706C97.3594 59.4524 97.3289 59.4257 97.3063 59.3927L92.6011 52.953C92.5619 52.8976 92.5461 52.829 92.5571 52.7621C92.5682 52.6951 92.6051 52.6352 92.66 52.5953C92.7146 52.5563 92.7825 52.5407 92.8487 52.5517C92.915 52.5627 92.9741 52.5996 93.0132 52.6541L97.7139 59.0938C97.7432 59.1311 97.7613 59.176 97.7661 59.2232C97.7708 59.2704 97.7619 59.318 97.7405 59.3603C97.7191 59.4026 97.686 59.438 97.6452 59.4622C97.6044 59.4864 97.5575 59.4984 97.5101 59.4969Z" fill="#263238"/>
<path d="M98.0539 57.939L99.0909 60.2214L96.5096 62.4948L94.5352 58.7044L98.0539 57.939Z" fill="#FFEFE4"/>
<path d="M82.1174 70.3927C82.1174 70.3927 86.3833 102.677 87.8415 115.421C89.9926 134.241 94.7975 159.348 94.7975 159.348L91.9309 159.86C91.9309 159.86 81.9136 135.292 80.401 116.689C75.6505 102.985 68.835 70.3927 68.835 70.3927H82.1174Z" fill="#FFEFE4"/>
<path d="M94.5672 156.264L90.8582 158.076C90.7833 158.109 90.7234 158.17 90.69 158.245C90.6566 158.32 90.652 158.405 90.6771 158.483L91.8726 162.025C91.9094 162.114 91.9645 162.194 92.0342 162.261C92.104 162.328 92.187 162.379 92.2778 162.412C92.3686 162.445 92.4653 162.459 92.5616 162.452C92.658 162.445 92.7519 162.418 92.8372 162.373C94.3589 161.599 94.3634 161.495 96.2971 160.562C97.4881 159.978 99.4218 159.094 101.066 158.297C102.71 157.5 102.003 155.911 101.247 156.106C97.8595 156.984 96.7952 156.509 95.3597 156.192C95.095 156.124 94.8151 156.149 94.5672 156.264Z" fill="#263238"/>
<path d="M77.6569 70.3927C77.6569 70.3927 74.8854 100.97 72.5531 113.582C70.1032 126.828 68.2736 158.393 68.2464 159.357H65.3345C65.3345 159.357 61.3494 123.876 65.0673 112.002C65.6832 97.51 65.0402 70.3927 65.0402 70.3927H77.6569Z" fill="#FFEFE4"/>
<path d="M68.5909 158.764H65.276C65.1936 158.762 65.1135 158.791 65.0509 158.844C64.9882 158.897 64.9474 158.972 64.9363 159.054L64.4472 162.844C64.4384 162.94 64.4498 163.037 64.4806 163.129C64.5115 163.22 64.5611 163.304 64.6263 163.376C64.6916 163.447 64.771 163.504 64.8595 163.542C64.9479 163.581 65.0435 163.601 65.1401 163.6C66.8066 163.573 66.1409 163.474 68.2467 163.474C69.5419 163.474 71.4168 163.609 73.2282 163.609C75.0397 163.609 75.0895 161.839 74.3423 161.68C70.9911 160.96 70.4522 159.968 69.311 159.027C69.1094 158.857 68.8544 158.764 68.5909 158.764Z" fill="#263238"/>
<path opacity="0.2" d="M65.1035 111.123L72.8339 111.974C73.1463 110.127 73.4679 107.994 73.7803 105.693L65.262 104.819C65.2122 107.061 65.176 109.194 65.1035 111.123Z" fill="black"/>
<path opacity="0.2" d="M86.8317 107.034L77.2129 106.046C77.8469 108.406 78.4809 110.638 79.0923 112.658L87.6242 113.591C87.4023 111.675 87.1305 109.447 86.8317 107.034Z" fill="black"/>
<path d="M82.1179 70.3927L88.2768 112.572L64.3295 109.538C66.6663 91.4824 59.5699 77.0044 65.0405 70.3927H82.1179Z" fill="url(#paint20_linear)"/>
<path opacity="0.2" d="M67.2861 79.0468C69.9041 81.322 72.9406 83.0648 76.2256 84.1778C70.8456 84.1189 68.3504 82.2078 67.2861 79.0468Z" fill="black"/>
<defs>
<linearGradient id="paint0_linear" x1="195.135" y1="52.0414" x2="195.606" y2="52.0623" gradientUnits="userSpaceOnUse">
<stop stop-color="#FFAAA5"/>
<stop offset="1" stop-color="#FFEFE4"/>
</linearGradient>
<linearGradient id="paint1_linear" x1="195.518" y1="43.4601" x2="195.988" y2="43.481" gradientUnits="userSpaceOnUse">
<stop stop-color="#FFAAA5"/>
<stop offset="1" stop-color="#FFEFE4"/>
</linearGradient>
<linearGradient id="paint2_linear" x1="144.737" y1="15.7006" x2="144.737" y2="91.6772" gradientUnits="userSpaceOnUse">
<stop stop-color="#FFAAA5"/>
<stop offset="1" stop-color="#FFEFE4"/>
</linearGradient>
<linearGradient id="paint3_linear" x1="153.823" y1="50.6434" x2="153.823" y2="73.5083" gradientUnits="userSpaceOnUse">
<stop stop-color="#FFAAA5"/>
<stop offset="1" stop-color="#FFEFE4"/>
</linearGradient>
<linearGradient id="paint4_linear" x1="114.975" y1="25.1156" x2="114.975" y2="47.9081" gradientUnits="userSpaceOnUse">
<stop stop-color="#FFAAA5"/>
<stop offset="1" stop-color="#FFEFE4"/>
</linearGradient>
<linearGradient id="paint5_linear" x1="156.049" y1="24.1103" x2="156.049" y2="47.41" gradientUnits="userSpaceOnUse">
<stop stop-color="#FFAAA5"/>
<stop offset="1" stop-color="#FFEFE4"/>
</linearGradient>
<linearGradient id="paint6_linear" x1="174.979" y1="41.5092" x2="174.979" y2="65.4565" gradientUnits="userSpaceOnUse">
<stop stop-color="#FFAAA5"/>
<stop offset="1" stop-color="#FFEFE4"/>
</linearGradient>
<linearGradient id="paint7_linear" x1="136.341" y1="23.8522" x2="136.341" y2="41.6541" gradientUnits="userSpaceOnUse">
<stop stop-color="#FFAAA5"/>
<stop offset="1" stop-color="#FFEFE4"/>
</linearGradient>
<linearGradient id="paint8_linear" x1="114.547" y1="70.3564" x2="114.547" y2="88.3078" gradientUnits="userSpaceOnUse">
<stop stop-color="#FFAAA5"/>
<stop offset="1" stop-color="#FFEFE4"/>
</linearGradient>
<linearGradient id="paint9_linear" x1="181.029" y1="21.3207" x2="181.029" y2="38.8373" gradientUnits="userSpaceOnUse">
<stop stop-color="#FFAAA5"/>
<stop offset="1" stop-color="#FFEFE4"/>
</linearGradient>
<linearGradient id="paint10_linear" x1="132.784" y1="48.9904" x2="132.784" y2="67.7751" gradientUnits="userSpaceOnUse">
<stop stop-color="#FFAAA5"/>
<stop offset="1" stop-color="#FFEFE4"/>
</linearGradient>
<linearGradient id="paint11_linear" x1="134.291" y1="74.0065" x2="134.291" y2="80.7813" gradientUnits="userSpaceOnUse">
<stop stop-color="#FFAAA5"/>
<stop offset="1" stop-color="#FFEFE4"/>
</linearGradient>
<linearGradient id="paint12_linear" x1="170.725" y1="71.6697" x2="170.725" y2="83.5664" gradientUnits="userSpaceOnUse">
<stop stop-color="#FFAAA5"/>
<stop offset="1" stop-color="#FFEFE4"/>
</linearGradient>
<linearGradient id="paint13_linear" x1="171.646" y1="72.2177" x2="171.646" y2="73.7077" gradientUnits="userSpaceOnUse">
<stop stop-color="#FFAAA5"/>
<stop offset="1" stop-color="#FFEFE4"/>
</linearGradient>
<linearGradient id="paint14_linear" x1="121.338" y1="23.4219" x2="121.338" y2="25.9581" gradientUnits="userSpaceOnUse">
<stop stop-color="#FFAAA5"/>
<stop offset="1" stop-color="#FFEFE4"/>
</linearGradient>
<linearGradient id="paint15_linear" x1="130.126" y1="47.8265" x2="130.126" y2="49.6381" gradientUnits="userSpaceOnUse">
<stop stop-color="#FFAAA5"/>
<stop offset="1" stop-color="#FFEFE4"/>
</linearGradient>
<linearGradient id="paint16_linear" x1="168.467" y1="29.8254" x2="168.467" y2="31.6369" gradientUnits="userSpaceOnUse">
<stop stop-color="#FFAAA5"/>
<stop offset="1" stop-color="#FFEFE4"/>
</linearGradient>
<linearGradient id="paint17_linear" x1="73.1541" y1="41.6372" x2="73.1541" y2="47.8889" gradientUnits="userSpaceOnUse">
<stop stop-color="#FFAAA5"/>
<stop offset="1" stop-color="#FFEFE4"/>
</linearGradient>
<linearGradient id="paint18_linear" x1="68.489" y1="33.6714" x2="68.489" y2="38.9687" gradientUnits="userSpaceOnUse">
<stop stop-color="#FFAAA5"/>
<stop offset="1" stop-color="#FFEFE4"/>
</linearGradient>
<linearGradient id="paint19_linear" x1="92.249" y1="53.4239" x2="92.249" y2="73.784" gradientUnits="userSpaceOnUse">
<stop stop-color="#FFAAA5"/>
<stop offset="1" stop-color="#FFEFE4"/>
</linearGradient>
<linearGradient id="paint20_linear" x1="75.5959" y1="70.3927" x2="75.5959" y2="112.572" gradientUnits="userSpaceOnUse">
<stop stop-color="#FFAAA5"/>
<stop offset="1" stop-color="#FFEFE4"/>
</linearGradient>
</defs>
</svg>
