<svg width="463" height="335" viewBox="0 0 463 335" fill="none" xmlns="http://www.w3.org/2000/svg">
<path d="M68.5239 196.312C71.2303 204.663 75.4351 212.451 80.9323 219.296C89.5904 229.815 102.332 237.408 115.944 237.973C134.057 238.723 150.614 227.296 162.485 213.591C183.691 189.099 200.609 144.799 239.241 145.632C259.252 146.067 276.587 159.189 291.292 171.458C312.59 189.247 342.685 212.823 371.474 197.146C395.902 183.839 404.301 150.021 396.476 124.714C385.364 88.674 355.352 56.0695 323.98 36.0772C296.644 18.6591 262.725 11.3159 230.213 11.9086C185.181 12.7235 139.696 28.521 107.166 59.6531C75.4134 90.0445 56.6989 138.409 64.8477 182.181C65.7299 186.974 66.9585 191.697 68.5239 196.312V196.312Z" fill="#FF8B94"/>
<path opacity="0.9" d="M68.5239 196.312C71.2303 204.663 75.4351 212.451 80.9323 219.296C89.5904 229.815 102.332 237.408 115.944 237.973C134.057 238.723 150.614 227.296 162.485 213.591C183.691 189.099 200.609 144.799 239.241 145.632C259.252 146.067 276.587 159.189 291.292 171.458C312.59 189.247 342.685 212.823 371.474 197.146C395.902 183.839 404.301 150.021 396.476 124.714C385.364 88.674 355.352 56.0695 323.98 36.0772C296.644 18.6591 262.725 11.3159 230.213 11.9086C185.181 12.7235 139.696 28.521 107.166 59.6531C75.4134 90.0445 56.6989 138.409 64.8477 182.181C65.7299 186.974 66.9585 191.697 68.5239 196.312V196.312Z" fill="white"/>
<path d="M302.478 112.713L299.422 108.546C299.514 108.049 299.484 107.536 299.336 107.053C299.188 106.569 298.925 106.129 298.57 105.768C297.348 104.379 289.412 105.111 288.19 105.231C286.967 105.351 284.949 110.222 286.143 111.639C287.338 113.056 294.968 113.296 295.672 112.685L298.079 116.037L302.478 112.713Z" fill="#F1C6C1"/>
<path d="M348.445 102.369C348.204 99.0358 350.297 97.7394 352.963 98.8783C355.63 100.017 357.936 96.1003 361.492 97.0263C365.048 97.9523 363.955 101.499 365.788 102.369C367.622 103.24 369.687 102.193 370.483 106.657C371.28 111.12 368.354 108.805 369.641 112.713C370.928 116.62 374.761 117.722 371.493 121.047C368.224 124.371 366.001 125.677 368.566 128.455C371.132 131.233 368.354 133.9 367.177 134.816C366.001 135.733 372.28 141.039 370.511 145.799C368.742 150.558 353.991 154.957 344.889 151.484C335.786 148.012 333.258 142.752 333.777 136.77C334.295 130.788 338.712 129.205 338.407 127.334C338.101 125.464 335.193 123.825 336.842 121.075C338.49 118.324 343.064 118.084 341.601 115.454C340.138 112.824 340.323 109.898 341.972 108.611C343.62 107.323 345.157 107.685 344.852 105.045C344.546 102.406 348.445 102.369 348.445 102.369Z" fill="#263238"/>
<path d="M340.472 131.224C340.472 131.224 319.572 131.409 315.664 126.594C311.757 121.778 301.876 110.296 301.876 110.296L296.32 113.759C296.32 113.759 306.043 135.474 312.145 140.243C318.248 145.012 336.416 145.993 336.416 145.993L340.472 131.224Z" fill="url(#paint0_linear)"/>
<path opacity="0.3" d="M340.472 131.224C340.472 131.224 319.572 131.409 315.664 126.594C311.757 121.778 301.876 110.296 301.876 110.296L296.32 113.759C296.32 113.759 306.043 135.474 312.145 140.243C318.248 145.012 336.416 145.993 336.416 145.993L340.472 131.224Z" fill="white"/>
<path d="M304.802 322.822L310.358 323.804L312.636 316.229L314.71 309.284L308.312 307.043L306.451 315.396L304.802 322.822Z" fill="#E4897B"/>
<path d="M311.608 323.655C311.701 323.035 304.098 322.192 304.098 322.192C304.098 322.192 298.635 326.082 293.959 326.341C289.282 326.6 291.31 329.749 296.339 330.637L308.766 332.832C312.331 333.462 310.636 330.026 311.608 323.655Z" fill="url(#paint1_linear)"/>
<path d="M299.172 323.118C299.078 323.002 299.023 322.859 299.014 322.709C299.006 322.559 299.045 322.411 299.126 322.285C299.173 322.183 299.242 322.091 299.326 322.016C299.41 321.941 299.509 321.885 299.617 321.85C300.19 321.724 300.787 321.763 301.339 321.961C300.783 321.526 300.32 321.035 300.367 320.637C300.367 320.377 300.598 320.192 300.969 320.09C301.133 320.042 301.306 320.03 301.476 320.056C301.645 320.081 301.807 320.144 301.95 320.238C302.876 320.84 303.219 322.702 303.228 322.785C303.237 322.815 303.237 322.847 303.228 322.877V322.924C303.224 322.936 303.218 322.947 303.211 322.956C303.203 322.966 303.193 322.974 303.182 322.979V322.979H303.117C302.227 323.234 301.31 323.383 300.385 323.424C300.173 323.457 299.956 323.448 299.747 323.395C299.539 323.343 299.343 323.248 299.172 323.118ZM299.755 322.192C299.699 322.209 299.647 322.237 299.602 322.276C299.557 322.314 299.521 322.361 299.496 322.414C299.367 322.692 299.45 322.794 299.496 322.822C299.793 323.174 301.246 323.007 302.441 322.729C301.607 322.433 300.348 322.007 299.755 322.248V322.192ZM301.08 320.442C300.969 320.442 300.774 320.544 300.765 320.646C300.765 320.988 301.691 321.766 302.737 322.387C302.609 321.677 302.255 321.027 301.728 320.535C301.604 320.454 301.459 320.413 301.311 320.414C301.232 320.426 301.154 320.448 301.08 320.479V320.442Z" fill="#263238"/>
<path opacity="0.2" d="M306.423 315.572L312.608 316.386L314.701 309.358L308.303 307.08L306.423 315.572Z" fill="black"/>
<path d="M341.87 325.202H347.509L348.435 317.35L349.269 310.145L342.574 309.053L342.203 317.6L341.87 325.202Z" fill="#E4897B"/>
<path d="M348.713 324.841C348.713 324.221 341.064 324.702 341.064 324.702C341.064 324.702 336.37 329.48 331.804 330.554C327.239 331.629 329.786 334.369 334.888 334.369H347.509C351.13 334.369 348.871 331.277 348.713 324.841Z" fill="url(#paint2_linear)"/>
<path d="M336.37 326.47C336.261 326.371 336.185 326.24 336.152 326.096C336.119 325.953 336.13 325.802 336.184 325.665C336.212 325.555 336.263 325.452 336.333 325.363C336.403 325.273 336.491 325.2 336.592 325.146C337.134 324.926 337.728 324.862 338.305 324.961C337.684 324.628 337.147 324.22 337.12 323.822C337.12 323.563 337.277 323.341 337.62 323.183C337.775 323.11 337.944 323.072 338.115 323.072C338.286 323.072 338.456 323.11 338.61 323.183C339.648 323.609 340.287 325.396 340.314 325.47C340.326 325.495 340.332 325.522 340.332 325.549C340.332 325.576 340.326 325.603 340.314 325.628L340.249 325.683C339.254 326.17 338.183 326.483 337.083 326.609C336.836 326.653 336.582 326.604 336.37 326.47ZM336.796 325.489C336.69 325.547 336.61 325.643 336.573 325.757C336.499 326.063 336.573 326.137 336.629 326.165C336.99 326.461 338.388 326.035 339.509 325.563C338.629 325.287 337.689 325.261 336.796 325.489ZM337.796 323.544C337.694 323.591 337.518 323.692 337.518 323.794C337.518 324.146 338.638 324.72 339.768 325.165C339.515 324.493 339.054 323.919 338.453 323.526C338.357 323.482 338.253 323.46 338.147 323.461C338.025 323.462 337.905 323.491 337.796 323.544V323.544Z" fill="#263238"/>
<path opacity="0.2" d="M342.203 317.776L348.435 317.507L349.269 310.22L342.574 309.099L342.203 317.776Z" fill="black"/>
<path d="M305.895 311.136L315.025 312.747C324.23 289.792 330.767 270.642 335.397 254.743C337.888 246.168 339.824 238.547 341.324 231.778L340.907 256.78V313.525H350.167C372.706 206.007 356.732 181.431 356.732 181.431L329.758 176.801C328.692 181.781 327.937 186.822 327.498 191.895L326.285 200.822L315.766 255.28L305.895 311.136Z" fill="#263238"/>
<path opacity="0.2" d="M305.895 311.136L315.025 312.747C324.23 289.792 330.767 270.642 335.397 254.743C337.888 246.168 339.824 238.547 341.324 231.778L340.907 256.78V313.525H350.167C372.706 206.007 356.732 181.431 356.732 181.431L329.758 176.801C328.692 181.781 327.937 186.822 327.498 191.895L326.285 200.822L315.766 255.28L305.895 311.136Z" fill="white"/>
<path d="M316.451 311.645L305.136 307.895L305.284 312.701L314.646 315.692L316.451 311.645Z" fill="#263238"/>
<path d="M351.399 312.164L339.601 310.441L340.583 315.155L350.324 316.47L351.399 312.164Z" fill="#263238"/>
<path d="M356.76 177.403V181.431L329.249 179.32V174.561L356.76 177.403Z" fill="#263238"/>
<path d="M335.214 180.081L341.227 180.62L341.636 176.054L335.623 175.515L335.214 180.081Z" fill="white"/>
<path d="M347.165 182.667L348.534 182.736L348.888 175.791L347.52 175.721L347.165 182.667Z" fill="#263238"/>
<path opacity="0.2" d="M347.165 182.667L348.534 182.736L348.888 175.791L347.52 175.721L347.165 182.667Z" fill="white"/>
<path d="M330.345 180.826L331.713 180.896L332.068 173.95L330.699 173.88L330.345 180.826Z" fill="#263238"/>
<path opacity="0.2" d="M330.345 180.826L331.713 180.896L332.068 173.95L330.699 173.88L330.345 180.826Z" fill="white"/>
<path d="M370.483 138.65C369.65 140.345 368.891 141.956 368.187 143.475C367.585 144.753 367.029 145.966 366.502 147.123L365.576 149.086C365.353 149.586 365.131 150.086 364.927 150.568C364.196 152.225 363.548 153.772 362.964 155.198C362.622 156.05 362.307 156.874 362.038 157.67L361.631 158.763C361.001 160.439 360.473 161.995 360.01 163.467C359.612 164.745 359.26 165.967 358.936 167.171C358.51 168.792 358.149 170.366 357.816 171.968C357.556 173.199 357.316 174.449 357.075 175.746C356.964 176.292 356.862 176.848 356.76 177.413L329.249 174.551C329.341 173.005 329.443 171.505 329.554 170.042C329.647 168.745 329.739 167.486 329.841 166.264C329.989 164.523 330.138 162.856 330.286 161.254C330.415 159.958 330.545 158.707 330.675 157.504C330.86 155.744 331.054 154.087 331.249 152.513C331.406 151.198 331.573 149.957 331.73 148.809C331.98 146.957 332.23 145.336 332.462 143.845C332.693 142.354 332.897 141.234 333.092 140.141C333.345 138.771 333.567 137.632 333.758 136.724C334.971 131.168 335.86 131.048 335.86 131.048C335.86 131.048 342.046 131.177 347.352 131.844H347.491C351.077 132.399 354.624 133.178 358.112 134.178C358.566 134.298 359.038 134.428 359.455 134.567C363.225 135.658 366.911 137.023 370.483 138.65V138.65Z" fill="url(#paint3_linear)"/>
<path opacity="0.6" d="M370.483 138.65C369.65 140.345 368.891 141.956 368.187 143.475C367.585 144.753 367.029 145.966 366.502 147.123L365.576 149.086C365.353 149.586 365.131 150.086 364.927 150.568C364.196 152.225 363.548 153.772 362.964 155.198C362.622 156.05 362.307 156.874 362.038 157.67L361.631 158.763C361.001 160.439 360.473 161.995 360.01 163.467C359.612 164.745 359.26 165.967 358.936 167.171C358.51 168.792 358.149 170.366 357.816 171.968C357.556 173.199 357.316 174.449 357.075 175.746C356.964 176.292 356.862 176.848 356.76 177.413L329.249 174.551C329.341 173.005 329.443 171.505 329.554 170.042C329.647 168.745 329.739 167.486 329.841 166.264C329.989 164.523 330.138 162.856 330.286 161.254C330.415 159.958 330.545 158.707 330.675 157.504C330.86 155.744 331.054 154.087 331.249 152.513C331.406 151.198 331.573 149.957 331.73 148.809C331.98 146.957 332.23 145.336 332.462 143.845C332.693 142.354 332.897 141.234 333.092 140.141C333.345 138.771 333.567 137.632 333.758 136.724C334.971 131.168 335.86 131.048 335.86 131.048C335.86 131.048 342.046 131.177 347.352 131.844H347.491C351.077 132.399 354.624 133.178 358.112 134.178C358.566 134.298 359.038 134.428 359.455 134.567C363.225 135.658 366.911 137.023 370.483 138.65V138.65Z" fill="white"/>
<path opacity="0.2" d="M335.416 254.771C337.907 246.196 339.842 238.575 341.342 231.806C341.211 223.794 340.627 215.796 339.592 207.85C339.592 207.85 335.647 238.741 335.416 254.771Z" fill="black"/>
<path d="M349.871 131.724C346.62 131.251 344.62 133.103 346.12 136.215C347.621 139.326 348.121 139.789 353.232 138.872C358.344 137.955 364.289 133.835 349.871 131.724Z" fill="url(#paint4_linear)"/>
<path d="M366.502 147.123L365.576 149.086C365.353 149.586 365.131 150.086 364.927 150.568C356.76 148.651 341.453 145.179 332.425 143.827C332.647 142.447 332.86 141.215 333.055 140.123C344.336 141.77 355.506 144.108 366.502 147.123Z" fill="url(#paint5_linear)"/>
<path d="M362.992 155.225C362.649 156.077 362.335 156.901 362.066 157.698L361.659 158.79C353.325 156.855 339.722 153.818 331.277 152.521C331.434 151.206 331.601 149.966 331.758 148.817C342.28 150.372 352.708 152.512 362.992 155.225V155.225Z" fill="url(#paint6_linear)"/>
<path d="M360.01 163.495C359.612 164.773 359.26 165.995 358.936 167.199C350.76 165.347 338.388 162.569 330.286 161.282C330.415 159.985 330.545 158.735 330.675 157.531C340.549 159.012 350.341 161.003 360.01 163.495V163.495Z" fill="url(#paint7_linear)"/>
<path d="M357.816 171.977C357.556 173.208 357.316 174.458 357.075 175.755C349.176 173.903 337.555 171.356 329.554 170.051C329.647 168.754 329.739 167.495 329.841 166.272C336.601 167.319 347.083 169.171 357.816 171.977Z" fill="url(#paint8_linear)"/>
<g opacity="0.3">
<path opacity="0.3" d="M349.871 131.724C346.62 131.251 344.62 133.103 346.12 136.215C347.621 139.326 348.121 139.789 353.232 138.872C358.344 137.955 364.289 133.835 349.871 131.724Z" fill="white"/>
<path opacity="0.3" d="M366.502 147.123L365.576 149.086C365.353 149.586 365.131 150.086 364.927 150.568C356.76 148.651 341.453 145.179 332.425 143.827C332.647 142.447 332.86 141.215 333.055 140.123C344.336 141.77 355.506 144.108 366.502 147.123Z" fill="white"/>
<path opacity="0.3" d="M362.992 155.225C362.649 156.077 362.335 156.901 362.066 157.698L361.659 158.79C353.325 156.855 339.722 153.818 331.277 152.521C331.434 151.206 331.601 149.966 331.758 148.817C342.28 150.372 352.708 152.512 362.992 155.225V155.225Z" fill="white"/>
<path opacity="0.3" d="M360.01 163.495C359.612 164.773 359.26 165.995 358.936 167.199C350.76 165.347 338.388 162.569 330.286 161.282C330.415 159.985 330.545 158.735 330.675 157.531C340.549 159.012 350.341 161.003 360.01 163.495V163.495Z" fill="white"/>
<path opacity="0.3" d="M357.816 171.977C357.556 173.208 357.316 174.458 357.075 175.755C349.176 173.903 337.555 171.356 329.554 170.051C329.647 168.754 329.739 167.495 329.841 166.272C336.601 167.319 347.083 169.171 357.816 171.977Z" fill="white"/>
</g>
<path d="M348.898 138.122C355.732 138.057 358.094 135.418 358.094 135.418C354.297 130.881 358.677 124.306 358.677 124.306L350.389 124.862C350.441 126.014 350.413 127.168 350.306 128.316C349.778 133.242 347.528 133.029 347.528 133.029C345.815 135.529 348.898 138.122 348.898 138.122Z" fill="#F1C6C1"/>
<path opacity="0.2" d="M350.389 124.871C350.441 126.023 350.413 127.177 350.306 128.325C355.779 128.973 358.64 124.315 358.64 124.315L350.389 124.871Z" fill="black"/>
<path d="M357.547 102.786C350.547 101.573 347.648 104.925 345.87 112.046C343.666 120.954 344.546 127.705 353.639 127.307C365.974 126.714 369.178 104.768 357.547 102.786Z" fill="#F1C6C1"/>
<path d="M350.473 112.398C349.727 113.344 348.872 114.199 347.926 114.944C348.081 115.269 348.322 115.544 348.622 115.742C348.922 115.939 349.271 116.051 349.63 116.065L350.473 112.398Z" fill="#892B29"/>
<path d="M354.853 112.574C354.741 113.148 354.954 113.667 355.334 113.75C355.714 113.833 356.121 113.417 356.26 112.824C356.399 112.231 356.158 111.731 355.779 111.657C355.399 111.583 354.964 112.046 354.853 112.574Z" fill="#263238"/>
<path d="M355.899 111.731L354.751 111C354.751 111 355.167 112.166 355.899 111.731Z" fill="#263238"/>
<path d="M347.759 111.046C347.639 111.611 347.861 112.139 348.241 112.213C348.621 112.287 349.028 111.889 349.167 111.287C349.306 110.685 349.065 110.194 348.685 110.111C348.306 110.027 347.87 110.472 347.759 111.046Z" fill="#263238"/>
<path d="M348.806 110.194L347.657 109.453C347.657 109.453 348.074 110.638 348.806 110.194Z" fill="#263238"/>
<path d="M355.76 107.75C356.326 107.779 356.877 107.938 357.371 108.214C357.866 108.491 358.29 108.876 358.612 109.342" stroke="#263238" stroke-width="0.72468" stroke-linecap="round" stroke-linejoin="round"/>
<path d="M350.732 106.574C350.274 106.368 349.775 106.269 349.273 106.284C348.771 106.298 348.279 106.426 347.833 106.657" stroke="#263238" stroke-width="0.72468" stroke-linecap="round" stroke-linejoin="round"/>
<path d="M350.176 118.991C350.37 119.838 350.499 120.699 350.565 121.565H351.028C353.102 121.714 354.112 121.102 354.603 120.371C354.959 119.796 355.103 119.115 355.01 118.445C353.689 118.923 352.28 119.109 350.88 118.991C350.445 119.019 350.176 118.991 350.176 118.991Z" fill="#263238"/>
<path d="M350.88 119.028L351.019 119.787C352.973 119.926 354.362 119.787 355.019 119.204C355.051 118.964 355.051 118.721 355.019 118.481C353.695 118.961 352.283 119.147 350.88 119.028V119.028Z" fill="white"/>
<path d="M351.028 121.603C353.102 121.751 354.112 121.14 354.603 120.408C353.814 120.365 353.024 120.462 352.269 120.695C351.77 120.858 351.335 121.176 351.028 121.603V121.603Z" fill="#DE5753"/>
<path d="M363.15 115.87C363.15 115.87 360.872 109.555 362.14 105.194C362.14 105.194 349.26 97.1188 346.12 111.074C346.12 111.074 346.945 98.3412 359.029 100.156C371.113 101.971 367.992 119.602 360.881 123.732C360.862 123.732 364.548 119.824 363.15 115.87Z" fill="#263238"/>
<path d="M361.742 117.148C361.951 116.35 362.468 115.666 363.18 115.248C363.891 114.83 364.739 114.711 365.539 114.916C367.668 115.537 367.928 120.167 362.344 120.296C361.538 120.315 361.233 119.454 361.742 117.148Z" fill="#F1C6C1"/>
<path d="M373.298 163.504L364.964 160.939C364.964 160.939 365.15 159.207 364.214 158.791C363.279 158.374 351.343 157.152 351.028 158.253C350.713 159.355 351.361 166.217 353.232 167.18C355.103 168.143 363.288 168.514 363.529 168.106C363.77 167.699 364.214 167.18 364.214 167.18L372.771 169.819L373.298 163.504Z" fill="#F1C6C1"/>
<path d="M370.483 138.65C377.086 141.65 391.494 167.8 389.3 173.773C387.105 179.746 369.03 170.273 369.03 170.273L370.483 161.309L374.613 162.346C374.613 162.346 369.446 153.873 364.964 150.568C365.007 148.265 365.53 145.997 366.502 143.91C367.555 141.965 368.898 140.192 370.483 138.65Z" fill="url(#paint9_linear)"/>
<path opacity="0.3" d="M370.483 138.65C377.086 141.65 391.494 167.8 389.3 173.773C387.105 179.746 369.03 170.273 369.03 170.273L370.483 161.309L374.613 162.346C374.613 162.346 369.446 153.873 364.964 150.568C365.007 148.265 365.53 145.997 366.502 143.91C367.555 141.965 368.898 140.192 370.483 138.65Z" fill="white"/>
<path d="M170.56 76.571L174.523 52.782C172.394 50.6708 177.301 38.5957 177.301 37.29C177.301 35.9844 184.765 41.5589 184.895 42.7534C185.024 43.948 183.043 52.4487 180.811 53.671L179.644 79.0712C179.644 79.0712 174.922 81.0713 170.56 76.571Z" fill="#FEE4CB"/>
<path d="M134.761 95.6005C134.761 95.6005 159.402 94.5264 164.134 91.1002C168.865 87.674 172.134 58.2827 172.134 58.2827L184.172 59.468C184.172 59.468 180.959 92.0354 174.653 100.212C168.347 108.389 143.53 112.306 143.53 112.306L134.761 95.6005Z" fill="#263238"/>
<path opacity="0.2" d="M184.191 59.468C184.191 59.468 180.978 92.0354 174.671 100.212C171.532 104.268 163.772 107.296 156.79 109.305C152.428 110.546 148.001 111.547 143.53 112.306L138.752 103.184L134.77 95.6005C134.77 95.6005 159.411 94.5264 164.143 91.1002C168.875 87.674 172.143 58.2827 172.143 58.2827L184.191 59.468Z" fill="white"/>
<path opacity="0.2" d="M156.79 109.268C152.429 110.521 148.002 111.535 143.53 112.305L138.752 103.184C143.53 103.601 153.605 104.971 156.79 109.268Z" fill="black"/>
<path d="M78.5804 125.01L65.8479 104.49C67.0147 101.712 68.7185 92.2945 68.1722 91.1C67.6258 89.9055 58.7085 87.2478 58.3381 88.3683C57.2361 91.35 57.8195 107.444 60.3845 107.722L71.1724 130.788C71.1724 130.788 76.2562 130.844 78.5804 125.01Z" fill="#FEE4CB"/>
<path d="M139.132 327.471L146.651 328.267L148.058 312.062L140.548 311.266L139.132 327.471Z" fill="#FEE4CB"/>
<path d="M101.647 326.924H108.925L109.527 310.062H102.24L101.647 326.924Z" fill="#FEE4CB"/>
<path d="M109.935 326.081H101.092C100.946 326.08 100.805 326.13 100.692 326.221C100.579 326.312 100.501 326.439 100.471 326.581L99.0358 333.063C98.9783 333.342 99.0338 333.632 99.1901 333.87C99.3463 334.108 99.5906 334.274 99.8692 334.332C99.9461 334.341 100.024 334.341 100.101 334.332C102.962 334.286 105.046 334.11 108.638 334.11C110.852 334.11 117.528 334.341 120.584 334.341C123.64 334.341 124.038 331.322 122.788 331.045C117.176 329.822 112.954 328.128 111.157 326.517C110.821 326.22 110.383 326.064 109.935 326.081V326.081Z" fill="#263238"/>
<path d="M110.435 327.091C110.401 327.082 110.37 327.063 110.347 327.037C110.324 327.01 110.31 326.978 110.305 326.943C110.301 326.91 110.307 326.876 110.321 326.847C110.336 326.817 110.36 326.792 110.389 326.776C110.648 326.609 113 325.165 113.806 325.581C113.897 325.624 113.974 325.692 114.027 325.777C114.079 325.863 114.106 325.962 114.102 326.063C114.129 326.235 114.109 326.412 114.046 326.575C113.982 326.737 113.877 326.88 113.741 326.989C113.33 327.268 112.837 327.398 112.342 327.359C111.699 327.339 111.059 327.249 110.435 327.091V327.091ZM110.935 326.85C111.784 327.137 112.711 327.091 113.528 326.72C113.615 326.644 113.682 326.548 113.722 326.44C113.763 326.331 113.775 326.215 113.759 326.1C113.759 325.961 113.694 325.896 113.648 325.896C113.581 325.857 113.503 325.841 113.426 325.85C112.537 326.028 111.691 326.377 110.935 326.878V326.85Z" fill="url(#paint10_linear)"/>
<path d="M110.389 327.128C110.364 327.11 110.343 327.086 110.329 327.059C110.314 327.032 110.306 327.002 110.305 326.971C110.305 326.869 110.49 324.776 111.333 324.091C111.432 324.004 111.549 323.939 111.675 323.901C111.801 323.863 111.934 323.852 112.065 323.869C112.196 323.865 112.325 323.908 112.427 323.992C112.529 324.075 112.598 324.193 112.62 324.322C112.768 325.091 111.315 326.693 110.564 327.1H110.481C110.454 327.119 110.422 327.129 110.389 327.128V327.128ZM111.555 324.295C111.046 324.95 110.746 325.744 110.694 326.573C111.444 326.008 112.37 324.795 112.278 324.322C112.278 324.276 112.278 324.147 112.028 324.147H111.944C111.801 324.15 111.664 324.202 111.555 324.295V324.295Z" fill="url(#paint11_linear)"/>
<path d="M147.438 325.85H138.594C138.449 325.849 138.308 325.899 138.195 325.99C138.082 326.081 138.004 326.208 137.974 326.35L136.539 332.832C136.481 333.111 136.537 333.401 136.693 333.639C136.849 333.877 137.094 334.043 137.372 334.101C137.449 334.11 137.527 334.11 137.604 334.101C140.465 334.055 142.548 333.879 146.141 333.879C148.355 333.879 155.031 334.11 158.087 334.11C161.143 334.11 161.541 331.092 160.291 330.814C154.679 329.591 150.457 327.897 148.66 326.286C148.323 325.989 147.886 325.833 147.438 325.85V325.85Z" fill="#263238"/>
<path d="M147.938 326.878C147.904 326.869 147.873 326.85 147.85 326.824C147.827 326.797 147.813 326.765 147.808 326.73C147.804 326.697 147.81 326.663 147.824 326.634C147.839 326.604 147.863 326.579 147.892 326.563C148.151 326.396 150.503 324.952 151.308 325.369C151.4 325.411 151.477 325.479 151.53 325.564C151.582 325.65 151.608 325.75 151.605 325.85C151.631 326.023 151.612 326.199 151.549 326.362C151.485 326.524 151.38 326.667 151.244 326.776C150.833 327.055 150.34 327.185 149.845 327.147C149.202 327.126 148.562 327.036 147.938 326.878V326.878ZM148.438 326.637C149.287 326.924 150.214 326.878 151.031 326.508C151.118 326.432 151.185 326.335 151.225 326.227C151.266 326.118 151.278 326.002 151.262 325.887C151.262 325.748 151.197 325.683 151.151 325.683C151.084 325.645 151.006 325.628 150.929 325.637C150.043 325.801 149.197 326.135 148.438 326.619V326.637Z" fill="url(#paint12_linear)"/>
<path d="M147.892 326.878C147.867 326.86 147.846 326.836 147.832 326.809C147.817 326.782 147.809 326.752 147.808 326.721C147.808 326.619 147.993 324.526 148.836 323.841C148.935 323.754 149.052 323.689 149.178 323.651C149.304 323.612 149.437 323.602 149.568 323.619C149.699 323.615 149.828 323.658 149.93 323.742C150.032 323.825 150.101 323.943 150.123 324.072C150.271 324.841 148.818 326.443 148.068 326.85H147.984C147.957 326.869 147.925 326.879 147.892 326.878ZM149.086 324.1C148.577 324.756 148.277 325.55 148.225 326.378C148.975 325.813 149.901 324.6 149.808 324.128C149.808 324.082 149.808 323.952 149.558 323.952H149.475C149.332 323.955 149.195 324.008 149.086 324.1V324.1Z" fill="url(#paint13_linear)"/>
<path opacity="0.2" d="M140.548 311.266L148.058 312.062L147.327 320.414L139.807 319.627L140.548 311.266Z" fill="black"/>
<path opacity="0.2" d="M102.24 310.071H109.527L109.213 318.766H101.925L102.24 310.071Z" fill="black"/>
<path d="M105.249 162.152H143.882C147.586 182.209 159.059 253.205 150.808 316.451L137.724 314.84C137.724 314.84 138.937 230.87 127.39 199.831C126.066 216.443 124.482 234.093 123.112 243.529C119.75 266.679 112.555 317.266 112.555 317.266H99.2395C99.2395 317.266 101.962 268.846 103.221 246.094C104.638 221.379 105.194 167.226 105.249 162.152Z" fill="url(#paint14_linear)"/>
<path d="M152.299 319.498L136.113 317.09L136.613 312.608L153.448 314.822L152.299 319.498Z" fill="url(#paint15_linear)"/>
<path d="M114.157 317.368H98.4524V312.673L114.75 312.368L114.157 317.368Z" fill="url(#paint16_linear)"/>
<path opacity="0.2" d="M127.39 199.822C129.289 205.248 130.732 210.824 131.705 216.49C132.788 201.674 128.464 186.024 128.464 186.024L127.39 199.822Z" fill="black"/>
<path d="M98.5542 98.73C100.694 106.588 102.241 114.596 103.184 122.686C103.49 125.167 103.74 127.603 103.944 129.964C104.212 132.964 104.397 135.853 104.545 138.594C104.731 142.067 104.786 146.169 104.777 150.206C104.777 159.466 104.388 168.402 104.388 168.402C111.796 170.254 133.205 169.023 144.9 168.171C146.278 156.988 146.638 145.703 145.975 134.455C145.588 127.028 144.772 119.629 143.53 112.296C142.902 108.381 142.03 104.509 140.919 100.702C140.489 99.3532 139.681 98.1555 138.591 97.2512C137.501 96.3469 136.175 95.7739 134.77 95.6001C133.353 95.4242 131.714 95.2482 129.992 95.1463C129.325 95.1463 128.658 95.0815 127.982 95.0723C122.458 95.1352 116.942 95.5185 111.463 96.2205C110.426 96.3409 109.37 96.4983 108.351 96.665C105.052 97.1804 101.781 97.8697 98.5542 98.73V98.73Z" fill="#263238"/>
<path opacity="0.7" d="M144.9 168.18C133.205 169.032 111.796 170.264 104.388 168.412C104.388 168.412 104.758 159.494 104.777 150.216C104.777 146.178 104.731 142.076 104.545 138.604C104.397 135.826 104.212 132.974 103.944 129.973C103.74 127.612 103.49 125.177 103.184 122.695C103.11 122.028 103.027 121.352 102.934 120.686C102.666 118.546 102.342 116.417 102.008 114.296V114.241L105.61 109.055L112.768 98.7393C112.768 98.7393 124.677 103.555 129.621 96.6836C134.534 100.354 139.008 104.576 142.956 109.268C143.15 110.194 143.336 111.25 143.521 112.314C144.766 119.647 145.585 127.046 145.975 134.474C146.637 145.718 146.278 157 144.9 168.18Z" fill="white"/>
<path d="M117.408 110.879C123.692 110.713 129.98 110.901 136.243 111.444C136.971 111.529 137.643 111.878 138.13 112.427C138.617 112.975 138.884 113.683 138.882 114.417V114.417C138.883 114.81 138.806 115.199 138.656 115.563C138.507 115.926 138.286 116.256 138.008 116.534C137.73 116.812 137.4 117.033 137.037 117.183C136.673 117.332 136.284 117.409 135.891 117.408H117.491C116.724 117.409 115.986 117.115 115.43 116.588C114.873 116.061 114.54 115.34 114.5 114.574V114.028C114.478 113.629 114.536 113.229 114.671 112.853C114.806 112.476 115.015 112.131 115.287 111.837C115.558 111.544 115.885 111.307 116.25 111.143C116.614 110.978 117.008 110.889 117.408 110.879V110.879Z" fill="#263238"/>
<path opacity="0.2" d="M98.5542 98.73C100.694 106.588 102.241 114.596 103.184 122.686C103.49 125.167 103.74 127.603 103.944 129.964C104.212 132.964 104.397 135.853 104.545 138.594C104.731 142.067 104.786 146.169 104.777 150.206C104.777 159.466 104.388 168.402 104.388 168.402C111.796 170.254 133.205 169.023 144.9 168.171C146.278 156.988 146.638 145.703 145.975 134.455C145.588 127.028 144.772 119.629 143.53 112.296C142.902 108.381 142.03 104.509 140.919 100.702C140.489 99.3532 139.681 98.1555 138.591 97.2512C137.501 96.3469 136.175 95.7739 134.77 95.6001C133.353 95.4242 131.714 95.2482 129.992 95.1463C129.325 95.1463 128.658 95.0815 127.982 95.0723C122.458 95.1352 116.942 95.5185 111.463 96.2205C110.426 96.3409 109.37 96.4983 108.351 96.665C105.052 97.1804 101.781 97.8697 98.5542 98.73V98.73Z" fill="white"/>
<path d="M131.177 62.8659C131.177 62.8659 133.465 70.8943 128.677 75.4039C123.89 79.9135 121.491 61.3936 121.491 61.3936L131.177 62.8659Z" fill="#263238"/>
<path d="M111.444 96.1744C114.991 99.3969 123.686 98.2024 123.686 98.2024C123.686 98.2024 129.103 96.7208 127.964 95.0262C124.769 94.4984 123.223 93.0075 122.584 91.1C122.234 89.9175 122.124 88.6771 122.26 87.4515C122.313 86.7681 122.403 86.0881 122.528 85.4143L111.787 77.46C113.194 82.7104 114.917 92.3686 111.444 96.1744Z" fill="#FEE4CB"/>
<path opacity="0.2" d="M114.269 82.5156C114.695 88.9976 119.991 90.7385 122.603 91.0996C122.253 89.9172 122.142 88.6768 122.278 87.4512L114.269 82.5156Z" fill="black"/>
<path d="M114.38 85.303C115.7 86.7972 117.474 87.8167 119.429 88.2048C121.385 88.5929 123.414 88.3282 125.205 87.4513C127.538 86.3594 129.371 84.4237 130.335 82.0342C130.464 81.7101 130.585 81.3675 130.686 81.0156C132.538 74.5985 131.937 63.8569 124.992 60.7085C122.617 59.6134 119.904 59.5065 117.45 60.4112C114.997 61.3159 113.003 63.1582 111.907 65.5329C111.246 66.9349 110.928 68.4746 110.981 70.024C111.12 77.2376 110.879 81.4879 114.38 85.303Z" fill="#FEE4CB"/>
<path d="M121.852 72.4782C121.788 73.0616 122.121 73.5523 122.51 73.5616C122.899 73.5709 123.223 73.1079 123.251 72.5245C123.279 71.9411 122.973 71.4503 122.593 71.4411C122.214 71.4318 121.88 71.8855 121.852 72.4782Z" fill="#263238"/>
<path d="M128.492 72.7373C128.427 73.3207 128.76 73.8114 129.14 73.83C129.52 73.8485 129.853 73.3762 129.881 72.7929C129.909 72.2095 129.603 71.7187 129.223 71.7002C128.844 71.6816 128.51 72.228 128.492 72.7373Z" fill="#263238"/>
<path d="M126.371 72.9502C126.996 74.7727 127.872 76.4993 128.973 78.0802C128.557 78.3498 128.087 78.5258 127.597 78.5962C127.106 78.6665 126.606 78.6295 126.13 78.4877L126.371 72.9502Z" fill="#DE5753"/>
<path d="M119.88 70.2464C119.943 70.2605 120.008 70.2566 120.069 70.2354C120.129 70.2141 120.183 70.1762 120.223 70.126C120.489 69.7857 120.831 69.5123 121.222 69.3274C121.612 69.1426 122.041 69.0514 122.473 69.0611C122.518 69.0663 122.564 69.0624 122.607 69.0498C122.651 69.0372 122.691 69.016 122.727 68.9876C122.762 68.9592 122.791 68.9241 122.813 68.8842C122.834 68.8444 122.848 68.8007 122.853 68.7556C122.86 68.6651 122.833 68.575 122.776 68.5043C122.719 68.4335 122.637 68.3875 122.547 68.3759C122.001 68.3518 121.458 68.4586 120.961 68.6873C120.465 68.9161 120.031 69.2601 119.695 69.6908C119.632 69.7549 119.596 69.8414 119.596 69.9316C119.596 70.0217 119.632 70.1082 119.695 70.1723V70.1723C119.752 70.208 119.814 70.2331 119.88 70.2464V70.2464Z" fill="#263238"/>
<path d="M131.427 70.5703C131.493 70.5929 131.565 70.5929 131.631 70.5703C131.673 70.5541 131.711 70.5295 131.743 70.4981C131.776 70.4667 131.801 70.4292 131.818 70.3876C131.836 70.3461 131.844 70.3015 131.844 70.2565C131.844 70.2115 131.834 70.1671 131.816 70.1258C131.609 69.6189 131.283 69.1693 130.866 68.8147C130.448 68.4602 129.952 68.2112 129.418 68.0886C129.328 68.0775 129.236 68.1009 129.162 68.1541C129.089 68.2074 129.038 68.2865 129.02 68.3757V68.3757C129.009 68.4649 129.032 68.5549 129.086 68.6273C129.139 68.6996 129.218 68.7487 129.307 68.7646C129.722 68.8772 130.105 69.0847 130.427 69.3707C130.748 69.6567 130.999 70.0135 131.159 70.4129C131.188 70.4585 131.227 70.4965 131.274 70.5239C131.321 70.5512 131.373 70.5672 131.427 70.5703Z" fill="#263238"/>
<path d="M120.028 57.2451C119.167 57.2451 118.306 57.2451 117.445 57.3099C114.955 57.4034 112.547 58.2243 110.518 59.6712C105.981 63.2178 107.796 70.561 109.055 75.3114C110.731 81.6267 113.685 84.2102 113.685 84.2102C111.759 81.3489 111.444 75.3206 112.416 75.0336C113.389 74.7465 113.463 75.9133 113.463 75.9133C115.5 74.2372 116.982 70.0795 115.935 67.4219C115.139 65.3754 117.296 63.5049 119.417 64.2457L120.056 64.4587L121.047 64.7735L120.028 57.2451Z" fill="#263238"/>
<path d="M107.62 75.8116C108.353 77.4726 109.715 78.7748 111.407 79.4323C113.657 80.2842 115 78.3303 114.565 76.0894C114.157 74.0985 112.509 71.2001 110.157 71.3205C107.805 71.4409 106.74 73.7559 107.62 75.8116Z" fill="#FEE4CB"/>
<path d="M125.121 79.9229C124.667 80.6609 124.267 81.4316 123.927 82.2287C123.769 82.2287 123.621 82.1639 123.473 82.1176C121.463 81.5897 120.695 80.6823 120.473 79.8396C120.375 79.4224 120.375 78.9882 120.473 78.571C120.518 78.3318 120.599 78.1007 120.713 77.8857C121.802 78.7607 123.065 79.3922 124.417 79.7377C124.853 79.8581 125.121 79.9229 125.121 79.9229Z" fill="#263238"/>
<path d="M124.436 79.7285L124.066 80.4044C122.214 79.9044 120.908 79.3025 120.463 78.5524C120.509 78.3132 120.59 78.0822 120.704 77.8672C121.8 78.749 123.073 79.3839 124.436 79.7285V79.7285Z" fill="white"/>
<path d="M123.473 82.1178C121.463 81.59 120.695 80.6825 120.473 79.8398C121.235 80.0542 121.953 80.4022 122.593 80.8677C123.013 81.1787 123.322 81.6172 123.473 82.1178V82.1178Z" fill="#DE5753"/>
<path d="M107.898 70.2278C107.898 70.2278 106.759 65.82 106.972 63.2828C107.185 60.7455 112.611 55.2451 118.528 54.7173C124.445 54.1894 125.936 54.7173 127.788 56.7174C129.64 58.7176 130.955 64.0606 130.955 64.0606C130.955 64.0606 119.352 61.3196 107.898 70.2278Z" fill="url(#paint17_linear)"/>
<path d="M107.898 70.2276C107.898 70.2276 118.741 58.3378 129.575 57.4118C140.409 56.4858 141.956 59.7083 131.649 65.7458C131.649 65.7458 125.269 60.4306 107.898 70.2276Z" fill="url(#paint18_linear)"/>
<path opacity="0.2" d="M107.898 70.2276C107.898 70.2276 118.741 58.3378 129.575 57.4118C140.409 56.4858 141.956 59.7083 131.649 65.7458C131.649 65.7458 125.269 60.4306 107.898 70.2276Z" fill="black"/>
<path opacity="0.2" d="M102.934 120.685C102.666 118.546 102.342 116.417 102.008 114.296V114.24C102.323 113.713 104.907 109.388 105.166 106.295C105.384 107.209 105.532 108.138 105.61 109.073C105.888 112.046 105.758 116.806 102.934 120.685Z" fill="black"/>
<path d="M102.471 117.343C100.721 123.584 90.2851 136.927 81.9881 138.066C67.0147 140.122 60.0604 113.666 60.0604 113.666L70.4409 106.657C70.4409 106.657 75.6728 118.482 78.3767 120.297C81.7196 122.547 92.7297 103.193 98.5542 98.73C98.5542 98.73 107.296 100.184 102.471 117.343Z" fill="#263238"/>
<path opacity="0.2" d="M102.471 117.343C100.721 123.584 90.2851 136.927 81.9881 138.066C67.0147 140.122 60.0604 113.666 60.0604 113.666L70.4409 106.657C70.4409 106.657 75.6728 118.482 78.3767 120.297C81.7196 122.547 92.7297 103.193 98.5542 98.73C98.5542 98.73 107.296 100.184 102.471 117.343Z" fill="white"/>
<path d="M252.53 108.342L258.947 103.878C259.663 102.553 260.523 101.311 261.512 100.174C262.79 98.8409 266.818 96.7482 267.92 96.8778C269.022 97.0075 274.096 100.665 272.105 102.591C270.114 104.517 265.253 106.943 264.438 106.647L263.623 106.351L255.576 112.833L252.53 108.342Z" fill="#EEC1BB"/>
<path d="M261.512 109.463C261.512 109.463 243.816 125.01 237.056 128.39C233.741 130.057 225.944 132.742 218.943 135.02C211.721 137.363 205.285 139.289 205.285 139.289L204.165 137.206L197.766 125.307C197.766 125.307 231.194 120.677 234.13 119.445C237.065 118.213 257.104 103.86 257.104 103.86L261.512 109.463Z" fill="#263238"/>
<path opacity="0.2" d="M218.971 135.02C211.749 137.363 205.313 139.289 205.313 139.289L204.192 137.206V131.724C204.192 131.724 214.425 132.048 218.971 135.02Z" fill="black"/>
<path d="M155.309 188.719L150.901 195.201C150.692 196.686 150.325 198.145 149.808 199.553C149.077 201.257 146.058 204.637 144.984 204.905C143.91 205.174 137.854 203.553 139.039 201.053C140.224 198.553 143.901 194.571 144.771 194.571H145.632L150.864 185.672L155.309 188.719Z" fill="#EEC1BB"/>
<path d="M186.209 89.4608C191.173 89.396 201.312 98.1282 201.312 98.1282C201.312 98.1282 204.313 111.092 207.118 113.75L204.97 114.676L203.174 111.953L204.192 115.889C204.192 115.889 195.219 119.898 187.821 120.287C180.422 120.676 177.005 119.185 177.005 119.185L177.746 115.889L176.31 118.722L173.273 117.435C174.691 112.457 175.707 107.372 176.31 102.23C177.005 94.9983 186.209 89.4608 186.209 89.4608Z" fill="#263238"/>
<path d="M197.571 291.181C191.969 298.218 186.941 304.598 182.552 309.256C178.172 313.97 175.912 316.896 175.912 316.896L171.569 314.405C171.569 314.405 175.579 308.062 181.015 299.311C185.645 291.903 191.302 282.736 196.442 274.244C203.1 263.28 208.869 253.446 210.397 249.927C211.48 247.427 208.545 237.825 205.285 228.768C201.979 219.555 198.349 210.887 198.349 210.887L210.202 190.849C210.202 190.849 215.017 204.192 219.295 218.267C222.073 227.527 224.675 237.019 225.537 243.353C226.731 252.196 211.461 273.698 197.571 291.181Z" fill="#EEC1BB"/>
<path opacity="0.2" d="M197.608 291.181C192.052 298.218 186.635 304.598 182.635 309.256C182.061 306.395 181.487 303.006 181.024 299.311C185.654 291.903 191.312 282.736 196.451 274.244C196.339 279.913 196.726 285.58 197.608 291.181V291.181Z" fill="black"/>
<path opacity="0.2" d="M219.277 218.267L205.285 228.768C201.979 219.555 198.349 210.887 198.349 210.887L210.202 190.849C210.202 190.849 214.999 204.192 219.277 218.267Z" fill="#FFAAA5"/>
<path d="M194.84 327.128L189.83 327.804C189.83 327.804 182.589 292.181 182.811 262.78C180.126 253.053 178.029 243.173 176.533 233.194C174.755 221.156 173.884 207.748 176.227 197.747L193.775 205.646L194.136 231.963L194.432 253.9L194.84 327.128Z" fill="#EEC1BB"/>
<path opacity="0.2" d="M194.099 231.944L176.505 233.176C174.727 221.138 173.857 207.729 176.199 197.729L193.747 205.627L194.099 231.944Z" fill="#FF8B94"/>
<path d="M171.856 311.636C172.375 311.256 176.746 317.803 176.746 317.803C176.746 317.803 175.773 324.628 177.746 329.026C179.718 333.425 175.894 333.045 172.699 328.878L164.828 318.544C162.569 315.609 166.504 315.534 171.856 311.636Z" fill="#263238"/>
<path d="M178.227 322.739C177.236 322.507 176.588 319.683 176.468 319.118V319.035C176.468 319.035 176.468 319.035 176.468 318.97V318.914H176.533C176.625 318.914 178.477 318.303 179.468 318.914C179.621 319 179.753 319.118 179.856 319.261C179.958 319.403 180.028 319.566 180.061 319.738C180.144 320.127 180.061 320.396 179.857 320.544C179.653 320.692 178.838 320.59 178.181 320.285C178.626 320.694 178.946 321.22 179.107 321.803C179.127 321.918 179.123 322.037 179.094 322.15C179.066 322.263 179.013 322.369 178.94 322.461C178.869 322.567 178.775 322.656 178.664 322.721C178.553 322.785 178.429 322.823 178.301 322.831L178.227 322.739ZM178.32 322.34C178.32 322.34 178.487 322.34 178.681 322.127C178.719 322.08 178.745 322.024 178.76 321.965C178.774 321.906 178.776 321.845 178.764 321.785C178.681 321.137 177.699 320.183 177.014 319.609C177.32 320.822 177.857 322.248 178.32 322.34V322.34ZM177.181 319.155C178.237 319.812 179.403 320.331 179.7 320.081C179.783 320.025 179.755 319.822 179.7 319.701C179.677 319.587 179.629 319.479 179.561 319.384C179.492 319.29 179.403 319.212 179.301 319.155C179.014 319.012 178.696 318.942 178.375 318.951C177.971 318.975 177.57 319.044 177.181 319.155V319.155Z" fill="url(#paint19_linear)"/>
<path d="M187.978 324.572C187.978 323.933 195.84 324.433 195.84 324.433C195.84 324.433 200.674 329.341 205.368 330.452C210.063 331.563 207.433 334.369 202.192 334.369H189.228C185.515 334.369 187.849 331.193 187.978 324.572Z" fill="#263238"/>
<path d="M196.747 325.442C196.722 325.432 196.7 325.417 196.683 325.396V325.396C196.68 325.378 196.68 325.359 196.683 325.341V325.341C196.679 325.319 196.679 325.297 196.683 325.276V325.276C196.683 325.276 196.683 325.211 196.683 325.192C196.683 325.174 197.368 323.276 198.433 322.831C198.591 322.758 198.763 322.72 198.937 322.72C199.112 322.72 199.284 322.758 199.442 322.831C199.803 323.007 199.979 323.229 199.961 323.498C199.942 323.766 199.377 324.322 198.738 324.665C199.331 324.562 199.941 324.63 200.498 324.859C200.602 324.912 200.694 324.986 200.767 325.077C200.841 325.168 200.894 325.274 200.924 325.387C200.98 325.529 200.992 325.685 200.957 325.834C200.922 325.983 200.843 326.118 200.729 326.22C200.528 326.365 200.282 326.433 200.035 326.415C198.89 326.29 197.776 325.96 196.747 325.442V325.442ZM197.46 325.313C198.618 325.804 200.062 326.239 200.433 325.933C200.433 325.933 200.563 325.822 200.479 325.516C200.462 325.458 200.434 325.403 200.396 325.355C200.358 325.308 200.31 325.268 200.257 325.239C199.966 325.11 199.648 325.053 199.331 325.072C198.701 325.089 198.074 325.17 197.46 325.313ZM198.553 323.22C197.932 323.618 197.46 324.211 197.21 324.905C198.368 324.461 199.488 323.85 199.516 323.498C199.516 323.387 199.34 323.285 199.229 323.239C199.116 323.185 198.993 323.156 198.868 323.155C198.76 323.154 198.652 323.176 198.553 323.22V323.22Z" fill="url(#paint20_linear)"/>
<path d="M201.868 223.832L220.86 213.906C214.897 195.775 209.517 185.487 209.517 185.487C190.867 188.682 192.571 203.423 192.571 203.423C192.571 203.423 197.321 213.239 201.868 223.832Z" fill="url(#paint21_linear)"/>
<path opacity="0.2" d="M200.674 221.036C201.081 221.962 201.479 222.888 201.887 223.814L220.86 213.906C214.897 195.775 209.517 185.487 209.517 185.487C198.007 187.468 194.247 193.821 193.053 198.451C192.615 200.079 192.449 201.769 192.562 203.451C192.562 203.451 196.507 211.572 200.674 221.036Z" fill="white"/>
<path opacity="0.2" d="M200.674 221.036C196.507 211.573 192.562 203.442 192.562 203.442C192.449 201.76 192.615 200.07 193.053 198.442C193.646 198.053 194.305 197.774 194.997 197.618C194.997 197.618 200.072 205.572 200.674 221.036Z" fill="black"/>
<path d="M196.016 227.926L195.386 197.581L210.424 193.191C210.424 193.191 209.248 179.301 207.489 172.403C207.489 172.403 183.061 166.319 179.338 174.607C179.338 174.607 179.338 174.736 179.283 174.782L179.227 174.857C179.227 174.857 172.208 187.2 174.301 227.926H196.016Z" fill="url(#paint22_linear)"/>
<path opacity="0.2" d="M196.016 227.926L195.386 197.581L210.424 193.191C210.424 193.191 209.248 179.301 207.489 172.403C207.489 172.403 183.061 166.319 179.338 174.607C179.338 174.607 179.338 174.736 179.283 174.782L179.227 174.857C179.227 174.857 172.208 187.2 174.301 227.926H196.016Z" fill="white"/>
<path d="M179.042 170.402V174.541L207.119 172.375V167.476L179.042 170.402Z" fill="url(#paint23_linear)"/>
<path d="M188.568 168.644L187.162 168.716L187.528 175.865L188.934 175.793L188.568 168.644Z" fill="url(#paint24_linear)"/>
<path d="M200.818 168.475L194.629 169.03L195.049 173.715L201.237 173.161L200.818 168.475Z" fill="white"/>
<path d="M205.848 166.754L204.442 166.826L204.808 173.975L206.214 173.903L205.848 166.754Z" fill="url(#paint25_linear)"/>
<path opacity="0.2" d="M188.568 168.644L187.162 168.716L187.528 175.865L188.934 175.793L188.568 168.644Z" fill="white"/>
<path opacity="0.2" d="M205.848 166.754L204.442 166.826L204.808 173.975L206.214 173.903L205.848 166.754Z" fill="white"/>
<path d="M207.424 167.976L179.172 170.384C178.962 166.01 178.508 161.651 177.811 157.327C176.985 152.669 175.881 148.065 174.505 143.539C173.699 140.761 172.745 137.779 171.606 134.344C171.069 132.702 170.48 130.964 169.838 129.13C173.677 127.9 177.602 126.953 181.579 126.297C185.779 125.568 190.024 125.137 194.284 125.01C199.785 125.01 206.109 125.584 206.109 125.584C206.109 125.584 207.035 125.806 207.572 131.631C208.091 137.094 208.6 148.049 207.424 167.976Z" fill="#263238"/>
<path d="M172.468 226.685L197.247 226.462L196.812 230.194L173.56 229.972L172.468 226.685Z" fill="url(#paint26_linear)"/>
<path d="M200.322 223.61L220.934 212.424L222.036 215.712L202.072 225.583L200.322 223.61Z" fill="url(#paint27_linear)"/>
<path d="M191.951 131.242C184.978 130.316 182.876 127.362 182.876 127.362C185.728 124.686 185.209 120.713 184.487 118.241C184.265 117.458 183.977 116.696 183.626 115.963L192.025 117.528C191.827 118.697 191.715 119.879 191.691 121.065C191.668 121.939 191.749 122.812 191.932 123.667C192.506 126.177 193.932 126.204 193.932 126.204C195.386 128.964 191.951 131.242 191.951 131.242Z" fill="#EEC1BB"/>
<path opacity="0.2" d="M191.682 121.065C191.659 121.939 191.74 122.812 191.923 123.667C188.589 123.223 186.061 120.556 184.515 118.241C184.293 117.458 184.005 116.696 183.654 115.963L192.052 117.528C191.842 118.696 191.718 119.879 191.682 121.065Z" fill="black"/>
<path d="M190.312 94.2852C197.608 94.5538 199.812 98.5541 200.072 106.101C200.386 115.528 198.062 122.13 189.006 119.778C176.709 116.593 178.181 93.8408 190.312 94.2852Z" fill="#EEC1BB"/>
<path d="M195.386 105.564C195.93 106.674 196.605 107.715 197.396 108.666C197.172 108.961 196.871 109.188 196.526 109.322C196.181 109.456 195.806 109.492 195.442 109.425L195.386 105.564Z" fill="#D4827D"/>
<path d="M191.034 99.7023C190.46 99.6111 189.872 99.653 189.317 99.8248C188.761 99.9965 188.252 100.294 187.83 100.693" stroke="#263238" stroke-width="0.707962" stroke-linecap="round" stroke-linejoin="round"/>
<path d="M196.312 99.5914C196.816 99.4854 197.338 99.4944 197.838 99.6179C198.338 99.7413 198.804 99.976 199.201 100.304" stroke="#263238" stroke-width="0.707962" stroke-linecap="round" stroke-linejoin="round"/>
<path d="M194.256 112.204C193.886 113.016 193.576 113.855 193.33 114.713L192.867 114.648C190.747 114.352 189.867 113.519 189.524 112.685C189.37 112.272 189.316 111.827 189.367 111.389C189.388 111.139 189.44 110.893 189.524 110.657C190.749 111.426 192.127 111.916 193.562 112.093C193.969 112.176 194.256 112.204 194.256 112.204Z" fill="#263238"/>
<path d="M193.534 112.093L193.238 112.824C191.238 112.546 189.876 112.083 189.339 111.389C189.36 111.139 189.413 110.893 189.497 110.657C190.721 111.426 192.099 111.916 193.534 112.093V112.093Z" fill="white"/>
<path d="M192.84 114.648C190.719 114.352 189.839 113.518 189.497 112.685C190.299 112.813 191.073 113.079 191.784 113.472C192.247 113.749 192.615 114.159 192.84 114.648V114.648Z" fill="#DE5753"/>
<path d="M181.876 106.295C181.876 106.295 185.515 100.424 185.163 95.776C185.163 95.776 199.849 90.3959 199.979 105.11C199.979 105.11 201.831 92.146 189.33 91.3682C176.829 90.5904 176.162 108.962 182.441 114.685C182.487 114.685 179.644 109.972 181.876 106.295Z" fill="#263238"/>
<path d="M183.006 107.879C182.988 107.459 182.887 107.047 182.71 106.666C182.533 106.285 182.282 105.943 181.972 105.66C181.663 105.376 181.3 105.156 180.906 105.012C180.511 104.869 180.092 104.804 179.672 104.823C177.403 104.99 176.153 109.592 181.737 110.916C182.533 111.12 183.024 110.333 183.006 107.879Z" fill="#EEC1BB"/>
<path d="M186.209 89.4608C190.154 88.3681 200.683 88.22 203.174 99.1097L201.711 99.8413C199.237 98.6009 196.562 97.8107 193.812 97.5077C193.227 96.4677 192.542 95.4876 191.765 94.5816C191.846 95.5058 191.846 96.4353 191.765 97.3596C191.765 97.3596 184.895 98.3597 181.82 101.156C176.996 105.545 176.709 108.323 176.709 108.323C176.709 108.323 173.357 93.0352 186.209 89.4608Z" fill="#263238"/>
<path d="M185.626 90.2663C185.626 90.2663 199.738 85.3678 204.146 98.7485" stroke="#263238" stroke-width="0.488465" stroke-linecap="round" stroke-linejoin="round"/>
<path d="M188.904 104.758C188.904 104.758 190.617 103.305 191.423 105.258C190.639 104.881 189.772 104.709 188.904 104.758V104.758Z" fill="#263238"/>
<path d="M197.034 105.842C197.034 105.842 197.96 103.86 199.238 105.258C198.468 105.274 197.712 105.474 197.034 105.842Z" fill="#263238"/>
<path opacity="0.3" d="M199.812 135.344H203.905C204.054 135.351 204.198 135.393 204.327 135.467C204.456 135.542 204.565 135.646 204.645 135.771C204.725 135.897 204.773 136.039 204.786 136.188C204.799 136.336 204.777 136.485 204.72 136.622L203.026 140.271C202.952 140.409 202.844 140.526 202.713 140.612C202.581 140.697 202.43 140.748 202.274 140.759C202.117 140.77 201.961 140.741 201.819 140.675C201.676 140.609 201.553 140.508 201.461 140.382L199.053 136.742C198.971 136.605 198.926 136.448 198.923 136.287C198.92 136.127 198.959 135.969 199.035 135.828C199.112 135.687 199.224 135.568 199.36 135.483C199.496 135.398 199.652 135.351 199.812 135.344V135.344Z" fill="white"/>
<path opacity="0.2" d="M177.792 157.364C176.966 152.707 175.862 148.102 174.486 143.576L176.023 140.798C177.953 146.094 178.56 151.781 177.792 157.364V157.364Z" fill="black"/>
<path d="M169.838 129.167C167.189 132.52 165.995 156.549 160.633 166.291C155.272 176.032 147.734 189.256 147.734 189.256L153.235 194.034C153.235 194.034 170.171 174.254 172.875 166.652C175.579 159.049 176.31 148.947 176.31 148.947C177.792 135.344 169.838 129.167 169.838 129.167Z" fill="#263238"/>
<path opacity="0.6" d="M171.856 311.636C172.375 311.256 176.746 317.803 176.746 317.803C176.746 317.803 175.773 324.628 177.746 329.026C179.718 333.425 175.894 333.045 172.699 328.878L164.828 318.544C162.569 315.609 166.504 315.534 171.856 311.636Z" fill="white"/>
<path opacity="0.6" d="M187.978 324.572C187.978 323.933 195.84 324.433 195.84 324.433C195.84 324.433 200.674 329.341 205.368 330.452C210.063 331.563 207.433 334.369 202.192 334.369H189.228C185.515 334.369 187.849 331.193 187.978 324.572Z" fill="white"/>
<path d="M226.814 146.984C231.574 148.901 235.602 144.132 235.787 138.456C235.787 138.456 240.13 135.678 245.047 132.659C248.754 130.33 252.577 128.191 256.502 126.251C257.144 125.951 257.701 125.496 258.122 124.927V124.927C261.919 120.001 260.169 105.805 260.169 105.805C251.372 106.787 233.796 122.723 226.101 130.409C218.406 138.095 222.055 145.058 226.814 146.984Z" fill="url(#paint28_linear)"/>
<path opacity="0.2" d="M245.047 132.659C248.754 130.33 252.577 128.191 256.502 126.251C257.144 125.951 257.701 125.496 258.122 124.927V124.927L251.955 119.454C251.955 119.454 246.464 126.594 245.047 132.659Z" fill="black"/>
<path d="M255.78 327.471L248.27 328.267L246.853 312.062L254.372 311.266L255.78 327.471Z" fill="#FFE5C9"/>
<path d="M293.264 326.924H285.986L285.384 310.062H292.672L293.264 326.924Z" fill="#FFE5C9"/>
<path d="M284.976 326.082H293.82C293.965 326.081 294.106 326.131 294.219 326.222C294.332 326.313 294.41 326.44 294.44 326.582L295.875 333.064C295.933 333.343 295.877 333.633 295.721 333.871C295.565 334.109 295.321 334.275 295.042 334.333C294.965 334.343 294.887 334.343 294.811 334.333C291.949 334.287 289.866 334.111 286.273 334.111C284.06 334.111 277.383 334.342 274.327 334.342C271.272 334.342 270.873 331.323 272.124 331.046C277.735 329.823 281.958 328.129 283.754 326.517C284.091 326.221 284.528 326.065 284.976 326.082Z" fill="#263238"/>
<path d="M282.569 327.36C282.074 327.397 281.582 327.267 281.171 326.989C281.036 326.879 280.931 326.736 280.868 326.574C280.805 326.412 280.785 326.236 280.809 326.063C280.806 325.963 280.832 325.864 280.885 325.778C280.937 325.692 281.014 325.624 281.106 325.582C281.911 325.165 284.263 326.61 284.523 326.777C284.553 326.792 284.577 326.816 284.592 326.846C284.607 326.876 284.612 326.91 284.606 326.943C284.602 326.978 284.587 327.011 284.564 327.037C284.541 327.064 284.51 327.082 284.476 327.091C283.852 327.25 283.213 327.34 282.569 327.36V327.36ZM281.504 325.851C281.427 325.842 281.349 325.859 281.282 325.897C281.235 325.897 281.18 325.962 281.171 326.101C281.156 326.215 281.17 326.331 281.21 326.439C281.25 326.547 281.316 326.644 281.402 326.721C282.219 327.091 283.145 327.138 283.995 326.851C283.238 326.358 282.391 326.019 281.504 325.851Z" fill="url(#paint29_linear)"/>
<path d="M284.43 327.1H284.347C283.597 326.693 282.143 325.091 282.291 324.322C282.317 324.194 282.386 324.079 282.488 323.996C282.589 323.913 282.716 323.868 282.847 323.869C282.977 323.852 283.11 323.863 283.236 323.901C283.363 323.939 283.479 324.004 283.578 324.091C284.421 324.776 284.597 326.869 284.606 326.971C284.606 327.002 284.599 327.033 284.585 327.06C284.57 327.088 284.549 327.111 284.523 327.128C284.49 327.129 284.457 327.119 284.43 327.1V327.1ZM282.967 324.147H282.884C282.661 324.147 282.643 324.276 282.634 324.322C282.541 324.795 283.467 326.008 284.217 326.573C284.17 325.743 283.87 324.948 283.356 324.295C283.247 324.202 283.11 324.15 282.967 324.147V324.147Z" fill="url(#paint30_linear)"/>
<path d="M247.473 325.85H256.317C256.462 325.849 256.603 325.899 256.716 325.99C256.829 326.081 256.907 326.208 256.937 326.35L258.372 332.832C258.43 333.111 258.374 333.401 258.218 333.639C258.062 333.877 257.818 334.043 257.539 334.101C257.462 334.111 257.384 334.111 257.308 334.101C254.446 334.055 252.363 333.879 248.77 333.879C246.557 333.879 239.88 334.11 236.824 334.11C233.769 334.11 233.37 331.092 234.621 330.814C240.232 329.591 244.455 327.897 246.251 326.286C246.588 325.989 247.025 325.833 247.473 325.85Z" fill="#263238"/>
<path d="M245.066 327.128C244.571 327.166 244.079 327.035 243.668 326.758C243.533 326.648 243.428 326.505 243.365 326.343C243.302 326.18 243.282 326.004 243.306 325.832C243.303 325.731 243.329 325.632 243.382 325.546C243.434 325.461 243.511 325.393 243.603 325.351C244.408 324.934 246.76 326.378 247.02 326.545C247.05 326.56 247.074 326.585 247.089 326.615C247.104 326.645 247.109 326.679 247.103 326.712C247.099 326.747 247.084 326.779 247.061 326.806C247.038 326.832 247.007 326.851 246.973 326.86C246.349 327.019 245.71 327.109 245.066 327.128V327.128ZM243.982 325.619C243.905 325.611 243.828 325.627 243.76 325.665C243.714 325.665 243.658 325.73 243.649 325.869C243.635 325.984 243.648 326.1 243.688 326.208C243.729 326.316 243.795 326.413 243.881 326.489C244.697 326.86 245.624 326.906 246.473 326.619C245.716 326.127 244.87 325.787 243.982 325.619V325.619Z" fill="url(#paint31_linear)"/>
<path d="M246.927 326.878H246.844C246.094 326.471 244.64 324.869 244.788 324.1C244.814 323.972 244.883 323.857 244.985 323.774C245.086 323.691 245.213 323.646 245.344 323.647C245.474 323.629 245.607 323.64 245.733 323.679C245.86 323.717 245.976 323.782 246.075 323.869C246.918 324.554 247.094 326.647 247.103 326.749C247.104 326.78 247.096 326.811 247.082 326.838C247.067 326.866 247.046 326.889 247.02 326.906C246.987 326.907 246.954 326.897 246.927 326.878V326.878ZM245.464 323.924H245.39C245.168 323.924 245.149 324.054 245.14 324.1C245.047 324.573 245.973 325.786 246.723 326.35C246.677 325.521 246.376 324.726 245.862 324.073C245.752 323.974 245.611 323.919 245.464 323.915V323.924Z" fill="url(#paint32_linear)"/>
<path opacity="0.2" d="M254.372 311.266L246.853 312.062L247.594 320.415L255.104 319.628L254.372 311.266Z" fill="black"/>
<path opacity="0.2" d="M292.672 310.071H285.384L285.699 318.766H292.986L292.672 310.071Z" fill="black"/>
<path d="M289.662 169.56H251.029C247.325 189.617 235.861 253.206 244.103 316.451L257.187 314.84C257.187 314.84 255.974 238.279 267.521 207.239C268.855 223.851 270.429 234.093 271.799 243.529C275.161 266.679 282.356 317.266 282.356 317.266H295.672C295.672 317.266 292.949 268.846 291.69 246.094C290.31 221.379 289.718 174.635 289.662 169.56Z" fill="#263238"/>
<path d="M242.612 319.498L258.798 317.091L258.308 312.609L241.464 314.822L242.612 319.498Z" fill="url(#paint33_linear)"/>
<path d="M280.754 317.369H296.459V312.674L280.161 312.368L280.754 317.369Z" fill="url(#paint34_linear)"/>
<path opacity="0.2" d="M267.521 207.23C265.623 212.657 264.179 218.232 263.206 223.898C262.123 209.082 266.447 193.433 266.447 193.433L267.521 207.23Z" fill="black"/>
<path d="M296.32 108.916C294.181 116.775 292.633 124.782 291.69 132.872C291.384 135.354 291.134 137.789 290.931 140.15C290.662 143.151 290.477 146.04 290.329 148.781C290.143 152.253 290.088 156.355 290.097 160.393C290.097 169.653 290.486 175.811 290.486 175.811C283.078 177.663 261.669 176.431 249.974 175.579C248.598 165.327 248.238 154.964 248.899 144.642C249.289 137.214 250.108 129.815 251.353 122.482C251.982 118.567 252.854 114.695 253.965 110.889C254.395 109.54 255.202 108.342 256.292 107.438C257.382 106.533 258.708 105.96 260.113 105.787C261.53 105.611 263.169 105.435 264.891 105.333C265.558 105.333 266.225 105.268 266.901 105.259C272.425 105.322 277.941 105.705 283.421 106.407C284.458 106.527 285.513 106.685 286.532 106.852C289.829 107.367 293.096 108.057 296.32 108.916V108.916Z" fill="url(#paint35_linear)"/>
<path d="M283.467 106.36C279.921 109.583 271.235 108.388 271.235 108.388C271.235 108.388 265.808 106.907 266.947 105.212C270.142 104.684 271.688 103.194 272.327 101.286C272.677 100.104 272.787 98.8631 272.651 97.6375C272.598 96.9542 272.509 96.2741 272.383 95.6003L273.04 95.1188L275.281 93.452L283.125 87.646C282.394 90.3546 281.877 93.1164 281.578 95.9059C281.226 98.5682 281.399 101.274 282.087 103.87C282.367 104.788 282.837 105.636 283.467 106.36V106.36Z" fill="#FFE5C9"/>
<path opacity="0.2" d="M291.977 130.872C292.246 128.733 292.57 126.603 292.903 124.483V124.427C292.588 123.899 290.005 119.575 289.745 116.482C289.528 117.395 289.379 118.324 289.301 119.26C289.023 122.232 289.153 126.992 291.977 130.872Z" fill="black"/>
<path d="M311.182 153.365L299.098 177.598C295.783 178.117 292.264 192.303 291.449 193.516C290.634 194.729 301.043 194.553 301.941 193.516C302.839 192.479 306.682 183.515 305.423 180.904L321.081 157.032C321.081 157.032 318.1 152.152 311.182 153.365Z" fill="#FFE5C9"/>
<path d="M296.32 108.916C297.922 108.741 325.156 132.872 324.785 145.956C324.415 159.041 320.757 159.448 320.757 159.448L310.571 157.337C310.571 157.337 312.84 146.151 310.395 143.632C307.951 141.114 292.431 127.483 292.431 127.483C292.431 127.483 287.125 109.935 296.32 108.916Z" fill="url(#paint36_linear)"/>
<path opacity="0.6" d="M258.104 119.158C258.104 119.158 275.327 119.936 282.31 121.621C282.31 121.621 279.291 146.391 279.346 153.79C279.346 153.79 259.743 152.929 254.187 152.67C254.187 152.67 256.344 126.214 258.104 119.158Z" fill="white"/>
<path d="M230.25 135.344L254.233 138.178C256.243 135.955 268.54 140.271 269.846 140.261C271.151 140.252 265.929 147.919 264.743 148.105C263.558 148.29 254.974 146.743 253.631 144.53H228.166C228.166 144.53 225.944 139.909 230.25 135.344Z" fill="#FFE5C9"/>
<path opacity="0.2" d="M282.087 103.87C276.485 104.481 274.013 98.6378 273.04 95.119L275.281 93.4521C277.42 94.1638 279.522 94.9828 281.578 95.9061C281.226 98.5684 281.399 101.274 282.087 103.87V103.87Z" fill="black"/>
<path d="M291.69 75.5247C291.69 75.5247 292.921 83.7846 287.597 87.6368C282.272 91.489 282.272 72.8208 282.272 72.8208L291.69 75.5247Z" fill="#263238"/>
<path d="M272.179 95.61C273.295 97.2616 274.922 98.5013 276.811 99.1386C278.7 99.776 280.745 99.7758 282.634 99.1381C285.09 98.3558 287.158 96.6715 288.421 94.4247C288.597 94.1243 288.758 93.8153 288.903 93.4987C291.523 87.3686 292.357 76.6455 285.875 72.6267C284.449 71.7315 282.819 71.2156 281.138 71.1281C279.457 71.0406 277.782 71.3843 276.271 72.1266C274.761 72.8689 273.465 73.9852 272.507 75.3693C271.549 76.7534 270.962 78.3594 270.799 80.0347C270.003 87.1927 269.197 91.3689 272.179 95.61Z" fill="#FFE5C9"/>
<path d="M281.245 83.8589C281.106 84.4238 281.365 84.9516 281.754 85.0164C282.143 85.0812 282.513 84.6645 282.615 84.0904C282.717 83.5163 282.486 82.9885 282.106 82.9236C281.726 82.8588 281.347 83.2755 281.245 83.8589Z" fill="#263238"/>
<path d="M287.782 84.97C287.653 85.5441 287.921 86.0719 288.292 86.1367C288.662 86.2015 289.06 85.7756 289.162 85.2107C289.264 84.6459 289.023 84.1088 288.653 84.0532C288.282 83.9977 287.884 84.4236 287.782 84.97Z" fill="#263238"/>
<path d="M285.662 84.9053C286.043 86.7949 286.689 88.6215 287.578 90.3316C287.129 90.5423 286.639 90.6515 286.143 90.6515C285.647 90.6515 285.157 90.5423 284.708 90.3316L285.662 84.9053Z" fill="#D58745"/>
<path d="M279.578 81.3957C279.639 81.4149 279.703 81.4174 279.765 81.4027C279.827 81.388 279.884 81.3568 279.93 81.3123C280.239 81.0101 280.614 80.7841 281.025 80.6523C281.437 80.5205 281.873 80.4865 282.3 80.553C282.389 80.5724 282.481 80.556 282.557 80.5074C282.634 80.4588 282.688 80.382 282.708 80.2938C282.719 80.2506 282.721 80.2056 282.714 80.1615C282.708 80.1175 282.692 80.0752 282.669 80.0372C282.645 79.9992 282.615 79.9663 282.579 79.9404C282.542 79.9145 282.501 79.8961 282.458 79.8863V79.8863C281.92 79.7903 281.367 79.8243 280.845 79.9854C280.323 80.1465 279.848 80.43 279.457 80.8123C279.394 80.8764 279.359 80.9629 279.359 81.0531C279.359 81.1432 279.394 81.2297 279.457 81.2938C279.492 81.3337 279.533 81.3681 279.578 81.3957V81.3957Z" fill="#263238"/>
<path d="M290.986 83.2014C291.045 83.2353 291.113 83.2514 291.181 83.2477C291.268 83.2218 291.342 83.1629 291.387 83.0834C291.432 83.0039 291.444 82.9101 291.421 82.8217C291.279 82.2924 291.012 81.8047 290.643 81.3989C290.274 80.9931 289.814 80.6809 289.301 80.4882C289.258 80.4741 289.212 80.4689 289.167 80.4731C289.122 80.4772 289.078 80.4905 289.038 80.5121C288.998 80.5338 288.963 80.5634 288.935 80.5991C288.907 80.6348 288.887 80.6758 288.875 80.7197V80.7197C288.852 80.8069 288.863 80.8996 288.906 80.9789C288.949 81.0582 289.021 81.1179 289.106 81.1457C289.508 81.3045 289.866 81.5545 290.154 81.876C290.442 82.1974 290.65 82.5815 290.764 82.9977C290.784 83.0456 290.814 83.0887 290.853 83.1238C290.891 83.159 290.937 83.1855 290.986 83.2014V83.2014Z" fill="#263238"/>
<path d="M281.393 68.5244C280.541 68.4041 279.689 68.3022 278.828 68.2652C276.347 68.0326 273.852 68.5316 271.651 69.7005C266.697 72.6359 267.549 80.155 268.188 85.0258C269.04 91.5078 271.586 94.4432 271.586 94.4432C270.04 91.3504 270.503 85.3314 271.503 85.1832C272.503 85.035 272.429 86.1833 272.429 86.1833C274.67 84.7943 276.679 80.8588 275.985 78.0808C275.448 75.951 277.837 74.3768 279.837 75.3768L280.448 75.6732L281.374 76.1176L281.393 68.5244Z" fill="#263238"/>
<path d="M266.688 85.3218C266.94 86.1856 267.36 86.991 267.924 87.6919C268.488 88.3927 269.185 88.9751 269.975 89.4055C272.096 90.5444 273.679 88.7758 273.54 86.4978C273.392 84.4791 272.133 81.3863 269.79 81.2104C267.447 81.0344 266.095 83.1735 266.688 85.3218Z" fill="#FFE5C9"/>
<path d="M268.244 74.4321C268.244 74.4321 267.318 67.0797 275.874 65.8481C284.43 64.6165 291.847 62.6997 291.847 62.6997C291.847 62.6997 291.718 67.0241 290.144 68.2557C290.144 68.2557 293.218 68.3946 295.051 67.1723C295.051 67.1723 294.561 70.9596 293.459 72.3023L295.051 71.08C294.874 72.5143 294.253 73.8574 293.275 74.9216C292.297 75.9857 291.011 76.7179 289.597 77.0157C284.551 78.1639 275.124 74.4321 275.124 74.4321H268.244Z" fill="#263238"/>
<path d="M284.486 92.7857C283.938 93.4618 283.439 94.1767 282.995 94.9247C282.856 94.8692 282.708 94.8229 282.569 94.7581C280.643 93.9802 280.004 92.9801 279.883 92.1097C279.835 91.6834 279.889 91.2516 280.041 90.8503C280.119 90.6205 280.228 90.4024 280.365 90.2021C281.344 91.2088 282.524 91.9976 283.828 92.5171C284.226 92.6931 284.486 92.7857 284.486 92.7857Z" fill="#263238"/>
<path d="M283.828 92.5171L283.374 93.1283C281.522 92.3968 280.384 91.6282 280.041 90.8503C280.119 90.6205 280.228 90.4024 280.365 90.2021C281.344 91.2088 282.524 91.9976 283.828 92.5171Z" fill="white"/>
<path d="M282.569 94.7577C280.643 93.9799 280.004 92.9798 279.883 92.1094C280.612 92.4173 281.28 92.8532 281.856 93.3965C282.225 93.7681 282.474 94.2426 282.569 94.7577V94.7577Z" fill="#DE5753"/>
<defs>
<linearGradient id="paint0_linear" x1="318.337" y1="109.395" x2="318.345" y2="145.993" gradientUnits="userSpaceOnUse">
<stop stop-color="#FF8B94" stop-opacity="0.7"/>
<stop offset="1" stop-color="#FFD3B6" stop-opacity="0.7"/>
</linearGradient>
<linearGradient id="paint1_linear" x1="301.441" y1="321.922" x2="301.443" y2="332.906" gradientUnits="userSpaceOnUse">
<stop stop-color="#FF8B94" stop-opacity="0.7"/>
<stop offset="1" stop-color="#FFD3B6" stop-opacity="0.7"/>
</linearGradient>
<linearGradient id="paint2_linear" x1="339.463" y1="324.275" x2="339.464" y2="334.369" gradientUnits="userSpaceOnUse">
<stop stop-color="#FF8B94" stop-opacity="0.7"/>
<stop offset="1" stop-color="#FFD3B6" stop-opacity="0.7"/>
</linearGradient>
<linearGradient id="paint3_linear" x1="349.811" y1="129.877" x2="349.826" y2="177.413" gradientUnits="userSpaceOnUse">
<stop stop-color="#FF8B94" stop-opacity="0.7"/>
<stop offset="1" stop-color="#FFD3B6" stop-opacity="0.7"/>
</linearGradient>
<linearGradient id="paint4_linear" x1="352.242" y1="131.457" x2="352.243" y2="139.291" gradientUnits="userSpaceOnUse">
<stop stop-color="#FF8B94" stop-opacity="0.7"/>
<stop offset="1" stop-color="#FFD3B6" stop-opacity="0.7"/>
</linearGradient>
<linearGradient id="paint5_linear" x1="349.418" y1="139.859" x2="349.419" y2="150.568" gradientUnits="userSpaceOnUse">
<stop stop-color="#FF8B94" stop-opacity="0.7"/>
<stop offset="1" stop-color="#FFD3B6" stop-opacity="0.7"/>
</linearGradient>
<linearGradient id="paint6_linear" x1="347.092" y1="148.566" x2="347.093" y2="158.79" gradientUnits="userSpaceOnUse">
<stop stop-color="#FF8B94" stop-opacity="0.7"/>
<stop offset="1" stop-color="#FFD3B6" stop-opacity="0.7"/>
</linearGradient>
<linearGradient id="paint7_linear" x1="345.108" y1="157.287" x2="345.109" y2="167.199" gradientUnits="userSpaceOnUse">
<stop stop-color="#FF8B94" stop-opacity="0.7"/>
<stop offset="1" stop-color="#FFD3B6" stop-opacity="0.7"/>
</linearGradient>
<linearGradient id="paint8_linear" x1="343.647" y1="166.033" x2="343.648" y2="175.755" gradientUnits="userSpaceOnUse">
<stop stop-color="#FF8B94" stop-opacity="0.7"/>
<stop offset="1" stop-color="#FFD3B6" stop-opacity="0.7"/>
</linearGradient>
<linearGradient id="paint9_linear" x1="377.212" y1="137.713" x2="377.228" y2="175.749" gradientUnits="userSpaceOnUse">
<stop stop-color="#FF8B94" stop-opacity="0.7"/>
<stop offset="1" stop-color="#FFD3B6" stop-opacity="0.7"/>
</linearGradient>
<linearGradient id="paint10_linear" x1="112.204" y1="325.459" x2="112.204" y2="327.366" gradientUnits="userSpaceOnUse">
<stop stop-color="#FF8B94" stop-opacity="0.7"/>
<stop offset="1" stop-color="#FFD3B6" stop-opacity="0.7"/>
</linearGradient>
<linearGradient id="paint11_linear" x1="111.465" y1="323.778" x2="111.466" y2="327.128" gradientUnits="userSpaceOnUse">
<stop stop-color="#FF8B94" stop-opacity="0.7"/>
<stop offset="1" stop-color="#FFD3B6" stop-opacity="0.7"/>
</linearGradient>
<linearGradient id="paint12_linear" x1="149.707" y1="325.247" x2="149.707" y2="327.153" gradientUnits="userSpaceOnUse">
<stop stop-color="#FF8B94" stop-opacity="0.7"/>
<stop offset="1" stop-color="#FFD3B6" stop-opacity="0.7"/>
</linearGradient>
<linearGradient id="paint13_linear" x1="148.968" y1="323.528" x2="148.969" y2="326.878" gradientUnits="userSpaceOnUse">
<stop stop-color="#FF8B94" stop-opacity="0.7"/>
<stop offset="1" stop-color="#FFD3B6" stop-opacity="0.7"/>
</linearGradient>
<linearGradient id="paint14_linear" x1="126.411" y1="158.236" x2="126.537" y2="317.266" gradientUnits="userSpaceOnUse">
<stop stop-color="#FF8B94" stop-opacity="0.7"/>
<stop offset="1" stop-color="#FFD3B6" stop-opacity="0.7"/>
</linearGradient>
<linearGradient id="paint15_linear" x1="144.757" y1="312.434" x2="144.758" y2="319.498" gradientUnits="userSpaceOnUse">
<stop stop-color="#FF8B94" stop-opacity="0.7"/>
<stop offset="1" stop-color="#FFD3B6" stop-opacity="0.7"/>
</linearGradient>
<linearGradient id="paint16_linear" x1="106.579" y1="312.241" x2="106.58" y2="317.368" gradientUnits="userSpaceOnUse">
<stop stop-color="#FF8B94" stop-opacity="0.7"/>
<stop offset="1" stop-color="#FFD3B6" stop-opacity="0.7"/>
</linearGradient>
<linearGradient id="paint17_linear" x1="118.918" y1="54.129" x2="118.921" y2="70.2278" gradientUnits="userSpaceOnUse">
<stop stop-color="#FF8B94" stop-opacity="0.7"/>
<stop offset="1" stop-color="#FFD3B6" stop-opacity="0.7"/>
</linearGradient>
<linearGradient id="paint18_linear" x1="123.207" y1="56.9274" x2="123.208" y2="70.2277" gradientUnits="userSpaceOnUse">
<stop stop-color="#FF8B94" stop-opacity="0.7"/>
<stop offset="1" stop-color="#FFD3B6" stop-opacity="0.7"/>
</linearGradient>
<linearGradient id="paint19_linear" x1="178.276" y1="318.537" x2="178.277" y2="322.831" gradientUnits="userSpaceOnUse">
<stop stop-color="#FF8B94" stop-opacity="0.7"/>
<stop offset="1" stop-color="#FFD3B6" stop-opacity="0.7"/>
</linearGradient>
<linearGradient id="paint20_linear" x1="198.822" y1="322.627" x2="198.823" y2="326.418" gradientUnits="userSpaceOnUse">
<stop stop-color="#FF8B94" stop-opacity="0.7"/>
<stop offset="1" stop-color="#FFD3B6" stop-opacity="0.7"/>
</linearGradient>
<linearGradient id="paint21_linear" x1="206.658" y1="184.519" x2="206.672" y2="223.832" gradientUnits="userSpaceOnUse">
<stop stop-color="#FF8B94" stop-opacity="0.7"/>
<stop offset="1" stop-color="#FFD3B6" stop-opacity="0.7"/>
</linearGradient>
<linearGradient id="paint22_linear" x1="192.119" y1="168.794" x2="192.145" y2="227.926" gradientUnits="userSpaceOnUse">
<stop stop-color="#FF8B94" stop-opacity="0.7"/>
<stop offset="1" stop-color="#FFD3B6" stop-opacity="0.7"/>
</linearGradient>
<linearGradient id="paint23_linear" x1="193.043" y1="167.298" x2="193.043" y2="174.541" gradientUnits="userSpaceOnUse">
<stop stop-color="#FF8B94" stop-opacity="0.7"/>
<stop offset="1" stop-color="#FFD3B6" stop-opacity="0.7"/>
</linearGradient>
<linearGradient id="paint24_linear" x1="187.854" y1="168.5" x2="188.239" y2="175.829" gradientUnits="userSpaceOnUse">
<stop stop-color="#FF8B94" stop-opacity="0.7"/>
<stop offset="1" stop-color="#FFD3B6" stop-opacity="0.7"/>
</linearGradient>
<linearGradient id="paint25_linear" x1="205.134" y1="166.61" x2="205.52" y2="173.938" gradientUnits="userSpaceOnUse">
<stop stop-color="#FF8B94" stop-opacity="0.7"/>
<stop offset="1" stop-color="#FFD3B6" stop-opacity="0.7"/>
</linearGradient>
<linearGradient id="paint26_linear" x1="184.824" y1="226.368" x2="184.825" y2="230.194" gradientUnits="userSpaceOnUse">
<stop stop-color="#FF8B94" stop-opacity="0.7"/>
<stop offset="1" stop-color="#FFD3B6" stop-opacity="0.7"/>
</linearGradient>
<linearGradient id="paint27_linear" x1="211.15" y1="212.092" x2="211.152" y2="225.583" gradientUnits="userSpaceOnUse">
<stop stop-color="#FF8B94" stop-opacity="0.7"/>
<stop offset="1" stop-color="#FFD3B6" stop-opacity="0.7"/>
</linearGradient>
<linearGradient id="paint28_linear" x1="241.059" y1="104.755" x2="241.072" y2="147.415" gradientUnits="userSpaceOnUse">
<stop stop-color="#FF8B94" stop-opacity="0.7"/>
<stop offset="1" stop-color="#FFD3B6" stop-opacity="0.7"/>
</linearGradient>
<linearGradient id="paint29_linear" x1="282.699" y1="325.46" x2="282.699" y2="327.366" gradientUnits="userSpaceOnUse">
<stop stop-color="#FF8B94" stop-opacity="0.7"/>
<stop offset="1" stop-color="#FFD3B6" stop-opacity="0.7"/>
</linearGradient>
<linearGradient id="paint30_linear" x1="283.44" y1="323.778" x2="283.441" y2="327.128" gradientUnits="userSpaceOnUse">
<stop stop-color="#FF8B94" stop-opacity="0.7"/>
<stop offset="1" stop-color="#FFD3B6" stop-opacity="0.7"/>
</linearGradient>
<linearGradient id="paint31_linear" x1="245.196" y1="325.228" x2="245.196" y2="327.135" gradientUnits="userSpaceOnUse">
<stop stop-color="#FF8B94" stop-opacity="0.7"/>
<stop offset="1" stop-color="#FFD3B6" stop-opacity="0.7"/>
</linearGradient>
<linearGradient id="paint32_linear" x1="245.937" y1="323.556" x2="245.939" y2="326.906" gradientUnits="userSpaceOnUse">
<stop stop-color="#FF8B94" stop-opacity="0.7"/>
<stop offset="1" stop-color="#FFD3B6" stop-opacity="0.7"/>
</linearGradient>
<linearGradient id="paint33_linear" x1="250.108" y1="312.435" x2="250.109" y2="319.498" gradientUnits="userSpaceOnUse">
<stop stop-color="#FF8B94" stop-opacity="0.7"/>
<stop offset="1" stop-color="#FFD3B6" stop-opacity="0.7"/>
</linearGradient>
<linearGradient id="paint34_linear" x1="288.288" y1="312.242" x2="288.289" y2="317.369" gradientUnits="userSpaceOnUse">
<stop stop-color="#FF8B94" stop-opacity="0.7"/>
<stop offset="1" stop-color="#FFD3B6" stop-opacity="0.7"/>
</linearGradient>
<linearGradient id="paint35_linear" x1="272.385" y1="103.453" x2="272.416" y2="176.776" gradientUnits="userSpaceOnUse">
<stop stop-color="#FF8B94" stop-opacity="0.7"/>
<stop offset="1" stop-color="#FFD3B6" stop-opacity="0.7"/>
</linearGradient>
<linearGradient id="paint36_linear" x1="307.803" y1="107.64" x2="307.825" y2="159.448" gradientUnits="userSpaceOnUse">
<stop stop-color="#FF8B94" stop-opacity="0.7"/>
<stop offset="1" stop-color="#FFD3B6" stop-opacity="0.7"/>
</linearGradient>
</defs>
</svg>
