<svg width="463" height="377" viewBox="0 0 463 377" fill="none" xmlns="http://www.w3.org/2000/svg">
<path d="M338.083 80.974C308.136 63.6949 267.614 60.4353 233.88 68.3249C216.906 72.2789 204.248 80.8073 189.571 88.9098C169.013 100.253 153.735 98.8551 130.825 99.8922C64.1533 102.939 44.4665 164.925 51.1893 208.095C59.3658 260.59 108.268 302.464 167.226 307.529C206.933 310.937 243.677 305.983 274.948 289.87C299.367 277.295 302.32 257.034 306.515 233.588C309.728 215.679 311.858 195.687 323.396 180.288C333.943 166.212 348.982 174.583 362.288 165.027C396.328 140.664 363.307 95.577 338.083 80.974Z" fill="#FF8B94"/>
<path opacity="0.9" d="M338.083 80.974C308.136 63.6949 267.614 60.4353 233.88 68.3249C216.906 72.2789 204.248 80.8073 189.571 88.9098C169.013 100.253 153.735 98.8551 130.825 99.8922C64.1533 102.939 44.4665 164.925 51.1893 208.095C59.3658 260.59 108.268 302.464 167.226 307.529C206.933 310.937 243.677 305.983 274.948 289.87C299.367 277.295 302.32 257.034 306.515 233.588C309.728 215.679 311.858 195.687 323.396 180.288C333.943 166.212 348.982 174.583 362.288 165.027C396.328 140.664 363.307 95.577 338.083 80.974Z" fill="white"/>
<path d="M251.696 367.692L244.76 364.83L250.344 348.042L257.28 350.903L251.696 367.692Z" fill="#FFE5C9"/>
<path d="M318.952 368.256H311.386L310.719 350.746H318.285L318.952 368.256Z" fill="#FFE5C9"/>
<path d="M310.423 367.423H319.683C319.83 367.424 319.973 367.477 320.086 367.571C320.199 367.666 320.276 367.797 320.303 367.941L321.48 374.664C321.505 374.831 321.494 375.002 321.447 375.165C321.4 375.327 321.318 375.478 321.207 375.605C321.096 375.733 320.958 375.835 320.804 375.905C320.65 375.974 320.482 376.009 320.313 376.007C317.35 375.961 315.192 375.785 311.46 375.785C309.154 375.785 304.413 376.025 301.274 376.025C298.135 376.025 297.829 372.886 299.144 372.599C305.024 371.321 307.302 369.571 309.247 367.895C309.574 367.608 309.989 367.442 310.423 367.423Z" fill="#263238"/>
<path d="M244.334 363.395L251.974 366.534C252.115 366.595 252.233 366.7 252.31 366.834C252.387 366.967 252.418 367.122 252.4 367.275L251.585 374.211C251.571 374.374 251.518 374.532 251.431 374.671C251.344 374.81 251.224 374.926 251.083 375.01C250.941 375.093 250.782 375.142 250.618 375.151C250.454 375.16 250.29 375.13 250.14 375.063C247.409 373.887 243.482 372.081 240.019 370.655C235.963 368.997 234.213 368.534 229.472 366.58C226.601 365.395 226.824 362.099 228.12 362.321C234.019 363.349 236.704 364.302 242.464 363.247C243.089 363.119 243.737 363.17 244.334 363.395V363.395Z" fill="#263238"/>
<path d="M291.144 145.183C290.162 146.109 289.292 146.794 288.366 147.535C287.44 148.276 286.514 148.989 285.588 149.702C283.736 151.128 281.763 152.434 279.772 153.711C277.781 154.989 275.707 156.156 273.605 157.277C271.448 158.387 269.235 159.385 266.975 160.268C265.836 160.721 264.642 161.092 263.456 161.471C262.91 161.666 262.132 161.842 261.447 162.008C260.711 162.167 259.965 162.279 259.215 162.342C256.002 162.691 252.76 162.013 249.955 160.406C248.627 159.63 247.428 158.652 246.399 157.508C245.449 156.459 244.628 155.299 243.955 154.054C243.32 152.893 242.796 151.674 242.39 150.415C242.186 149.794 242.029 149.174 241.88 148.563C241.732 147.952 241.64 147.359 241.519 146.572L247.057 145.183L247.742 146.368C247.992 146.785 248.261 147.202 248.529 147.6C249.046 148.372 249.622 149.103 250.251 149.785C250.811 150.399 251.432 150.954 252.103 151.443C252.69 151.838 253.329 152.15 254.002 152.369C255.241 152.736 256.559 152.736 257.798 152.369C258.141 152.295 258.502 152.156 258.863 152.054C259.224 151.952 259.548 151.804 260.049 151.591C260.975 151.202 261.901 150.841 262.78 150.378C266.504 148.569 270.077 146.467 273.466 144.09C275.216 142.914 276.92 141.664 278.624 140.386C279.476 139.757 280.319 139.108 281.143 138.451L283.523 136.534L291.144 145.183Z" fill="#FFE5C9"/>
<path d="M295.598 143.062C292.366 149.692 280.087 155.156 280.087 155.156L275.457 140.34C275.457 140.34 277.439 137.654 282.476 135.247C294.366 129.58 299.95 134.126 295.598 143.062Z" fill="#263238"/>
<path opacity="0.2" d="M287.856 142.784C285.115 145.648 282.938 149.003 281.439 152.674C281.149 153.394 280.899 154.13 280.689 154.878C282.541 153.952 288.477 150.989 292.486 147.127L292.792 145.34C292.89 144.732 292.793 144.109 292.516 143.559C292.239 143.009 291.795 142.561 291.248 142.277C290.702 141.994 290.079 141.891 289.47 141.982C288.861 142.073 288.297 142.354 287.856 142.784V142.784Z" fill="black"/>
<path d="M248.826 148.59L244.696 139.719L239.63 148.118C239.63 148.118 242.103 153.202 247.187 151.424L248.826 148.59Z" fill="#FFE5C9"/>
<path d="M238.454 135.756L235.019 142.09L239.63 148.118L244.695 139.719L238.454 135.756Z" fill="#FFE5C9"/>
<path opacity="0.2" d="M250.344 348.051L247.464 356.7L254.409 359.561L257.289 350.912L250.344 348.051Z" fill="black"/>
<path opacity="0.2" d="M318.285 350.746H310.719L311.071 359.774H318.637L318.285 350.746Z" fill="black"/>
<path d="M285.986 137.562C282.722 157.646 281.269 177.982 281.643 198.326L321.748 203.586C322.443 197.696 323.452 170.62 328.165 142.22C328.554 139.886 328.675 138.099 326.387 137.442C323.859 136.71 318.905 135.34 315.562 134.728C309.927 133.658 304.235 132.913 298.515 132.497C296.171 132.416 293.826 132.457 291.486 132.617C290.147 132.704 288.876 133.239 287.879 134.136C286.881 135.033 286.214 136.24 285.986 137.562Z" fill="#263238"/>
<path d="M315.562 134.728C309.924 133.657 304.229 132.912 298.505 132.497C297.274 132.45 296.061 132.45 294.903 132.497L296.107 134.219C297.562 136.431 298.711 138.829 299.524 141.349V141.349C299.571 141.503 299.649 141.645 299.752 141.768C299.856 141.89 299.984 141.99 300.128 142.061C300.272 142.133 300.429 142.173 300.59 142.182C300.75 142.19 300.911 142.165 301.061 142.109L302.858 141.423C305.821 140.303 310.738 138.988 313.72 138.238C315.502 137.786 317.255 137.226 318.97 136.562L320.674 135.914C318.896 135.432 317.062 134.997 315.562 134.728Z" fill="white"/>
<path opacity="0.2" d="M316.461 150.739C314.705 155.367 314.282 160.393 315.238 165.249C315.374 165.996 315.797 166.66 316.417 167.098C317.037 167.536 317.804 167.714 318.553 167.592L321.804 167.083C322.407 166.987 322.965 166.703 323.398 166.273C323.832 165.843 324.119 165.287 324.22 164.685L327.804 143.387C327.905 142.779 327.812 142.154 327.536 141.603C327.26 141.051 326.817 140.601 326.27 140.317C325.723 140.034 325.1 139.93 324.49 140.023C323.881 140.115 323.316 140.398 322.878 140.831C320.128 143.695 317.95 147.058 316.461 150.739Z" fill="black"/>
<path d="M315.275 115.162L304.163 122.792C304.923 127.228 304.747 131.821 298.515 132.497C299.636 134.108 300.612 135.815 301.432 137.599C301.543 137.877 301.758 138.101 302.03 138.225C302.302 138.349 302.612 138.363 302.895 138.266C307.765 136.571 315.572 134.728 315.572 134.728C311.988 130.534 313.803 120.551 315.275 115.162Z" fill="#FFE5C9"/>
<path opacity="0.2" d="M310.738 118.329L304.163 122.838C304.35 123.868 304.453 124.912 304.469 125.959C306.83 125.959 310.229 123.764 310.655 121.329C310.864 120.342 310.892 119.325 310.738 118.329V118.329Z" fill="black"/>
<path d="M304.469 93.9382C299.191 96.4662 296.394 108.467 303.913 105.782C311.432 103.096 310.21 91.188 304.469 93.9382Z" fill="#263238"/>
<path d="M321.517 107.661C319.211 114.708 317.081 119.977 312.479 122.477C305.562 126.283 297.524 120.144 297.663 112.421C297.792 105.467 302.682 94.1045 310.488 93.4934C312.253 93.3856 314.018 93.7096 315.629 94.4374C317.241 95.1652 318.651 96.2748 319.737 97.6702C320.823 99.0655 321.553 100.705 321.863 102.445C322.173 104.186 322.054 105.977 321.517 107.661V107.661Z" fill="#FFE5C9"/>
<path d="M316.007 106.032C317.368 104.291 322.23 99.9293 317.581 100.383C312.932 100.837 303.839 99.244 301.154 93.8177C298.468 88.3913 305.071 88.7339 306.441 90.8267C305.969 87.845 307.932 85.6226 310.293 86.706C311.732 87.4027 312.845 88.6312 313.395 90.1322C313.395 90.1322 314.025 85.141 317.47 87.7616C319.533 89.3571 321.116 91.4912 322.044 93.9288C322.044 93.9288 332.851 98.5588 327.221 102.578C332.156 103.504 330.925 112.94 318.887 114.199C312.858 113.143 313.988 108.606 316.007 106.032Z" fill="#263238"/>
<path d="M328.11 102.892C327.531 102.934 326.95 102.84 326.414 102.616C325.879 102.392 325.403 102.046 325.026 101.605C325.002 101.552 324.996 101.493 325.011 101.437C325.026 101.38 325.06 101.331 325.107 101.297C325.154 101.263 325.211 101.247 325.269 101.251C325.327 101.254 325.382 101.278 325.424 101.318C326.183 102.401 327.943 102.577 329.249 102.244C330.082 102.059 330.499 101.735 330.536 101.512C330.573 101.29 330.323 101.142 330.165 101.04C330.138 101.023 330.115 101.001 330.097 100.975C330.079 100.949 330.066 100.92 330.059 100.889C330.052 100.858 330.051 100.826 330.057 100.795C330.062 100.763 330.074 100.733 330.091 100.707C330.107 100.679 330.129 100.655 330.155 100.636C330.18 100.617 330.209 100.603 330.24 100.595C330.271 100.587 330.304 100.586 330.335 100.591C330.367 100.596 330.397 100.607 330.425 100.623C330.989 100.984 331.064 101.355 331.017 101.549C330.934 102.04 330.313 102.475 329.36 102.679C328.952 102.794 328.533 102.865 328.11 102.892V102.892Z" fill="#263238"/>
<path d="M322.146 115.208C320.945 116.601 319.261 117.488 317.433 117.69C314.97 117.958 314.155 115.838 315.192 113.828C316.118 112.041 318.516 109.754 320.813 110.411C321.3 110.539 321.746 110.792 322.105 111.146C322.464 111.499 322.724 111.941 322.859 112.426C322.994 112.912 322.999 113.424 322.874 113.912C322.749 114.4 322.498 114.847 322.146 115.208V115.208Z" fill="#FFE5C9"/>
<path d="M281.643 198.326C281.643 198.326 269.031 251.858 263.91 274.443C258.502 297.973 245.39 353.968 245.39 353.968L257.243 358.839C257.243 358.839 270.633 313.465 277.828 291C285.68 266.526 306.534 221.55 307.988 201.78L281.643 198.326Z" fill="url(#paint0_linear)"/>
<path opacity="0.2" d="M293.403 249.663C297.7 238.551 301.839 227.439 304.617 217.911C294.718 213.207 292.616 231.467 293.403 249.663Z" fill="black"/>
<path d="M298.58 200.548C298.58 200.548 296.959 260.053 299.154 282.407C301.561 306.881 307.488 358.024 307.488 358.024H321.378C321.378 358.024 319.581 308.02 319.331 284.157C319.063 258.229 320.387 222.522 321.767 203.595L298.58 200.548Z" fill="url(#paint1_linear)"/>
<path d="M307.302 358.33H322.415V353.135H305.626L307.302 358.33Z" fill="url(#paint2_linear)"/>
<path opacity="0.4" d="M307.302 358.33H322.415V353.135H305.626L307.302 358.33Z" fill="black"/>
<path d="M243.871 353.672L258.113 359.58L260.382 355.117L244.946 348.496L243.871 353.672Z" fill="url(#paint3_linear)"/>
<path opacity="0.4" d="M243.871 353.672L258.113 359.58L260.382 355.117L244.946 348.496L243.871 353.672Z" fill="black"/>
<path d="M308.932 107.217C308.775 107.8 308.34 108.143 307.96 108.05C307.58 107.957 307.386 107.355 307.543 106.772C307.701 106.189 308.127 105.846 308.469 105.929C308.812 106.013 309.08 106.605 308.932 107.217Z" fill="#263238"/>
<path d="M302.293 105.069C302.144 105.652 301.709 105.995 301.32 105.902C300.931 105.81 300.755 105.208 300.904 104.624C301.052 104.041 301.487 103.698 301.876 103.791C302.265 103.883 302.45 104.485 302.293 105.069Z" fill="#263238"/>
<path d="M304.33 106.031C303.168 107.595 301.782 108.98 300.219 110.143C300.539 110.553 300.942 110.891 301.401 111.135C301.861 111.379 302.366 111.524 302.885 111.559L304.33 106.031Z" fill="#FF5652"/>
<path d="M304.182 113.699C304.947 113.985 305.773 114.074 306.582 113.958C307.391 113.841 308.158 113.523 308.812 113.032C308.828 113.016 308.841 112.996 308.85 112.975C308.859 112.953 308.864 112.93 308.864 112.907C308.864 112.884 308.859 112.861 308.85 112.839C308.841 112.818 308.828 112.798 308.812 112.782C308.796 112.764 308.777 112.75 308.755 112.74C308.734 112.731 308.71 112.726 308.687 112.726C308.663 112.726 308.64 112.731 308.618 112.74C308.597 112.75 308.577 112.764 308.562 112.782C307.952 113.221 307.245 113.505 306.502 113.61C305.758 113.715 305 113.637 304.293 113.384C304.272 113.375 304.249 113.371 304.226 113.372C304.203 113.374 304.181 113.38 304.161 113.39C304.14 113.401 304.123 113.416 304.109 113.434C304.095 113.452 304.085 113.473 304.08 113.495C304.073 113.535 304.08 113.577 304.098 113.613C304.116 113.65 304.146 113.68 304.182 113.699Z" fill="#263238"/>
<path d="M312.22 104.337C312.294 104.365 312.376 104.365 312.451 104.337C312.496 104.323 312.537 104.299 312.572 104.268C312.608 104.237 312.636 104.199 312.656 104.157C312.676 104.114 312.687 104.068 312.689 104.021C312.69 103.974 312.682 103.927 312.664 103.883C312.489 103.328 312.19 102.82 311.788 102.398C311.387 101.976 310.895 101.651 310.349 101.448C310.304 101.434 310.257 101.43 310.21 101.435C310.163 101.44 310.118 101.455 310.077 101.478C310.036 101.502 310.001 101.533 309.972 101.571C309.944 101.609 309.924 101.652 309.914 101.698C309.894 101.792 309.91 101.891 309.96 101.973C310.01 102.056 310.09 102.116 310.182 102.142V102.142C310.619 102.307 311.012 102.568 311.333 102.907C311.654 103.245 311.894 103.652 312.034 104.096C312.046 104.147 312.069 104.195 312.101 104.237C312.133 104.278 312.173 104.312 312.22 104.337V104.337Z" fill="#263238"/>
<path d="M300.654 101.253C300.716 101.276 300.784 101.279 300.848 101.262C300.913 101.246 300.971 101.211 301.015 101.161C301.3 100.827 301.662 100.568 302.071 100.406C302.479 100.245 302.921 100.186 303.358 100.235C303.403 100.244 303.449 100.244 303.495 100.234C303.54 100.225 303.582 100.206 303.62 100.179C303.657 100.152 303.689 100.117 303.712 100.078C303.735 100.038 303.75 99.9936 303.756 99.9478C303.765 99.853 303.738 99.7582 303.682 99.6814C303.626 99.6046 303.543 99.5511 303.45 99.5311C302.898 99.4556 302.335 99.5203 301.814 99.7193C301.293 99.9184 300.83 100.245 300.468 100.67C300.401 100.738 300.363 100.829 300.363 100.925C300.363 101.02 300.401 101.112 300.468 101.179C300.518 101.227 300.585 101.253 300.654 101.253Z" fill="#263238"/>
<path d="M332.091 146.164C331.943 147.85 331.758 149.294 331.517 150.794C331.277 152.295 331.027 153.822 330.739 155.332C330.156 158.332 329.443 161.332 328.554 164.314C327.669 167.342 326.586 170.308 325.313 173.194C323.992 176.265 322.307 179.165 320.294 181.834L319.887 182.352L319.674 182.612L319.313 183.047C318.814 183.596 318.255 184.087 317.646 184.51C316.687 185.176 315.644 185.712 314.544 186.103C312.82 186.69 311.038 187.088 309.228 187.288C306.073 187.629 302.895 187.7 299.728 187.501C293.693 187.127 287.702 186.238 281.819 184.843L282.569 179.223C285.402 179.223 288.319 179.223 291.171 179.176C294.024 179.13 296.885 179.028 299.663 178.815C302.345 178.649 305.012 178.297 307.645 177.76C308.733 177.543 309.793 177.201 310.803 176.741C311.082 176.626 311.339 176.463 311.562 176.259C311.608 176.259 311.562 176.204 311.562 176.259C311.562 176.315 311.497 176.333 311.562 176.259L311.682 176.074L311.923 175.713C313.262 173.584 314.376 171.322 315.247 168.963C316.17 166.45 316.961 163.89 317.618 161.295C318.303 158.638 318.896 155.924 319.414 153.193C319.674 151.822 319.914 150.415 320.127 149.072C320.34 147.729 320.553 146.294 320.702 145.044L332.091 146.164Z" fill="#FFE5C9"/>
<path d="M333.036 142.831C336.74 151.507 330.73 163.601 330.73 163.601L316.368 158.554C316.7 153.415 317.343 148.3 318.294 143.238C319.85 134.617 330.175 136.145 333.036 142.831Z" fill="#263238"/>
<path d="M307.552 368.701C308.215 368.683 308.873 368.593 309.515 368.432C309.549 368.424 309.579 368.405 309.601 368.378C309.622 368.352 309.635 368.319 309.636 368.284C309.64 368.249 309.633 368.213 309.617 368.182C309.6 368.15 309.575 368.125 309.543 368.108C309.265 367.932 306.765 366.432 305.923 366.858C305.834 366.909 305.761 366.984 305.712 367.074C305.663 367.163 305.64 367.265 305.645 367.367C305.638 367.544 305.673 367.72 305.747 367.881C305.821 368.042 305.932 368.183 306.071 368.293C306.507 368.587 307.027 368.73 307.552 368.701V368.701ZM308.978 368.182C308.094 368.47 307.134 368.421 306.284 368.043C306.191 367.963 306.118 367.864 306.07 367.751C306.022 367.639 306 367.517 306.006 367.395C306 367.354 306.007 367.311 306.025 367.273C306.043 367.235 306.072 367.204 306.108 367.182C306.506 366.96 307.96 367.608 308.978 368.182Z" fill="url(#paint4_linear)"/>
<path d="M309.469 368.432C309.503 368.441 309.538 368.441 309.571 368.432C309.595 368.412 309.614 368.386 309.625 368.357C309.636 368.328 309.64 368.296 309.636 368.265C309.636 368.173 309.321 365.997 308.395 365.274C308.289 365.187 308.166 365.121 308.034 365.081C307.902 365.041 307.764 365.028 307.627 365.043C307.494 365.044 307.366 365.091 307.266 365.178C307.166 365.265 307.1 365.384 307.08 365.515C306.969 366.358 308.58 368.015 309.386 368.441L309.469 368.432ZM307.765 365.367C307.921 365.372 308.07 365.427 308.191 365.524C308.752 366.201 309.109 367.023 309.219 367.895C308.404 367.302 307.367 366.043 307.432 365.552C307.432 365.506 307.432 365.404 307.691 365.376L307.765 365.367Z" fill="url(#paint5_linear)"/>
<path d="M241.001 363.45C241.739 363.743 242.506 363.961 243.288 364.099C243.322 364.107 243.358 364.103 243.39 364.087C243.422 364.072 243.448 364.047 243.464 364.015C243.486 363.984 243.498 363.947 243.498 363.909C243.498 363.871 243.486 363.834 243.464 363.802C243.205 363.506 240.899 360.885 239.88 361.024C239.786 361.036 239.696 361.074 239.621 361.132C239.546 361.191 239.489 361.269 239.454 361.358C239.383 361.502 239.346 361.66 239.346 361.821C239.346 361.981 239.383 362.14 239.454 362.284C239.825 362.835 240.369 363.246 241.001 363.45V363.45ZM242.853 363.636C241.214 363.265 240.075 362.71 239.797 362.154C239.747 362.057 239.72 361.949 239.72 361.839C239.72 361.73 239.747 361.622 239.797 361.524C239.81 361.488 239.832 361.457 239.861 361.432C239.891 361.408 239.926 361.392 239.964 361.386C240.464 361.311 241.853 362.589 242.816 363.636H242.853Z" fill="url(#paint6_linear)"/>
<path d="M243.251 364.089C243.287 364.103 243.326 364.103 243.362 364.089C243.391 364.079 243.418 364.062 243.439 364.039C243.46 364.017 243.475 363.989 243.483 363.959C243.483 363.876 243.973 361.876 243.344 360.755C243.171 360.434 242.878 360.194 242.529 360.089C242.056 359.95 241.844 360.135 241.751 360.311C241.343 361.07 242.473 363.302 243.186 364.015L243.251 364.089ZM242.547 360.487C242.761 360.577 242.937 360.737 243.047 360.941C243.349 361.771 243.404 362.672 243.205 363.533C242.529 362.607 241.806 360.959 242.056 360.505C242.056 360.505 242.14 360.357 242.445 360.45L242.547 360.487Z" fill="url(#paint7_linear)"/>
<path d="M82.8493 142.887L82.0159 142.553C82.9419 140.247 83.9697 137.923 85.0624 135.747L85.8773 136.145C84.7939 138.34 83.7753 140.609 82.8493 142.887Z" fill="url(#paint8_linear)"/>
<path d="M76.6728 165.722L75.7468 165.592C76.6316 159.598 78.0604 153.696 80.0157 147.961L80.8769 148.257C78.9478 153.939 77.5406 159.785 76.6728 165.722V165.722Z" fill="url(#paint9_linear)"/>
<path d="M244.569 249.264C282.699 211.134 282.699 149.314 244.569 111.184C206.439 73.0542 144.618 73.0542 106.489 111.184C68.3588 149.314 68.3588 211.134 106.489 249.264C144.618 287.394 206.439 287.394 244.569 249.264Z" fill="url(#paint10_linear)"/>
<path opacity="0.07" d="M181.014 233.125C221.524 233.125 254.363 200.286 254.363 159.777C254.363 119.267 221.524 86.4282 181.014 86.4282C140.505 86.4282 107.666 119.267 107.666 159.777C107.666 200.286 140.505 233.125 181.014 233.125Z" fill="white"/>
<path d="M220.027 123.644C219.888 126.422 216.517 128.58 212.498 128.376C208.48 128.172 205.341 125.728 205.489 122.903C205.637 120.079 208.998 117.977 213.017 118.181C217.036 118.384 220.175 120.829 220.027 123.644Z" fill="#263238"/>
<path d="M144.984 128.274C145.521 131.052 142.752 133.904 138.807 134.673C134.863 135.442 131.224 133.821 130.686 131.052C130.149 128.284 132.909 125.413 136.863 124.644C140.817 123.876 144.456 125.506 144.984 128.274Z" fill="#263238"/>
<path d="M135.631 149.452C143.195 149.452 149.327 147.167 149.327 144.349C149.327 141.531 143.195 139.247 135.631 139.247C128.067 139.247 121.936 141.531 121.936 144.349C121.936 147.167 128.067 149.452 135.631 149.452Z" fill="url(#paint11_linear)"/>
<path d="M232.426 133.821C232.843 136.506 227.342 139.599 220.147 140.729C212.952 141.858 206.767 140.59 206.341 137.904C205.915 135.219 211.424 132.135 218.619 131.006C225.814 129.876 232.028 131.135 232.426 133.821Z" fill="url(#paint12_linear)"/>
<path d="M157.772 150.341C164.828 148.137 183.292 143.266 203.822 145.127C204.125 145.16 204.419 145.254 204.686 145.403C204.952 145.551 205.186 145.752 205.374 145.993C205.561 146.234 205.698 146.511 205.777 146.806C205.856 147.101 205.874 147.408 205.831 147.711C203.553 165.601 170.477 169.268 156.753 153.97C156.504 153.69 156.33 153.351 156.245 152.985C156.161 152.62 156.17 152.239 156.272 151.877C156.373 151.516 156.564 151.186 156.826 150.918C157.088 150.649 157.413 150.451 157.772 150.341V150.341Z" fill="#263238"/>
<path opacity="0.6" d="M189.413 152.656C188.23 152.997 187.09 153.472 186.015 154.072C183.183 152.882 180.018 152.751 177.098 153.702C172.625 154.998 169.152 158.036 167.958 161.305C174.758 163.744 182.107 164.216 189.163 162.666C194.154 161.555 198.59 159.378 201.637 156.23C200.016 152.656 194.923 151.054 189.413 152.656Z" fill="url(#paint13_linear)"/>
<path d="M284.004 179.648L277.393 175.741L276.874 185.658C276.874 185.658 283.171 187.658 284.458 184.297L284.004 179.648Z" fill="#FFE5C9"/>
<path d="M269.438 176.472L269.429 184.612L276.865 185.658L277.393 175.778L269.438 176.472Z" fill="#FFE5C9"/>
<defs>
<linearGradient id="paint0_linear" x1="276.605" y1="194.274" x2="276.722" y2="358.839" gradientUnits="userSpaceOnUse">
<stop stop-color="#FF8B94" stop-opacity="0.7"/>
<stop offset="1" stop-color="#FFD3B6" stop-opacity="0.7"/>
</linearGradient>
<linearGradient id="paint1_linear" x1="309.853" y1="196.573" x2="310.15" y2="358.023" gradientUnits="userSpaceOnUse">
<stop stop-color="#FF8B94" stop-opacity="0.7"/>
<stop offset="1" stop-color="#FFD3B6" stop-opacity="0.7"/>
</linearGradient>
<linearGradient id="paint2_linear" x1="313.998" y1="353.004" x2="313.998" y2="358.33" gradientUnits="userSpaceOnUse">
<stop stop-color="#FF8B94" stop-opacity="0.7"/>
<stop offset="1" stop-color="#FFD3B6" stop-opacity="0.7"/>
</linearGradient>
<linearGradient id="paint3_linear" x1="252.105" y1="348.216" x2="252.107" y2="359.58" gradientUnits="userSpaceOnUse">
<stop stop-color="#FF8B94" stop-opacity="0.7"/>
<stop offset="1" stop-color="#FFD3B6" stop-opacity="0.7"/>
</linearGradient>
<linearGradient id="paint4_linear" x1="307.635" y1="366.734" x2="307.635" y2="368.705" gradientUnits="userSpaceOnUse">
<stop stop-color="#FF8B94" stop-opacity="0.7"/>
<stop offset="1" stop-color="#FFD3B6" stop-opacity="0.7"/>
</linearGradient>
<linearGradient id="paint5_linear" x1="308.353" y1="364.951" x2="308.354" y2="368.441" gradientUnits="userSpaceOnUse">
<stop stop-color="#FF8B94" stop-opacity="0.7"/>
<stop offset="1" stop-color="#FFD3B6" stop-opacity="0.7"/>
</linearGradient>
<linearGradient id="paint6_linear" x1="241.416" y1="360.941" x2="241.417" y2="364.103" gradientUnits="userSpaceOnUse">
<stop stop-color="#FF8B94" stop-opacity="0.7"/>
<stop offset="1" stop-color="#FFD3B6" stop-opacity="0.7"/>
</linearGradient>
<linearGradient id="paint7_linear" x1="242.662" y1="359.938" x2="242.664" y2="364.099" gradientUnits="userSpaceOnUse">
<stop stop-color="#FF8B94" stop-opacity="0.7"/>
<stop offset="1" stop-color="#FFD3B6" stop-opacity="0.7"/>
</linearGradient>
<linearGradient id="paint8_linear" x1="83.9414" y1="135.567" x2="83.9452" y2="142.887" gradientUnits="userSpaceOnUse">
<stop stop-color="#FF8B94" stop-opacity="0.7"/>
<stop offset="1" stop-color="#FFD3B6" stop-opacity="0.7"/>
</linearGradient>
<linearGradient id="paint9_linear" x1="78.305" y1="147.513" x2="78.3225" y2="165.722" gradientUnits="userSpaceOnUse">
<stop stop-color="#FF8B94" stop-opacity="0.7"/>
<stop offset="1" stop-color="#FFD3B6" stop-opacity="0.7"/>
</linearGradient>
<linearGradient id="paint10_linear" x1="102.818" y1="107.882" x2="244.424" y2="249.409" gradientUnits="userSpaceOnUse">
<stop stop-color="#FF8B94" stop-opacity="0.7"/>
<stop offset="1" stop-color="#FFD3B6" stop-opacity="0.7"/>
</linearGradient>
<linearGradient id="paint11_linear" x1="135.595" y1="138.989" x2="135.596" y2="149.452" gradientUnits="userSpaceOnUse">
<stop stop-color="#FF8B94" stop-opacity="0.7"/>
<stop offset="1" stop-color="#FFD3B6" stop-opacity="0.7"/>
</linearGradient>
<linearGradient id="paint12_linear" x1="219.348" y1="130.325" x2="219.349" y2="141.142" gradientUnits="userSpaceOnUse">
<stop stop-color="#FF8B94" stop-opacity="0.7"/>
<stop offset="1" stop-color="#FFD3B6" stop-opacity="0.7"/>
</linearGradient>
<linearGradient id="paint13_linear" x1="184.752" y1="151.743" x2="184.753" y2="163.56" gradientUnits="userSpaceOnUse">
<stop stop-color="#FF8B94" stop-opacity="0.7"/>
<stop offset="1" stop-color="#FFD3B6" stop-opacity="0.7"/>
</linearGradient>
</defs>
</svg>
