<svg width="463" height="335" viewBox="0 0 463 335" fill="none" xmlns="http://www.w3.org/2000/svg">
<path d="M80.6084 23.4186C-13.075 72.1355 129.844 112.889 164.439 147.447C189.265 172.245 175.079 219.471 214.064 250.233C255.039 282.513 319.322 288.199 353.334 275.411C404.718 256.15 414.005 148.549 337.592 102.582C279.652 67.7092 230.065 106.583 169.912 77.46C132.085 59.1437 131.612 -3.11127 80.6084 23.4186Z" fill="#FF8B94"/>
<path opacity="0.9" d="M80.6084 23.4186C-13.075 72.1355 129.844 112.889 164.439 147.447C189.265 172.245 175.079 219.471 214.064 250.233C255.039 282.513 319.322 288.199 353.334 275.411C404.718 256.15 414.005 148.549 337.592 102.582C279.652 67.7092 230.065 106.583 169.912 77.46C132.085 59.1437 131.612 -3.11127 80.6084 23.4186Z" fill="white"/>
<path d="M342.916 88.8033C345.204 81.3953 321.804 79.71 316.164 93.0166C308.265 111.657 319.785 122.139 319.785 122.139C326.498 118.537 339.629 118 346.806 120.38L342.916 88.8033Z" fill="#263238"/>
<path d="M344.722 326.859L337.499 327.137L337.462 319.331L344.676 319.053L344.722 326.859Z" fill="#FCE0DD"/>
<path d="M337.212 325.646H345.398C345.543 325.647 345.685 325.696 345.8 325.784C345.915 325.873 345.999 325.997 346.037 326.137L347.815 332.619C347.86 332.772 347.869 332.933 347.84 333.089C347.811 333.246 347.746 333.393 347.649 333.519C347.553 333.646 347.428 333.748 347.284 333.816C347.141 333.885 346.983 333.919 346.824 333.916C343.963 333.86 342.574 333.693 338.981 333.693C336.768 333.693 331.064 333.925 328.008 333.925C324.952 333.925 324.396 330.906 325.637 330.638C331.193 329.406 334.36 327.721 336.073 326.109C336.379 325.814 336.787 325.648 337.212 325.646V325.646Z" fill="url(#paint0_linear)"/>
<path opacity="0.2" d="M337.462 319.34L337.481 323.359L344.703 323.396L344.685 319.053L337.462 319.34Z" fill="black"/>
<path d="M320.961 174.847C319.785 183.737 323.794 225.907 327.174 244.297C331.665 268.734 335.916 321.72 335.916 321.72L345.648 321.137C345.648 321.137 346.824 263.049 343.842 243.353C343.648 217.508 344.111 172.245 344.111 172.245L320.961 174.847Z" fill="#263238"/>
<path opacity="0.2" d="M343.889 200.414C343.889 193.858 339.036 188.682 337.823 201.201C337.055 209.174 340.157 222.545 343.796 231.805C343.787 221.721 343.833 210.424 343.889 200.414Z" fill="black"/>
<path d="M387.689 327.665L381.068 327.841L377.947 318.813L384.577 318.637L387.689 327.665Z" fill="#FCE0DD"/>
<path d="M387.531 325.646H379.364C379.299 325.641 379.235 325.651 379.174 325.675C379.114 325.698 379.06 325.735 379.016 325.782C378.971 325.829 378.938 325.885 378.918 325.946C378.898 326.008 378.892 326.073 378.901 326.137L379.503 332.619C379.565 332.97 379.745 333.289 380.012 333.525C380.28 333.76 380.619 333.898 380.975 333.915C383.809 333.86 385.142 333.693 388.735 333.693C390.948 333.693 393.856 333.925 396.911 333.925C399.967 333.925 399.412 330.906 398.078 330.637C392.087 329.406 391.152 327.72 388.818 326.109C388.446 325.829 387.997 325.667 387.531 325.646V325.646Z" fill="url(#paint1_linear)"/>
<path opacity="0.2" d="M377.956 318.822L379.558 323.47L386.318 323.665L384.586 318.637L377.956 318.822Z" fill="black"/>
<path d="M332.073 173.597C332.073 173.597 347.083 228.555 354.621 244.77C359.52 269.818 377.049 322.313 377.049 322.313L387.235 321.609C387.235 321.609 376.123 268.494 369.289 243.825C365.585 220.907 363.168 182.709 352.621 171.282L332.073 173.597Z" fill="#263238"/>
<path d="M317.525 133.974C317.331 138.604 316.933 143.095 316.387 147.641C315.84 152.188 315.173 156.688 314.294 161.198L313.951 162.893L313.766 163.819C313.651 164.365 313.474 164.896 313.238 165.402C312.881 166.198 312.33 166.892 311.636 167.421C310.773 168.053 309.724 168.379 308.654 168.347C307.96 168.32 307.277 168.169 306.636 167.902C306.194 167.718 305.769 167.495 305.367 167.235C304.204 166.443 303.143 165.51 302.209 164.457C301.367 163.531 300.598 162.605 299.867 161.679C297.077 157.981 294.599 154.056 292.459 149.947C292.234 149.514 292.176 149.013 292.297 148.54C292.417 148.066 292.708 147.654 293.112 147.381C293.517 147.108 294.008 146.993 294.492 147.058C294.976 147.123 295.419 147.364 295.737 147.734V147.734C298.589 151.105 301.469 154.559 304.487 157.596C305.228 158.355 305.988 159.087 306.747 159.735C307.377 160.317 308.073 160.824 308.821 161.244C308.941 161.291 309.053 161.346 309.062 161.328C309.071 161.309 309.006 161.263 308.682 161.235C308.18 161.226 307.689 161.382 307.284 161.679C307.027 161.857 306.815 162.091 306.664 162.365C306.608 162.485 306.664 162.365 306.664 162.365L306.775 161.596L307.006 159.957C307.59 155.596 308.053 151.188 308.478 146.78C308.904 142.372 309.229 137.909 309.525 133.557V133.501C309.584 132.442 310.061 131.449 310.852 130.741C311.643 130.033 312.683 129.669 313.743 129.728C314.802 129.787 315.795 130.264 316.503 131.055C317.211 131.846 317.575 132.886 317.516 133.946L317.525 133.974Z" fill="#FCE0DD"/>
<path d="M314.127 127.788C307.256 131.15 308.33 140.058 308.33 140.058L319.322 147.799C319.322 147.799 323.341 138.122 322.507 133.483C321.646 128.714 319.22 125.334 314.127 127.788Z" fill="url(#paint2_linear)"/>
<path opacity="0.2" d="M312.988 135.251C314.599 132.714 317.368 133.325 320.591 135.344C321.34 135.993 321.967 136.771 322.443 137.64C321.752 141.126 320.728 144.536 319.387 147.826L311.636 142.372C311.328 139.916 311.801 137.424 312.988 135.251Z" fill="black"/>
<path d="M296.255 148.994L294.616 142.725L289.06 147.725C289.06 147.725 291.07 151.077 294.301 151.531L296.255 148.994Z" fill="#FCE0DD"/>
<path d="M290.357 140.169L289.227 141.289C288.368 142.129 287.87 143.27 287.837 144.471C287.804 145.672 288.24 146.839 289.051 147.725V147.725L294.607 142.724L293.051 140.437C292.906 140.224 292.715 140.046 292.493 139.914C292.271 139.782 292.023 139.701 291.767 139.675C291.51 139.65 291.251 139.681 291.007 139.766C290.763 139.851 290.541 139.988 290.357 140.169Z" fill="#FCE0DD"/>
<path d="M293.172 140.594C291.768 138.712 290.497 136.735 289.366 134.677C289.014 133.973 287.875 134.955 288.44 135.983C289.005 137.011 290.051 140.363 291.162 141.585C292.273 142.807 293.172 140.594 293.172 140.594Z" fill="#FCE0DD"/>
<path d="M311.58 132.872C313.534 150.762 319.368 163.235 320.961 174.847L352.574 171.31C350.787 159.689 349.88 152.086 352.102 130.566C352.2 129.63 352.102 128.684 351.814 127.788C351.526 126.892 351.055 126.066 350.431 125.363C349.806 124.659 349.042 124.093 348.187 123.7C347.331 123.308 346.404 123.098 345.463 123.084C343.537 123.084 341.407 123.084 339.259 123.223C334.442 123.413 329.645 123.951 324.906 124.834C321.572 125.519 318.025 126.482 315.488 127.223C314.282 127.563 313.231 128.313 312.518 129.344C311.805 130.375 311.473 131.623 311.58 132.872V132.872Z" fill="url(#paint3_linear)"/>
<path d="M324.906 124.815C324.906 124.815 319.831 130.306 327.397 137.779C330.213 132.088 334.266 127.099 339.259 123.176L324.906 124.815Z" fill="white"/>
<path d="M336.027 107.194C335.638 111.916 335.684 120.482 339.259 123.204C339.259 123.204 331.36 127.501 327.1 135.057C321.544 129.501 324.906 124.816 324.906 124.816C329.915 122.964 329.36 119.195 328.054 115.713L336.027 107.194Z" fill="#FCE0DD"/>
<path opacity="0.2" d="M335.156 108.129C335.397 110.884 335.046 113.659 334.129 116.268C333.49 118.065 331.286 119.093 328.952 119.528C328.84 118.216 328.528 116.93 328.026 115.713L335.156 108.129Z" fill="black"/>
<path d="M342.731 100.592C341.361 108.24 340.935 111.509 336.582 115.009C330.026 120.269 320.933 116.908 319.998 109C319.155 101.879 321.553 90.563 329.452 88.3776C331.193 87.8886 333.029 87.8528 334.788 88.2736C336.546 88.6943 338.167 89.5576 339.498 90.7815C340.828 92.0054 341.824 93.5492 342.39 95.2662C342.956 96.9832 343.073 98.8164 342.731 100.592Z" fill="#FCE0DD"/>
<path d="M336.833 94.452C334.981 98.5449 336.601 105.49 342.472 105.064C337.721 110.481 338.851 122.362 338.851 122.362C341.822 122.573 344.791 121.931 347.407 120.51C347.407 120.51 345.555 109.277 347.509 101.397C349.102 94.989 348.871 82.5529 334.981 85.2568C333.36 85.5716 322.804 88.3404 321.739 93.8871C321.655 94.3872 333.008 97.6745 336.833 94.452Z" fill="#263238"/>
<path d="M344.472 104.934C344.307 105.66 344.001 106.346 343.57 106.953C343.14 107.561 342.593 108.076 341.963 108.472C340.268 109.518 338.87 108.138 338.879 106.249C338.879 104.545 339.805 101.953 341.703 101.675C342.125 101.62 342.554 101.671 342.95 101.824C343.347 101.977 343.699 102.227 343.975 102.551C344.25 102.875 344.44 103.263 344.527 103.679C344.613 104.096 344.595 104.527 344.472 104.934V104.934Z" fill="#FCE0DD"/>
<path opacity="0.2" d="M347.13 135.696C347.007 137.276 347.302 138.86 347.985 140.29C348.667 141.72 349.714 142.946 351.019 143.845C351.185 140.641 351.463 137.048 351.871 132.918C350.259 131.186 347.509 132.696 347.13 135.696Z" fill="black"/>
<path d="M352.806 169.393L354.547 172.06C354.686 172.273 354.454 172.523 354.084 172.56L320.933 176.264C320.646 176.264 320.396 176.181 320.359 176.005L319.748 173.227C319.748 173.032 319.942 172.838 320.248 172.801L352.269 169.208C352.367 169.19 352.468 169.197 352.562 169.23C352.656 169.262 352.74 169.318 352.806 169.393V169.393Z" fill="#263238"/>
<path d="M348.945 173.458L349.806 173.356C349.973 173.356 350.093 173.236 350.074 173.134L349.26 169.495C349.26 169.393 349.074 169.319 348.898 169.337L348.046 169.439C347.87 169.439 347.75 169.56 347.778 169.661L348.593 173.291C348.611 173.402 348.778 173.477 348.945 173.458Z" fill="url(#paint4_linear)"/>
<path d="M323.415 176.32L324.267 176.227C324.443 176.227 324.563 176.097 324.535 175.996L323.72 172.366C323.72 172.255 323.535 172.19 323.369 172.208L322.507 172.301C322.341 172.301 322.22 172.421 322.239 172.532L323.054 176.162C323.081 176.264 323.239 176.338 323.415 176.32Z" fill="url(#paint5_linear)"/>
<path d="M336.138 174.884L336.999 174.792C337.166 174.792 337.286 174.671 337.268 174.56L336.453 170.93C336.453 170.828 336.268 170.754 336.101 170.773L335.24 170.865C335.073 170.865 334.953 170.986 334.971 171.097L335.786 174.727C335.851 174.838 336.008 174.903 336.138 174.884Z" fill="url(#paint6_linear)"/>
<path d="M329.656 101.369C329.582 101.999 329.193 102.471 328.785 102.425C328.378 102.379 328.1 101.823 328.174 101.203C328.248 100.582 328.637 100.101 329.054 100.147C329.471 100.193 329.758 100.749 329.656 101.369Z" fill="#263238"/>
<path d="M322.591 100.536C322.517 101.166 322.128 101.638 321.72 101.592C321.313 101.545 321.035 100.99 321.109 100.369C321.183 99.7488 321.572 99.2673 322.035 99.3136C322.498 99.3599 322.665 99.9155 322.591 100.536Z" fill="#263238"/>
<path d="M322.165 99.369L320.702 98.7578C320.702 98.7578 321.322 100.008 322.165 99.369Z" fill="#263238"/>
<path d="M324.341 101.86C323.612 103.212 322.703 104.458 321.637 105.564C321.929 105.83 322.277 106.028 322.654 106.145C323.032 106.262 323.431 106.294 323.822 106.24L324.341 101.86Z" fill="#A02724"/>
<path d="M325.582 108.453C325.552 108.433 325.529 108.405 325.514 108.372C325.499 108.34 325.494 108.304 325.498 108.268C325.502 108.244 325.51 108.22 325.522 108.199C325.535 108.178 325.552 108.159 325.572 108.145C325.591 108.13 325.614 108.119 325.638 108.114C325.662 108.108 325.687 108.107 325.711 108.111C326.485 108.246 327.281 108.197 328.032 107.966C328.784 107.736 329.47 107.332 330.036 106.786C330.052 106.768 330.072 106.753 330.094 106.743C330.116 106.732 330.14 106.726 330.165 106.725C330.189 106.724 330.214 106.727 330.237 106.735C330.26 106.743 330.281 106.756 330.3 106.773C330.318 106.789 330.333 106.809 330.343 106.831C330.354 106.853 330.36 106.877 330.361 106.902C330.362 106.926 330.359 106.951 330.351 106.974C330.343 106.997 330.33 107.018 330.313 107.036C329.713 107.629 328.979 108.069 328.174 108.32C327.368 108.571 326.514 108.626 325.683 108.481L325.582 108.453Z" fill="#263238"/>
<path d="M333.054 98.0727C332.999 98.0443 332.953 97.9989 332.925 97.9431C332.699 97.5347 332.38 97.1852 331.994 96.923C331.608 96.6607 331.165 96.4931 330.702 96.4337C330.604 96.4337 330.51 96.3947 330.441 96.3252C330.371 96.2557 330.332 96.1615 330.332 96.0633C330.332 95.965 330.371 95.8708 330.441 95.8014C330.51 95.7319 330.604 95.6929 330.702 95.6929C331.286 95.7556 331.847 95.9562 332.338 96.2782C332.829 96.6002 333.236 97.0344 333.527 97.5449C333.552 97.5868 333.568 97.6332 333.575 97.6816C333.582 97.7299 333.58 97.7792 333.568 97.8265C333.556 97.8738 333.535 97.9183 333.505 97.9574C333.476 97.9965 333.439 98.0294 333.397 98.0542C333.345 98.0826 333.287 98.099 333.228 98.1022C333.169 98.1054 333.109 98.0953 333.054 98.0727Z" fill="#263238"/>
<path d="M320.72 96.8501L320.665 96.8038C320.63 96.7701 320.602 96.7298 320.583 96.6853C320.565 96.6407 320.555 96.5928 320.555 96.5445C320.555 96.4961 320.565 96.4482 320.583 96.4037C320.602 96.3592 320.63 96.3189 320.665 96.2852C321.036 95.8279 321.511 95.4659 322.051 95.2292C322.59 94.9924 323.179 94.8878 323.767 94.924C323.865 94.9363 323.954 94.9871 324.015 95.0652C324.076 95.1434 324.103 95.2425 324.091 95.3407C324.078 95.4389 324.028 95.5283 323.95 95.589C323.871 95.6498 323.772 95.6771 323.674 95.6648C323.208 95.6388 322.743 95.7253 322.317 95.9171C321.892 96.1089 321.519 96.4003 321.229 96.7667C321.171 96.8422 321.086 96.8928 320.991 96.9082C320.897 96.9237 320.8 96.9029 320.72 96.8501V96.8501Z" fill="#263238"/>
<path d="M351.741 127.964C354.464 130.742 357.047 133.52 359.566 136.455C360.825 137.918 362.094 139.391 363.27 140.946C364.55 142.548 365.735 144.224 366.816 145.965C367.16 146.507 367.469 147.07 367.742 147.651C367.939 148.098 368.094 148.563 368.205 149.04C368.247 149.232 368.278 149.427 368.298 149.623V149.984C368.307 150.145 368.307 150.305 368.298 150.466V150.716V150.827V150.919L368.252 151.105C368.011 152.105 367.835 153.114 367.52 154.096C366.966 156.097 366.238 158.046 365.344 159.92C364.428 161.823 363.293 163.613 361.964 165.254C361.282 166.086 360.533 166.86 359.723 167.569C359.316 167.93 358.899 168.273 358.445 168.606C358.223 168.763 357.982 168.921 357.742 169.069C357.501 169.217 357.279 169.347 356.89 169.551L354.88 166.134C354.88 166.087 355.084 165.921 355.186 165.791L355.575 165.356C355.834 165.05 356.084 164.726 356.325 164.43C356.801 163.746 357.237 163.035 357.63 162.3C358.42 160.817 359.077 159.268 359.594 157.67C359.825 156.837 360.084 156.031 360.26 155.17C360.436 154.309 360.631 153.484 360.77 152.633C360.908 151.781 361.01 150.901 361.14 150.04V149.873V149.799V149.966C361.14 150.067 361.14 150.206 361.14 150.271C361.135 150.33 361.135 150.389 361.14 150.447V150.679C361.14 150.864 361.14 150.808 361.14 150.734C361.14 150.66 360.844 150.253 360.631 149.947C359.705 148.678 358.538 147.243 357.353 145.882C356.167 144.521 354.927 143.104 353.649 141.743L346.009 133.538L351.741 127.964Z" fill="#FCE0DD"/>
<path d="M358.89 168.31L353.334 173.468L349.732 167.606C349.732 167.606 353.195 165.115 356.306 166.05L358.89 168.31Z" fill="#FCE0DD"/>
<path d="M349.102 174.551L347.25 172.616C346.898 172.244 346.707 171.75 346.717 171.238C346.728 170.727 346.939 170.24 347.306 169.884L349.676 167.56L353.269 173.467L351.723 174.736C351.341 175.036 350.861 175.184 350.377 175.15C349.892 175.115 349.438 174.902 349.102 174.551V174.551Z" fill="#FCE0DD"/>
<path d="M339.212 127.705C338.786 131.01 347.593 140.669 347.593 140.669L355.834 130.353C355.834 130.353 351.991 124.964 349.056 123.741C344.342 121.75 339.694 123.936 339.212 127.705Z" fill="url(#paint7_linear)"/>
<path d="M329.258 100.202L327.795 99.5913C327.795 99.5913 328.434 100.86 329.258 100.202Z" fill="#263238"/>
<path d="M119.102 93.7207C115.685 97.508 111.435 108.861 124.603 106.583C137.77 104.305 119.102 93.7207 119.102 93.7207Z" fill="#263238"/>
<path d="M123.297 83.2846C124.102 78.2472 114.889 66.6814 111.259 73.8209C106.805 82.4142 123.297 83.2846 123.297 83.2846Z" fill="#263238"/>
<path d="M123.325 86.3404C127.501 83.4143 129.371 68.7464 121.695 71.0984C112.444 73.9227 123.325 86.3404 123.325 86.3404Z" fill="#263238"/>
<path d="M144.456 131.27C144.373 132.048 144.299 133.02 144.234 133.909C144.169 134.798 144.132 135.761 144.104 136.687C144.104 138.539 143.993 140.391 144.049 142.196C144.126 145.854 144.457 149.502 145.039 153.114C145.169 154.04 145.373 154.892 145.539 155.781L145.595 156.086C145.593 156.12 145.593 156.154 145.595 156.188C145.595 156.188 145.595 156.188 145.595 156.272C145.595 156.355 146.039 156.577 146.669 156.642C147.404 156.729 148.147 156.729 148.882 156.642C152.441 156.067 155.921 155.082 159.253 153.707L161.05 156.901C160.189 157.522 159.365 158.04 158.494 158.559C157.624 159.077 156.763 159.578 155.846 160.022C153.978 160.99 152.014 161.757 149.984 162.309C148.835 162.616 147.654 162.787 146.465 162.819C144.912 162.863 143.378 162.468 142.039 161.68C141.234 161.18 140.548 160.51 140.03 159.716C139.783 159.343 139.575 158.946 139.409 158.531C139.325 158.338 139.25 158.14 139.187 157.938L139.094 157.642L139.048 157.457C138.798 156.475 138.502 155.485 138.289 154.494C137.401 150.537 136.871 146.508 136.705 142.456C136.603 140.446 136.566 138.446 136.641 136.437C136.641 135.427 136.724 134.427 136.798 133.418C136.872 132.409 136.965 131.446 137.113 130.316L144.456 131.27Z" fill="#FFD3B6"/>
<path d="M143.53 122.538C146.308 123.797 146.308 136.252 146.308 136.252L133.733 141.956C133.733 141.956 131.585 126.816 134.409 123.973C137.233 121.13 139.465 120.704 143.53 122.538Z" fill="#263238"/>
<path opacity="0.2" d="M142.835 125.195L144.725 137.002L137.9 140.085L142.835 125.195Z" fill="black"/>
<path d="M157.642 155.263L162.893 149.512L164.541 155.846C164.541 155.846 161.18 159.059 158.318 158.133L157.642 155.263Z" fill="#FFD3B6"/>
<path d="M166.273 149.327L167.05 152.466C167.109 152.713 167.102 152.971 167.031 153.215C166.959 153.458 166.826 153.679 166.643 153.855L164.541 155.846L162.893 149.512L163.911 148.586C164.097 148.419 164.323 148.302 164.567 148.249C164.811 148.195 165.065 148.206 165.304 148.281C165.542 148.356 165.757 148.492 165.927 148.675C166.097 148.859 166.216 149.083 166.273 149.327V149.327Z" fill="#FFD3B6"/>
<path d="M145.113 125.409C144.762 129.64 142.641 139.956 134.001 164.958L105.018 159.948C107.416 148.836 108.675 141.743 107.564 119.593C107.537 119.093 107.614 118.593 107.789 118.124C107.963 117.655 108.233 117.227 108.58 116.867C108.928 116.506 109.346 116.221 109.808 116.029C110.271 115.837 110.767 115.742 111.268 115.751C114.174 115.777 117.077 115.959 119.963 116.297C124.396 116.73 128.794 117.476 133.122 118.529C136.659 119.455 140.446 120.806 142.734 121.64C143.492 121.915 144.137 122.435 144.568 123.117C144.999 123.8 145.191 124.606 145.113 125.409V125.409Z" fill="#263238"/>
<path opacity="0.2" d="M108.11 125.788C110.62 126.899 112.555 130.177 111.351 135.4C110.776 137.77 109.539 139.927 107.786 141.623C108.027 137.483 108.064 132.64 107.87 126.399L108.11 125.788Z" fill="black"/>
<path d="M123.815 101.703C123.917 106.083 123.408 113.982 119.954 116.297C119.954 116.297 122.463 119.436 129.473 124.844C136.159 121.14 133.122 118.566 133.122 118.566C128.594 116.63 129.316 113.148 130.705 110L123.815 101.703Z" fill="#FFD3B6"/>
<path opacity="0.2" d="M126.63 105.092L130.705 109.99C130.37 110.721 130.1 111.48 129.899 112.259C128.14 111.685 125.566 109.657 125.519 107.629C125.492 106.675 126.399 105.499 126.63 105.092Z" fill="black"/>
<path d="M120.38 93.6376C120.778 100.814 120.787 103.824 124.39 107.528C129.807 113.084 138.53 111.046 140.289 103.898C141.872 97.4157 140.956 86.8038 133.955 83.9054C132.411 83.2576 130.726 83.0161 129.062 83.204C127.398 83.3919 125.809 84.0028 124.448 84.9786C123.087 85.9544 121.999 87.2625 121.287 88.7783C120.574 90.2941 120.262 91.967 120.38 93.6376Z" fill="#FFD3B6"/>
<path d="M120.315 98.4434C123.408 98.6008 126.955 92.6374 125.519 89.9427C127.14 89.5816 134.048 90.3594 134.02 87.8129C137.141 89.989 143.993 90.1001 145.132 87.1462C146.271 84.1923 143.678 81.442 140.308 82.5162C137.872 76.2379 126.158 74.9415 121.788 80.905C116.25 80.7661 104.221 89.8223 120.315 98.4434Z" fill="#263238"/>
<path d="M132.788 95.6191C132.788 96.2025 133.085 96.6748 133.474 96.6748C133.863 96.6748 134.159 96.2118 134.168 95.6284C134.177 95.045 133.863 94.5635 133.483 94.5635C133.103 94.5635 132.788 95.0357 132.788 95.6191Z" fill="#263238"/>
<path d="M139.381 95.6559C139.381 96.2392 139.687 96.7115 140.067 96.7208C140.446 96.73 140.761 96.2485 140.77 95.6651C140.78 95.0817 140.465 94.6095 140.085 94.6002C139.706 94.591 139.391 95.0725 139.381 95.6559Z" fill="#263238"/>
<path d="M139.919 94.6374L141.317 94.2393C141.317 94.2393 140.595 95.3782 139.919 94.6374Z" fill="#263238"/>
<path d="M137.344 96.6934C137.856 98.0167 138.548 99.2632 139.4 100.397C139.101 100.608 138.76 100.751 138.4 100.817C138.04 100.882 137.671 100.869 137.317 100.777L137.344 96.6934Z" fill="#ED893E"/>
<path d="M133.918 103.082C134.203 103.128 134.491 103.15 134.779 103.147C134.802 103.149 134.825 103.145 134.846 103.137C134.867 103.129 134.887 103.117 134.903 103.102C134.92 103.086 134.933 103.067 134.942 103.047C134.951 103.026 134.955 103.003 134.955 102.981C134.953 102.935 134.934 102.891 134.901 102.859C134.869 102.826 134.825 102.807 134.779 102.805C134.051 102.813 133.331 102.65 132.678 102.328C132.025 102.007 131.457 101.535 131.02 100.953C131.008 100.932 130.993 100.915 130.974 100.901C130.956 100.887 130.934 100.877 130.912 100.871C130.889 100.866 130.865 100.866 130.843 100.87C130.82 100.875 130.798 100.884 130.779 100.897C130.748 100.93 130.731 100.973 130.731 101.017C130.731 101.062 130.748 101.105 130.779 101.138C131.149 101.652 131.616 102.089 132.155 102.422C132.694 102.756 133.293 102.98 133.918 103.082V103.082Z" fill="#263238"/>
<path d="M132.946 104.064C133.192 104.211 133.449 104.338 133.714 104.444C133.735 104.453 133.757 104.458 133.78 104.458C133.802 104.458 133.825 104.454 133.845 104.445C133.866 104.437 133.885 104.424 133.901 104.408C133.916 104.392 133.929 104.372 133.937 104.351C133.946 104.331 133.95 104.309 133.951 104.286C133.951 104.264 133.946 104.241 133.938 104.221C133.929 104.2 133.916 104.181 133.9 104.165C133.884 104.15 133.865 104.137 133.844 104.129C133.171 103.865 132.569 103.447 132.087 102.908C131.604 102.369 131.255 101.725 131.066 101.027C131.062 101.005 131.053 100.984 131.04 100.965C131.027 100.947 131.011 100.931 130.992 100.919C130.973 100.907 130.952 100.898 130.929 100.895C130.907 100.891 130.884 100.892 130.862 100.897C130.819 100.906 130.781 100.931 130.755 100.968C130.729 101.004 130.718 101.048 130.723 101.092C130.879 101.71 131.156 102.29 131.537 102.8C131.919 103.311 132.398 103.74 132.946 104.064V104.064Z" fill="#263238"/>
<path d="M118.185 99.2305C118.584 100.56 119.489 101.68 120.704 102.351C122.325 103.222 123.538 101.86 123.427 100.119C123.325 98.5545 122.352 96.2117 120.556 96.0635C120.164 96.0381 119.772 96.1109 119.415 96.2753C119.058 96.4396 118.748 96.6904 118.513 97.0049C118.277 97.3193 118.124 97.6875 118.067 98.0762C118.01 98.4648 118.051 98.8615 118.185 99.2305V99.2305Z" fill="#FFD3B6"/>
<path d="M129.788 92.3598C129.854 92.3914 129.928 92.4012 129.999 92.3879C130.071 92.3746 130.136 92.3388 130.186 92.2857C131.307 91.1653 133.325 91.4894 133.344 91.4894C133.433 91.5031 133.525 91.4819 133.599 91.4301C133.673 91.3784 133.724 91.3002 133.742 91.2116C133.75 91.1665 133.749 91.1203 133.739 91.0757C133.728 91.0311 133.709 90.989 133.683 90.9519C133.656 90.9148 133.622 90.8834 133.583 90.8596C133.544 90.8358 133.5 90.8201 133.455 90.8134C133.363 90.8134 131.066 90.4337 129.705 91.8042C129.672 91.8361 129.646 91.8743 129.628 91.9164C129.61 91.9586 129.601 92.0039 129.601 92.0496C129.601 92.0953 129.61 92.1406 129.628 92.1828C129.646 92.2249 129.672 92.2631 129.705 92.295L129.788 92.3598Z" fill="#263238"/>
<path d="M141.613 92.4891C141.672 92.4969 141.731 92.49 141.786 92.469C141.841 92.448 141.89 92.4135 141.928 92.3687C141.986 92.2986 142.013 92.2086 142.004 92.1183C141.996 92.0281 141.952 91.9449 141.882 91.8871C141.472 91.5293 140.982 91.2746 140.454 91.1441C139.926 91.0136 139.374 91.0112 138.844 91.1371C138.759 91.1647 138.688 91.2249 138.646 91.3046C138.605 91.3843 138.596 91.4771 138.622 91.5631C138.634 91.6069 138.654 91.648 138.682 91.6837C138.71 91.7194 138.745 91.749 138.785 91.7706C138.825 91.7923 138.869 91.8056 138.914 91.8097C138.959 91.8138 139.005 91.8087 139.048 91.7946C139.468 91.6986 139.906 91.7049 140.323 91.8128C140.74 91.9208 141.126 92.1273 141.447 92.415C141.494 92.4543 141.552 92.4799 141.613 92.4891Z" fill="#263238"/>
<path d="M131.233 325.359H138.474L138.011 308.589H130.77L131.233 325.359Z" fill="#FFD3B6"/>
<path d="M138.9 324.516H130.76C130.622 324.511 130.487 324.561 130.385 324.655C130.283 324.748 130.221 324.878 130.214 325.016L129.612 331.452C129.606 331.618 129.633 331.784 129.692 331.939C129.751 332.094 129.841 332.236 129.956 332.356C130.07 332.476 130.208 332.572 130.361 332.638C130.513 332.704 130.678 332.738 130.844 332.739C133.677 332.693 135.029 332.526 138.613 332.526C140.808 332.526 145.373 332.749 148.41 332.749C151.447 332.749 151.466 329.748 150.179 329.471C144.447 328.248 142.122 326.572 140.132 324.961C139.783 324.678 139.349 324.522 138.9 324.516V324.516Z" fill="#263238"/>
<g opacity="0.2">
<path opacity="0.2" d="M138.011 308.589L138.252 317.238H131.011L130.77 308.589H138.011Z" fill="black"/>
</g>
<path d="M134.02 164.958C134.02 164.958 138.539 210.175 139.946 232.232C141.409 255.169 139.493 315.572 139.493 315.572H129.705C129.705 315.572 123.658 247.529 123.658 233.954C119.806 209.35 109.185 183.867 112.796 161.3L134.02 164.958Z" fill="url(#paint8_linear)"/>
<path opacity="0.6" d="M134.02 164.958C134.02 164.958 138.539 210.175 139.946 232.232C141.409 255.169 139.493 315.572 139.493 315.572H129.705C129.705 315.572 123.658 247.529 123.658 233.954C119.806 209.35 109.185 183.867 112.796 161.3L134.02 164.958Z" fill="white"/>
<path opacity="0.2" d="M118.639 182.857C116.58 183.411 114.745 184.592 113.389 186.237C114.88 195.618 117.398 205.239 119.713 214.869C121.371 204.405 120.38 186.774 118.639 182.857Z" fill="url(#paint9_linear)"/>
<path d="M128.853 315.914H140.345L141.187 312.247L128.316 311.803L128.853 315.914Z" fill="#263238"/>
<path d="M141.678 325.785C142.298 325.838 142.917 325.681 143.437 325.34C143.554 325.238 143.643 325.108 143.697 324.963C143.75 324.817 143.766 324.66 143.743 324.507C143.738 324.412 143.709 324.32 143.659 324.239C143.609 324.158 143.539 324.091 143.456 324.044C142.53 323.563 139.678 325.035 139.354 325.202C139.322 325.217 139.297 325.243 139.282 325.275C139.267 325.307 139.263 325.343 139.27 325.377C139.275 325.412 139.289 325.445 139.313 325.471C139.336 325.498 139.366 325.517 139.4 325.526C140.15 325.681 140.912 325.768 141.678 325.785ZM142.974 324.285C143.083 324.278 143.192 324.3 143.289 324.35C143.325 324.366 143.355 324.392 143.377 324.425C143.398 324.457 143.41 324.496 143.41 324.535C143.424 324.636 143.413 324.738 143.377 324.834C143.342 324.929 143.283 325.014 143.206 325.081C142.771 325.479 141.576 325.544 139.974 325.285C140.901 324.785 141.906 324.447 142.947 324.285H142.974Z" fill="url(#paint10_linear)"/>
<path d="M139.409 325.526H139.474C140.345 325.137 142.048 323.572 141.919 322.748C141.919 322.554 141.743 322.313 141.271 322.266C141.104 322.252 140.937 322.271 140.778 322.322C140.619 322.373 140.472 322.454 140.345 322.563C139.419 323.322 139.27 325.267 139.261 325.341C139.26 325.371 139.267 325.401 139.28 325.428C139.292 325.456 139.312 325.48 139.335 325.498C139.358 325.513 139.383 325.522 139.409 325.526ZM141.132 322.591H141.234C141.548 322.591 141.567 322.748 141.576 322.785C141.66 323.285 140.502 324.507 139.622 325.044C139.692 324.22 140.015 323.437 140.548 322.804C140.712 322.668 140.919 322.592 141.132 322.591V322.591Z" fill="url(#paint11_linear)"/>
<path d="M71.2186 313.988L77.9136 316.747L84.7567 301.431L78.071 298.672L71.2186 313.988Z" fill="#FFD3B6"/>
<path d="M78.4415 316.692L71.3668 312.673C71.2468 312.602 71.1048 312.578 70.968 312.605C70.8312 312.633 70.7094 312.71 70.626 312.821L66.672 317.924C66.577 318.057 66.5111 318.209 66.4787 318.37C66.4462 318.53 66.448 318.696 66.4838 318.856C66.5196 319.015 66.5887 319.166 66.6865 319.297C66.7844 319.429 66.9088 319.538 67.0517 319.618C69.5426 320.97 70.8112 321.47 73.9226 323.267C75.8301 324.359 79.6823 326.804 82.3214 328.304C84.9605 329.804 86.5903 327.276 85.6272 326.452C81.2935 322.581 80.1823 320.016 79.3119 317.683C79.1532 317.257 78.8434 316.904 78.4415 316.692Z" fill="#263238"/>
<g opacity="0.2">
<path opacity="0.2" d="M84.7567 301.441L81.2287 309.33L74.5337 306.571L78.0618 298.672L84.7567 301.441Z" fill="black"/>
</g>
<path d="M125.88 163.55C125.88 163.55 114.046 215.517 112.046 237.519C107.018 257.956 83.34 308.358 83.34 308.358L74.2837 304.654C74.2837 304.654 88.4793 250.807 96.2762 235.973C97.017 211.378 96.8874 181.746 104.703 159.902L125.88 163.55Z" fill="url(#paint12_linear)"/>
<path opacity="0.6" d="M125.88 163.55C125.88 163.55 114.046 215.517 112.046 237.519C107.018 257.956 83.34 308.358 83.34 308.358L74.2837 304.654C74.2837 304.654 88.4793 250.807 96.2762 235.973C97.017 211.378 96.8874 181.746 104.703 159.902L125.88 163.55Z" fill="white"/>
<path d="M73.3207 304.635L83.9419 309.015L86.118 305.95L74.3948 300.625L73.3207 304.635Z" fill="#263238"/>
<path d="M80.1823 319.1C80.6953 319.452 81.3116 319.621 81.9325 319.581C82.0842 319.55 82.2256 319.481 82.3437 319.38C82.4618 319.28 82.5528 319.152 82.6085 319.007C82.6539 318.925 82.6777 318.832 82.6777 318.738C82.6777 318.645 82.6539 318.552 82.6085 318.47C82.0806 317.6 78.8396 317.461 78.4785 317.451C78.4433 317.447 78.4077 317.455 78.3774 317.473C78.3472 317.492 78.3241 317.52 78.3118 317.553C78.2915 317.582 78.2805 317.616 78.2805 317.65C78.2805 317.685 78.2915 317.719 78.3118 317.748C78.8928 318.254 79.5189 318.707 80.1823 319.1ZM82.0343 318.433C82.1327 318.484 82.2182 318.557 82.2844 318.646C82.3048 318.679 82.3156 318.718 82.3156 318.757C82.3156 318.796 82.3048 318.835 82.2844 318.868C82.2474 318.962 82.1886 319.045 82.1128 319.111C82.0371 319.177 81.9467 319.224 81.8491 319.248C81.2658 319.368 80.2009 318.84 78.9322 317.822C79.9965 317.848 81.0485 318.055 82.0436 318.433H82.0343Z" fill="url(#paint13_linear)"/>
<path d="M78.3581 317.766C78.3581 317.766 78.3581 317.766 78.4229 317.766C79.3489 317.849 81.6269 317.331 81.9139 316.553C81.9787 316.368 81.9787 316.09 81.5898 315.812C81.4566 315.719 81.3062 315.653 81.1472 315.618C80.9883 315.583 80.824 315.58 80.6638 315.608C79.4971 315.812 78.3951 317.46 78.3488 317.46C78.3332 317.485 78.325 317.514 78.325 317.544C78.325 317.573 78.3332 317.602 78.3488 317.627C78.3389 317.649 78.3345 317.674 78.3361 317.698C78.3377 317.722 78.3453 317.745 78.3581 317.766V317.766ZM81.3028 316.071C81.3373 316.083 81.3689 316.102 81.3954 316.127C81.6454 316.303 81.6083 316.423 81.5898 316.46C81.4139 316.933 79.8026 317.386 78.8118 317.46C79.2766 316.777 79.9436 316.255 80.7194 315.97C80.9197 315.939 81.1247 315.975 81.3028 316.071V316.071Z" fill="url(#paint14_linear)"/>
<path d="M133.344 94.5911L134.742 94.2021C134.742 94.2021 133.992 95.2856 133.344 94.5911Z" fill="#263238"/>
<path d="M104.897 158.18L103.712 160.643C103.573 160.828 103.777 161.069 104.11 161.134L133.937 166.282C134.196 166.328 134.437 166.282 134.483 166.069L135.196 163.523C135.242 163.347 135.039 163.152 134.751 163.106L105.407 158.041C105.317 158.018 105.223 158.019 105.134 158.043C105.044 158.068 104.963 158.115 104.897 158.18V158.18Z" fill="#263238"/>
<path d="M108.342 162.152L107.555 162.022C107.397 162.022 107.296 161.893 107.323 161.791L108.249 158.485C108.249 158.392 108.425 158.337 108.583 158.365L109.37 158.494C109.527 158.494 109.629 158.624 109.601 158.726L108.675 162.032C108.675 162.124 108.527 162.18 108.342 162.152Z" fill="url(#paint15_linear)"/>
<g opacity="0.6">
<path opacity="0.6" d="M108.342 162.152L107.555 162.022C107.397 162.022 107.296 161.893 107.323 161.791L108.249 158.485C108.249 158.392 108.425 158.337 108.583 158.365L109.37 158.494C109.527 158.494 109.629 158.624 109.601 158.726L108.675 162.032C108.675 162.124 108.527 162.18 108.342 162.152Z" fill="white"/>
</g>
<path d="M131.677 166.18L130.899 166.041C130.742 166.041 130.631 165.912 130.659 165.819L131.585 162.513C131.585 162.411 131.761 162.356 131.918 162.384L132.705 162.522C132.862 162.522 132.964 162.652 132.937 162.745L132.011 166.051C131.992 166.152 131.835 166.208 131.677 166.18Z" fill="url(#paint16_linear)"/>
<g opacity="0.6">
<path opacity="0.6" d="M131.677 166.18L130.899 166.041C130.742 166.041 130.631 165.912 130.659 165.819L131.585 162.513C131.585 162.411 131.761 162.356 131.918 162.384L132.705 162.522C132.862 162.522 132.964 162.652 132.937 162.745L132.011 166.051C131.992 166.152 131.835 166.208 131.677 166.18Z" fill="white"/>
</g>
<path d="M120.074 164.18L119.287 164.041C119.13 164.041 119.028 163.911 119.056 163.819L119.982 160.504C119.982 160.411 120.158 160.355 120.315 160.383L121.102 160.513C121.25 160.513 121.362 160.642 121.334 160.744L120.408 164.05C120.38 164.143 120.232 164.198 120.074 164.18Z" fill="url(#paint17_linear)"/>
<g opacity="0.6">
<path opacity="0.6" d="M120.074 164.18L119.287 164.041C119.13 164.041 119.028 163.911 119.056 163.819L119.982 160.504C119.982 160.411 120.158 160.355 120.315 160.383L121.102 160.513C121.25 160.513 121.362 160.642 121.334 160.744L120.408 164.05C120.38 164.143 120.232 164.198 120.074 164.18Z" fill="white"/>
</g>
<path d="M101.73 163.828L107.157 169.458L99.8135 169.949C99.8135 169.949 97.3041 166.032 98.7672 163.402L101.73 163.828Z" fill="#FFD3B6"/>
<path d="M109.509 125.548C107.416 128.881 105.249 132.196 103.082 135.484C100.915 138.771 98.7023 142.104 96.7207 145.29L96.4059 145.79C96.4059 145.79 96.4059 145.846 96.3318 145.91C96.2557 146.122 96.2089 146.343 96.1929 146.568C96.1342 147.301 96.1684 148.038 96.2947 148.762C96.6053 150.532 97.0637 152.273 97.6652 153.967C98.2579 155.744 98.9524 157.532 99.7209 159.3C100.49 161.069 101.286 162.865 102.092 164.597L98.9801 166.542C96.4952 163.278 94.3248 159.787 92.4981 156.115C91.5254 154.163 90.7499 152.119 90.1831 150.013C89.8632 148.803 89.6952 147.559 89.6831 146.309C89.686 145.543 89.7824 144.782 89.9702 144.04C90.0904 143.608 90.2452 143.187 90.4332 142.78L90.6554 142.336L90.8406 141.975C91.8222 140.123 92.8037 138.4 93.8223 136.66C94.8409 134.919 95.8595 133.233 96.8966 131.539C98.9709 128.14 101.082 124.798 103.295 121.492L109.509 125.548Z" fill="#FFD3B6"/>
<path d="M111.472 115.917C104.36 114.694 99.0171 125.668 99.0171 125.668L107.351 135.928C107.351 135.928 112.694 129.955 113.879 126.131C115.139 122.149 114.935 116.519 111.472 115.917Z" fill="#263238"/>
<path d="M107.786 175.515L101.61 175.589L99.8135 169.949L107.157 169.458L107.786 175.515Z" fill="#FFD3B6"/>
<path d="M351.991 43.2163C354.339 43.2187 356.663 43.6837 358.831 44.5846C360.999 45.4856 362.968 46.8049 364.626 48.4672C366.284 50.1294 367.598 52.102 368.494 54.2723C369.389 56.4427 369.848 58.7681 369.844 61.1158V197.09C369.84 201.823 367.957 206.361 364.61 209.708C361.263 213.056 356.725 214.938 351.991 214.943H306.71C303.026 214.943 299.493 216.406 296.888 219.011C294.283 221.616 292.82 225.149 292.82 228.833V242.001L265.123 218.277C262.605 216.123 259.399 214.941 256.085 214.943H111.009C106.275 214.938 101.737 213.056 98.3901 209.708C95.0431 206.361 93.1605 201.823 93.1556 197.09V61.1158C93.1605 56.3824 95.0431 51.8442 98.3901 48.4971C101.737 45.15 106.275 43.2675 111.009 43.2626H351.991V43.2163ZM351.991 29.3726H111.009C102.598 29.397 94.5377 32.7492 88.59 38.6969C82.6423 44.6447 79.2901 52.7045 79.2656 61.1158V197.09C79.2901 205.501 82.6423 213.561 88.59 219.509C94.5377 225.456 102.598 228.809 111.009 228.833H256.085L306.71 272.188V228.833H351.991C360.402 228.809 368.462 225.456 374.41 219.509C380.358 213.561 383.71 205.501 383.734 197.09V61.1158C383.71 52.7045 380.358 44.6447 374.41 38.6969C368.462 32.7492 360.402 29.397 351.991 29.3726V29.3726Z" fill="url(#paint18_linear)"/>
<path d="M221.184 328.119C222.036 328.119 222.842 328.008 223.101 327.628C223.172 327.528 223.21 327.408 223.21 327.286C223.21 327.163 223.172 327.043 223.101 326.943C223.045 326.852 222.97 326.773 222.883 326.711C222.795 326.649 222.696 326.605 222.592 326.582C221.49 326.285 219.24 327.591 219.138 327.647C219.11 327.664 219.089 327.689 219.077 327.719C219.066 327.749 219.064 327.782 219.073 327.813C219.079 327.845 219.095 327.873 219.118 327.895C219.141 327.917 219.171 327.93 219.203 327.934C219.856 328.057 220.519 328.119 221.184 328.119V328.119ZM222.184 326.85C222.286 326.84 222.388 326.84 222.49 326.85C222.617 326.882 222.726 326.962 222.796 327.073C222.916 327.267 222.879 327.36 222.842 327.415C222.555 327.841 220.888 327.85 219.656 327.684C220.438 327.252 221.297 326.979 222.184 326.878V326.85Z" fill="url(#paint19_linear)"/>
<path d="M219.193 327.943H219.258C220.036 327.591 221.555 326.165 221.407 325.424C221.407 325.248 221.24 325.026 220.814 324.989C220.66 324.97 220.504 324.984 220.356 325.029C220.208 325.073 220.071 325.148 219.953 325.248C219.147 325.943 219.027 327.712 219.027 327.786C219.027 327.814 219.034 327.842 219.047 327.868C219.06 327.894 219.078 327.916 219.101 327.934C219.13 327.946 219.162 327.949 219.193 327.943V327.943ZM220.694 325.276H220.795C221.073 325.276 221.092 325.415 221.101 325.452C221.194 325.897 220.175 327.017 219.369 327.508C219.41 326.764 219.69 326.053 220.166 325.48C220.309 325.347 220.498 325.274 220.694 325.276V325.276Z" fill="url(#paint20_linear)"/>
<path d="M211.943 327.785H218.527L218.61 312.543H212.026L211.943 327.785Z" fill="#FFE2CE"/>
<path d="M218.462 327.026H211.267C211.139 327.025 211.015 327.068 210.916 327.15C210.818 327.231 210.752 327.345 210.73 327.471L209.646 333.36C209.621 333.505 209.627 333.653 209.665 333.795C209.703 333.937 209.771 334.068 209.866 334.181C209.961 334.293 210.079 334.383 210.212 334.444C210.345 334.506 210.49 334.537 210.637 334.536C213.23 334.49 216.971 334.333 220.231 334.333C224.036 334.333 224.509 334.546 228.981 334.546C231.685 334.546 232.324 331.814 231.185 331.564C226 330.434 224.62 330.314 220.073 327.573C219.596 327.248 219.039 327.059 218.462 327.026Z" fill="#263238"/>
<path opacity="0.2" d="M218.61 312.543L218.573 320.405H211.98L212.026 312.543H218.61Z" fill="black"/>
<path d="M168.365 325.85C168.415 325.152 168.201 324.461 167.763 323.915C167.664 323.843 167.544 323.804 167.421 323.804C167.298 323.804 167.178 323.843 167.078 323.915C166.99 323.968 166.915 324.039 166.857 324.123C166.8 324.208 166.761 324.305 166.745 324.406C166.504 325.498 167.939 327.804 168.004 327.906C168.022 327.933 168.047 327.955 168.076 327.968C168.106 327.981 168.139 327.985 168.171 327.98C168.201 327.976 168.23 327.962 168.252 327.94C168.273 327.919 168.287 327.89 168.291 327.86C168.369 327.193 168.394 326.521 168.365 325.85V325.85ZM167.032 324.795C167.018 324.696 167.018 324.597 167.032 324.498C167.04 324.436 167.061 324.377 167.095 324.324C167.129 324.271 167.173 324.226 167.226 324.193C167.421 324.082 167.513 324.128 167.569 324.193C168.013 324.498 168.115 326.165 168.013 327.387C167.523 326.594 167.19 325.714 167.032 324.795V324.795Z" fill="url(#paint21_linear)"/>
<path d="M168.291 327.804C168.297 327.783 168.297 327.76 168.291 327.739C167.893 326.943 166.384 325.359 165.643 325.47C165.467 325.47 165.254 325.619 165.235 326.054C165.226 326.371 165.338 326.679 165.55 326.915C166.291 327.513 167.194 327.875 168.143 327.952C168.17 327.956 168.198 327.952 168.222 327.941C168.247 327.929 168.268 327.91 168.282 327.887C168.294 327.861 168.297 327.832 168.291 327.804V327.804ZM165.513 326.174V326.082C165.513 325.804 165.634 325.785 165.671 325.785C166.115 325.711 167.291 326.785 167.828 327.637C167.061 327.56 166.335 327.253 165.745 326.758C165.616 326.603 165.542 326.412 165.532 326.211L165.513 326.174Z" fill="url(#paint22_linear)"/>
<path d="M168.189 327.878L174.644 328.332L177.301 312.969L170.856 312.516L168.189 327.878Z" fill="#FFE2CE"/>
<path d="M168.124 326.406L175.245 325.776C175.378 325.764 175.511 325.797 175.624 325.869C175.736 325.941 175.821 326.049 175.866 326.174L178.033 331.888C178.083 332.02 178.103 332.161 178.09 332.302C178.077 332.442 178.032 332.578 177.959 332.699C177.886 332.819 177.786 332.922 177.667 332.998C177.548 333.074 177.414 333.122 177.273 333.138C174.699 333.323 170.958 333.499 167.726 333.786C163.957 334.12 166.411 334.11 161.985 334.508C159.309 334.749 158.161 332.092 159.207 331.73C164.133 330.156 164.976 329.073 166.615 327.045C166.811 326.843 167.046 326.682 167.305 326.572C167.564 326.463 167.843 326.406 168.124 326.406V326.406Z" fill="#263238"/>
<path opacity="0.2" d="M177.301 312.979L175.931 320.896L169.476 320.442L170.847 312.516L177.301 312.979Z" fill="black"/>
<path d="M220.981 160.337C220.981 160.337 208.943 210.906 204.387 229.676C199.359 250.224 179.644 318.414 179.644 318.414L167.884 315.868C167.884 315.868 180.663 257.28 185.691 228.611C189.552 206.6 198.275 160.337 198.275 160.337H220.981Z" fill="#263238"/>
<path d="M181.496 314.84L180.625 319.368L166.578 317.868L166.384 313.719L181.496 314.84Z" fill="url(#paint23_linear)"/>
<path opacity="0.3" d="M214.045 183.774C205.711 184.876 204.201 214.082 204.007 231.213L204.387 229.666C206.887 219.425 211.6 199.673 215.378 183.866C214.946 183.737 214.491 183.705 214.045 183.774V183.774Z" fill="black"/>
<path d="M233.472 160.337C233.472 160.337 230.259 209.582 228.842 229.63C227.351 250.483 221.434 318.877 221.434 318.877H210.202C210.202 318.877 209.026 251.733 208.702 231.222C208.341 208.869 210.313 160.337 210.313 160.337H233.472Z" fill="#263238"/>
<path d="M222.944 314.442C222.99 314.442 222.49 319.072 222.49 319.072H208.924L208.396 314.933L222.944 314.442Z" fill="url(#paint24_linear)"/>
<path d="M202.331 112.972C200.535 116.611 198.71 120.436 197.025 124.195C195.34 127.955 193.682 131.761 192.395 135.557L191.895 136.974L191.45 138.382L191.247 139.021C191.263 138.87 191.263 138.718 191.247 138.567C191.184 137.943 190.886 137.367 190.413 136.956C190.052 136.715 190.043 136.817 190.182 136.891C190.44 137.01 190.71 137.1 190.987 137.159C191.818 137.334 192.659 137.449 193.506 137.502C197.559 137.627 201.617 137.506 205.655 137.141H205.766C206.364 137.096 206.958 137.268 207.439 137.625C207.921 137.983 208.257 138.502 208.386 139.087C208.516 139.672 208.43 140.285 208.144 140.812C207.858 141.339 207.392 141.745 206.831 141.956C202.627 143.652 198.219 144.791 193.719 145.345C192.427 145.478 191.125 145.49 189.83 145.382C189.047 145.319 188.272 145.183 187.515 144.975C186.402 144.686 185.37 144.147 184.496 143.401C183.864 142.859 183.345 142.198 182.968 141.456C182.59 140.686 182.363 139.849 182.302 138.993C182.263 138.31 182.316 137.625 182.459 136.956L182.663 136.03L183.052 134.354L183.496 132.715C184.713 128.455 186.181 124.271 187.895 120.186C189.598 116.13 191.404 112.232 193.506 108.287C194.123 107.132 195.17 106.267 196.419 105.877C197.668 105.486 199.021 105.602 200.186 106.2C201.35 106.797 202.234 107.828 202.645 109.071C203.057 110.313 202.964 111.668 202.387 112.843L202.331 112.972Z" fill="#CF7A64"/>
<path d="M205.841 137.391L209.933 135.779L209.73 143.391C208.078 143.275 206.483 142.736 205.1 141.826C204.76 141.58 204.505 141.236 204.367 140.84C204.23 140.445 204.217 140.016 204.331 139.613L204.563 138.78C204.65 138.463 204.811 138.172 205.034 137.93C205.256 137.689 205.532 137.504 205.841 137.391V137.391Z" fill="#FFE2CE"/>
<path d="M216.675 134.918L215.202 141.511L209.73 143.382L209.933 135.779L216.675 134.918Z" fill="#FFE2CE"/>
<path d="M224.296 78.9136C224.407 79.4322 224.768 79.7933 225.101 79.7285C225.435 79.6637 225.638 79.1821 225.527 78.6636C225.416 78.145 225.064 77.7376 224.722 77.8394C224.379 77.9413 224.194 78.3858 224.296 78.9136Z" fill="#263238"/>
<path d="M224.712 79.8027C225.656 81.2691 226.8 82.5968 228.111 83.7475C227.806 84.0742 227.433 84.3304 227.019 84.4983C226.605 84.6662 226.159 84.7418 225.712 84.7198L224.712 79.8027Z" fill="#BA4D3C"/>
<path d="M221.805 76.4041C221.726 76.4031 221.65 76.3735 221.592 76.3208C221.563 76.2923 221.54 76.2584 221.524 76.2211C221.509 76.1837 221.501 76.1436 221.501 76.1031C221.501 76.0626 221.509 76.0226 221.524 75.9852C221.54 75.9478 221.563 75.914 221.592 75.8855C221.92 75.5132 222.332 75.2249 222.795 75.0444C223.257 74.864 223.756 74.7968 224.249 74.8484C224.33 74.8642 224.401 74.9107 224.448 74.9782C224.494 75.0456 224.513 75.1286 224.499 75.2096C224.494 75.2499 224.48 75.2887 224.459 75.3237C224.438 75.3586 224.411 75.3891 224.378 75.4133C224.345 75.4374 224.308 75.4548 224.268 75.4643C224.229 75.4739 224.188 75.4754 224.148 75.4688V75.4688C223.757 75.4309 223.362 75.4876 222.998 75.6343C222.634 75.781 222.31 76.0133 222.055 76.3115C222.022 76.3438 221.983 76.3687 221.94 76.3847C221.897 76.4007 221.851 76.4073 221.805 76.4041V76.4041Z" fill="#263238"/>
<path d="M209.85 88.3774C210.776 93.1926 211.359 99.8691 207.998 103.082C207.998 103.082 209.322 107.962 218.267 107.962C228.102 107.962 222.999 103.675 222.999 103.675C218.906 102.406 218.943 97.7486 219.879 94.0075L209.85 88.3774Z" fill="#FFE2CE"/>
<path d="M196.21 103.101C190.034 104.517 185.969 121.167 185.969 121.167L196.312 128.908C200.14 126.16 202.855 122.128 203.961 117.546C206.035 109.268 202.516 101.656 196.21 103.101Z" fill="url(#paint25_linear)"/>
<path opacity="0.2" d="M201.498 114.685C197.972 118.438 195.921 123.337 195.719 128.482L196.266 128.908C200.091 126.157 202.805 122.126 203.914 117.546C204.035 117.056 204.146 116.556 204.239 116.074L201.498 114.685Z" fill="black"/>
<path d="M235.204 109.703C236.537 116.75 238.547 133.474 234.787 161.902C234.752 162.135 234.643 162.351 234.477 162.517C234.31 162.684 234.094 162.793 233.861 162.828C230.635 163.209 227.372 163.165 224.157 162.698C217.675 161.772 212.295 162.171 206.007 162.698C203.234 162.914 200.451 162.954 197.673 162.819C197.524 162.811 197.378 162.773 197.244 162.706C197.111 162.639 196.992 162.545 196.897 162.43C196.801 162.316 196.73 162.182 196.688 162.039C196.647 161.895 196.635 161.745 196.655 161.596C197.627 154.281 201.155 127.084 196.256 103.129C200.147 102.383 204.081 101.888 208.035 101.647C213.022 101.355 218.022 101.355 223.008 101.647C224.657 101.795 226.277 102.036 227.722 102.286C229.571 102.625 231.274 103.515 232.609 104.838C233.944 106.162 234.849 107.857 235.204 109.703V109.703Z" fill="url(#paint26_linear)"/>
<path d="M206.72 81.3307C208.405 87.646 209.081 91.4241 212.971 94.0446C218.832 97.9987 226.12 93.4613 226.351 86.7755C226.555 80.7565 223.759 71.4502 216.99 70.1724C215.497 69.8833 213.956 69.9808 212.512 70.4557C211.068 70.9306 209.77 71.767 208.741 72.8854C207.711 74.0038 206.985 75.367 206.632 76.8452C206.278 78.3234 206.309 79.8675 206.72 81.3307Z" fill="#FFE2CE"/>
<path d="M221.49 83.2658C223.462 87.618 222.842 91.5998 220.388 93.4518C217.61 95.5631 209.822 95.8872 206.868 92.8962C207.989 91.7758 208.609 90.3775 207.174 88.3866C205.739 86.3957 200.47 83.3028 200.368 79.0525C200.266 74.8022 203.081 74.3206 202.914 74.3206C200.423 73.2094 200.581 69.2091 203.322 67.0053C206.23 64.6625 210.952 64.0143 216.573 65.1533C220.12 65.857 223.601 65.7922 222.99 63.5513C227.166 65.9496 225.092 74.83 221.055 75.9967C221.694 77.5987 224.49 80.1452 224.49 80.1452C224.49 80.1452 223.805 82.7936 221.49 83.2658Z" fill="#263238"/>
<path d="M203.322 73.4595C203.322 73.4595 201.803 74.3855 197.812 73.2188C198.886 75.2097 202.877 75.2837 203.84 74.83C204.803 74.3762 203.322 73.4595 203.322 73.4595Z" fill="#263238"/>
<path d="M218.953 81.6732C219.316 83.1614 220.163 84.487 221.36 85.4421C222.944 86.6922 224.138 85.5439 224.138 83.7104C224.073 82.0621 223.212 79.4323 221.416 78.8952C219.619 78.3581 218.536 79.8768 218.953 81.6732Z" fill="#FFE2CE"/>
<path d="M235.454 108.74C236.278 110.657 237.056 112.593 237.852 114.519C238.649 116.445 239.427 118.38 240.195 120.315L244.77 131.881C245.538 133.789 246.307 135.687 247.085 137.511L247.677 138.826L247.825 139.15V139.224C247.825 139.224 247.825 139.224 247.77 139.132C247.638 138.9 247.486 138.68 247.316 138.474C246.971 138.094 246.56 137.781 246.103 137.548C245.768 137.361 245.405 137.226 245.029 137.15C244.797 137.098 244.562 137.067 244.325 137.057C244.18 137.048 244.035 137.048 243.89 137.057C243.746 137.067 243.603 137.092 243.464 137.132C243.386 137.146 243.31 137.175 243.242 137.215C243.519 137.162 243.788 137.069 244.038 136.937C244.408 136.77 244.825 136.567 245.233 136.344C246.918 135.418 248.696 134.409 250.464 133.381C252.233 132.353 254.067 131.316 255.9 130.335H255.956C256.47 130.057 257.064 129.968 257.637 130.082C258.21 130.196 258.725 130.507 259.093 130.96C259.462 131.413 259.661 131.98 259.656 132.564C259.651 133.148 259.443 133.712 259.067 134.159C256.297 137.519 253.195 140.591 249.807 143.326C249.353 143.678 248.881 144.03 248.353 144.391C247.725 144.832 247.055 145.211 246.353 145.521C246.053 145.649 245.743 145.754 245.427 145.836C245.163 145.905 244.893 145.952 244.621 145.975C244.409 145.989 244.195 145.989 243.982 145.975C243.671 145.969 243.36 145.932 243.056 145.864C242.621 145.767 242.2 145.611 241.806 145.401C241.287 145.123 240.825 144.749 240.445 144.299C240.253 144.069 240.079 143.825 239.927 143.567L239.843 143.41L239.788 143.317L239.584 142.938C239.297 142.428 239.056 141.947 238.788 141.447C237.778 139.502 236.861 137.585 236.01 135.659C234.222 131.816 232.546 127.983 230.907 124.13C230.092 122.204 229.29 120.272 228.5 118.334C227.713 116.398 226.925 114.463 226.175 112.518C225.676 111.29 225.684 109.914 226.199 108.693C226.714 107.471 227.693 106.504 228.921 106.004C230.149 105.504 231.525 105.513 232.747 106.028C233.969 106.543 234.936 107.522 235.435 108.75L235.454 108.74Z" fill="#CF7A64"/>
<path d="M259.623 126.501C258.44 127.178 257.403 128.083 256.57 129.161C255.738 130.24 255.126 131.473 254.77 132.789L257.058 135.724L262.058 134.178C262.454 134.053 262.796 133.798 263.03 133.455L265.595 129.668C265.795 129.299 265.885 128.881 265.856 128.463C265.826 128.045 265.678 127.644 265.429 127.307L262.715 123.658L259.623 126.501Z" fill="#FFE2CE"/>
<path d="M221.86 113.361C222.434 120.704 230.518 130.297 230.518 130.297L241.917 121.75C241.917 121.75 240.186 111.425 234.278 105.823C226.972 98.9059 221.314 106.49 221.86 113.361Z" fill="url(#paint27_linear)"/>
<path d="M224.629 101.619C223.573 98.5266 211.433 97.9895 204.118 98.7303C196.803 99.4711 200.488 105.166 201.72 105.962C198.405 107.194 200.173 113.046 206.35 115.917C212.526 118.787 225.944 105.351 224.629 101.619Z" fill="#263238"/>
<defs>
<linearGradient id="paint0_linear" x1="336.408" y1="325.437" x2="336.409" y2="333.925" gradientUnits="userSpaceOnUse">
<stop stop-color="#FF8B94" stop-opacity="0.7"/>
<stop offset="1" stop-color="#FFD3B6" stop-opacity="0.7"/>
</linearGradient>
<linearGradient id="paint1_linear" x1="388.996" y1="325.436" x2="388.997" y2="333.925" gradientUnits="userSpaceOnUse">
<stop stop-color="#FF8B94" stop-opacity="0.7"/>
<stop offset="1" stop-color="#FFD3B6" stop-opacity="0.7"/>
</linearGradient>
<linearGradient id="paint2_linear" x1="315.426" y1="126.441" x2="315.435" y2="147.799" gradientUnits="userSpaceOnUse">
<stop stop-color="#FF8B94" stop-opacity="0.7"/>
<stop offset="1" stop-color="#FFD3B6" stop-opacity="0.7"/>
</linearGradient>
<linearGradient id="paint3_linear" x1="332.013" y1="121.777" x2="332.031" y2="174.847" gradientUnits="userSpaceOnUse">
<stop stop-color="#FF8B94" stop-opacity="0.7"/>
<stop offset="1" stop-color="#FFD3B6" stop-opacity="0.7"/>
</linearGradient>
<linearGradient id="paint4_linear" x1="348.922" y1="169.23" x2="348.924" y2="173.461" gradientUnits="userSpaceOnUse">
<stop stop-color="#FF8B94" stop-opacity="0.7"/>
<stop offset="1" stop-color="#FFD3B6" stop-opacity="0.7"/>
</linearGradient>
<linearGradient id="paint5_linear" x1="323.385" y1="172.101" x2="323.387" y2="176.323" gradientUnits="userSpaceOnUse">
<stop stop-color="#FF8B94" stop-opacity="0.7"/>
<stop offset="1" stop-color="#FFD3B6" stop-opacity="0.7"/>
</linearGradient>
<linearGradient id="paint6_linear" x1="336.116" y1="170.666" x2="336.119" y2="174.887" gradientUnits="userSpaceOnUse">
<stop stop-color="#FF8B94" stop-opacity="0.7"/>
<stop offset="1" stop-color="#FFD3B6" stop-opacity="0.7"/>
</linearGradient>
<linearGradient id="paint7_linear" x1="347.494" y1="122.543" x2="347.499" y2="140.669" gradientUnits="userSpaceOnUse">
<stop stop-color="#FF8B94" stop-opacity="0.7"/>
<stop offset="1" stop-color="#FFD3B6" stop-opacity="0.7"/>
</linearGradient>
<linearGradient id="paint8_linear" x1="126.24" y1="157.406" x2="126.478" y2="315.572" gradientUnits="userSpaceOnUse">
<stop stop-color="#FF8B94" stop-opacity="0.7"/>
<stop offset="1" stop-color="#FFD3B6" stop-opacity="0.7"/>
</linearGradient>
<linearGradient id="paint9_linear" x1="116.966" y1="182.049" x2="117.007" y2="214.869" gradientUnits="userSpaceOnUse">
<stop stop-color="#FF8B94" stop-opacity="0.7"/>
<stop offset="1" stop-color="#FFD3B6" stop-opacity="0.7"/>
</linearGradient>
<linearGradient id="paint10_linear" x1="141.504" y1="323.901" x2="141.504" y2="325.795" gradientUnits="userSpaceOnUse">
<stop stop-color="#FF8B94" stop-opacity="0.7"/>
<stop offset="1" stop-color="#FFD3B6" stop-opacity="0.7"/>
</linearGradient>
<linearGradient id="paint11_linear" x1="140.59" y1="322.179" x2="140.591" y2="325.526" gradientUnits="userSpaceOnUse">
<stop stop-color="#FF8B94" stop-opacity="0.7"/>
<stop offset="1" stop-color="#FFD3B6" stop-opacity="0.7"/>
</linearGradient>
<linearGradient id="paint12_linear" x1="100.013" y1="156.154" x2="100.135" y2="308.358" gradientUnits="userSpaceOnUse">
<stop stop-color="#FF8B94" stop-opacity="0.7"/>
<stop offset="1" stop-color="#FFD3B6" stop-opacity="0.7"/>
</linearGradient>
<linearGradient id="paint13_linear" x1="80.4732" y1="317.396" x2="80.4735" y2="319.587" gradientUnits="userSpaceOnUse">
<stop stop-color="#FF8B94" stop-opacity="0.7"/>
<stop offset="1" stop-color="#FFD3B6" stop-opacity="0.7"/>
</linearGradient>
<linearGradient id="paint14_linear" x1="80.1307" y1="315.534" x2="80.1311" y2="317.775" gradientUnits="userSpaceOnUse">
<stop stop-color="#FF8B94" stop-opacity="0.7"/>
<stop offset="1" stop-color="#FFD3B6" stop-opacity="0.7"/>
</linearGradient>
<linearGradient id="paint15_linear" x1="108.459" y1="158.261" x2="108.461" y2="162.159" gradientUnits="userSpaceOnUse">
<stop stop-color="#FF8B94" stop-opacity="0.7"/>
<stop offset="1" stop-color="#FFD3B6" stop-opacity="0.7"/>
</linearGradient>
<linearGradient id="paint16_linear" x1="131.795" y1="162.28" x2="131.796" y2="166.187" gradientUnits="userSpaceOnUse">
<stop stop-color="#FF8B94" stop-opacity="0.7"/>
<stop offset="1" stop-color="#FFD3B6" stop-opacity="0.7"/>
</linearGradient>
<linearGradient id="paint17_linear" x1="120.192" y1="160.28" x2="120.193" y2="164.183" gradientUnits="userSpaceOnUse">
<stop stop-color="#FF8B94" stop-opacity="0.7"/>
<stop offset="1" stop-color="#FFD3B6" stop-opacity="0.7"/>
</linearGradient>
<linearGradient id="paint18_linear" x1="231.094" y1="23.2424" x2="231.149" y2="272.188" gradientUnits="userSpaceOnUse">
<stop stop-color="#FF8B94" stop-opacity="0.7"/>
<stop offset="1" stop-color="#FFD3B6" stop-opacity="0.7"/>
</linearGradient>
<linearGradient id="paint19_linear" x1="221.133" y1="326.498" x2="221.133" y2="328.119" gradientUnits="userSpaceOnUse">
<stop stop-color="#FF8B94" stop-opacity="0.7"/>
<stop offset="1" stop-color="#FFD3B6" stop-opacity="0.7"/>
</linearGradient>
<linearGradient id="paint20_linear" x1="220.219" y1="324.906" x2="220.22" y2="327.946" gradientUnits="userSpaceOnUse">
<stop stop-color="#FF8B94" stop-opacity="0.7"/>
<stop offset="1" stop-color="#FFD3B6" stop-opacity="0.7"/>
</linearGradient>
<linearGradient id="paint21_linear" x1="167.545" y1="323.698" x2="167.548" y2="327.982" gradientUnits="userSpaceOnUse">
<stop stop-color="#FF8B94" stop-opacity="0.7"/>
<stop offset="1" stop-color="#FFD3B6" stop-opacity="0.7"/>
</linearGradient>
<linearGradient id="paint22_linear" x1="166.761" y1="325.402" x2="166.762" y2="327.954" gradientUnits="userSpaceOnUse">
<stop stop-color="#FF8B94" stop-opacity="0.7"/>
<stop offset="1" stop-color="#FFD3B6" stop-opacity="0.7"/>
</linearGradient>
<linearGradient id="paint23_linear" x1="173.92" y1="313.577" x2="173.92" y2="319.368" gradientUnits="userSpaceOnUse">
<stop stop-color="#FF8B94" stop-opacity="0.7"/>
<stop offset="1" stop-color="#FFD3B6" stop-opacity="0.7"/>
</linearGradient>
<linearGradient id="paint24_linear" x1="215.652" y1="314.325" x2="215.652" y2="319.072" gradientUnits="userSpaceOnUse">
<stop stop-color="#FF8B94" stop-opacity="0.7"/>
<stop offset="1" stop-color="#FFD3B6" stop-opacity="0.7"/>
</linearGradient>
<linearGradient id="paint25_linear" x1="195.238" y1="102.267" x2="195.248" y2="128.908" gradientUnits="userSpaceOnUse">
<stop stop-color="#FF8B94" stop-opacity="0.7"/>
<stop offset="1" stop-color="#FFD3B6" stop-opacity="0.7"/>
</linearGradient>
<linearGradient id="paint26_linear" x1="216.549" y1="99.8716" x2="216.575" y2="163.085" gradientUnits="userSpaceOnUse">
<stop stop-color="#FF8B94" stop-opacity="0.7"/>
<stop offset="1" stop-color="#FFD3B6" stop-opacity="0.7"/>
</linearGradient>
<linearGradient id="paint27_linear" x1="231.844" y1="102.402" x2="231.854" y2="130.297" gradientUnits="userSpaceOnUse">
<stop stop-color="#FF8B94" stop-opacity="0.7"/>
<stop offset="1" stop-color="#FFD3B6" stop-opacity="0.7"/>
</linearGradient>
</defs>
</svg>
