<svg width="463" height="338" viewBox="0 0 463 338" fill="none" xmlns="http://www.w3.org/2000/svg">
<path d="M246.733 203.035C208.822 162.291 156.54 190.506 116.769 176.986C68.1073 160.439 45.8092 105.388 73.9596 77.4507C98.1097 53.5043 132.538 74.2652 166.004 74.506C211.702 74.8301 240.593 51.6801 292.32 69.5426C392.254 104.064 373.984 230.046 327.924 275.022C312.034 290.533 297.422 302.589 270.92 278.245C246.862 256.169 262.345 219.823 246.733 203.035Z" fill="#FF8B94"/>
<path opacity="0.9" d="M246.733 203.035C208.822 162.291 156.54 190.506 116.769 176.986C68.1073 160.439 45.8092 105.388 73.9596 77.4507C98.1097 53.5043 132.538 74.2652 166.004 74.506C211.702 74.8301 240.593 51.6801 292.32 69.5426C392.254 104.064 373.984 230.046 327.924 275.022C312.034 290.533 297.422 302.589 270.92 278.245C246.862 256.169 262.345 219.823 246.733 203.035Z" fill="white"/>
<path d="M293.348 67.6719H292.385V73.7651H293.348V67.6719Z" fill="url(#paint0_linear)"/>
<path d="M293.348 62.7182H292.422C292.417 59.1693 291.004 55.7672 288.494 53.2585C285.984 50.7499 282.58 49.3396 279.031 49.3372V48.4111C282.823 48.4233 286.456 49.9343 289.138 52.6145C291.82 55.2947 293.333 58.9267 293.348 62.7182V62.7182Z" fill="url(#paint1_linear)"/>
<path d="M278.995 51.7451H151.188C145.123 51.7451 140.206 56.6621 140.206 62.7275V323.396C140.206 329.462 145.123 334.379 151.188 334.379H278.995C285.06 334.379 289.977 329.462 289.977 323.396V62.7275C289.977 56.6621 285.06 51.7451 278.995 51.7451Z" fill="url(#paint2_linear)"/>
<path opacity="0.95" d="M284.995 323.396V62.7178C284.995 58.9896 281.973 55.9673 278.245 55.9673L150.438 55.9673C146.71 55.9673 143.688 58.9896 143.688 62.7178L143.688 323.396C143.688 327.124 146.71 330.147 150.438 330.147H278.245C281.973 330.147 284.995 327.124 284.995 323.396Z" fill="white"/>
<path d="M214.351 319.683C218.57 319.683 221.99 316.263 221.99 312.044C221.99 307.824 218.57 304.404 214.351 304.404C210.131 304.404 206.711 307.824 206.711 312.044C206.711 316.263 210.131 319.683 214.351 319.683Z" fill="url(#paint3_linear)"/>
<path d="M208.508 55.1987C208.508 56.8712 209.172 58.4753 210.355 59.6579C211.537 60.8406 213.141 61.505 214.814 61.505C216.486 61.505 218.09 60.8406 219.273 59.6579C220.456 58.4753 221.12 56.8712 221.12 55.1987H208.508Z" fill="url(#paint4_linear)"/>
<path opacity="0.7" d="M256.049 82.562H173.635C170.273 82.5718 167.052 83.9115 164.675 86.2885C162.298 88.6655 160.958 91.8866 160.948 95.2482V103.712C160.958 107.073 162.298 110.295 164.675 112.672C167.052 115.049 170.273 116.388 173.635 116.398H256.049L268.735 123.917V95.2112C268.713 91.8568 267.368 88.6465 264.993 86.278C262.617 83.9095 259.403 82.5741 256.049 82.562V82.562Z" fill="url(#paint5_linear)"/>
<path d="M253.752 94.6831H175.885V96.7944H253.752V94.6831Z" fill="white"/>
<path d="M253.752 102.165H190.867V104.276H253.752V102.165Z" fill="white"/>
<path opacity="0.15" d="M173.588 138.9H256.002C259.364 138.91 262.585 140.249 264.962 142.626C267.339 145.003 268.679 148.225 268.688 151.586V160.04C268.679 163.402 267.339 166.623 264.962 169C262.585 171.377 259.364 172.717 256.002 172.727H173.588L160.902 180.246V151.54C160.922 148.185 162.266 144.975 164.642 142.607C167.018 140.24 170.234 138.907 173.588 138.9V138.9Z" fill="url(#paint6_linear)"/>
<path opacity="0.5" d="M253.752 151.012H175.885V153.123H253.752V151.012Z" fill="url(#paint7_linear)"/>
<path opacity="0.5" d="M212 158.503H175.885V160.615H212V158.503Z" fill="url(#paint8_linear)"/>
<path opacity="0.5" d="M232.325 158.503H217.638V160.615H232.325V158.503Z" fill="url(#paint9_linear)"/>
<path opacity="0.7" d="M256.049 195.229H173.635C170.273 195.238 167.052 196.578 164.675 198.955C162.298 201.332 160.958 204.553 160.948 207.915V216.369C160.956 219.731 162.295 222.954 164.672 225.332C167.05 227.709 170.272 229.048 173.635 229.055H256.049L268.735 236.574V207.868C268.71 204.516 267.365 201.308 264.989 198.941C262.614 196.575 259.401 195.241 256.049 195.229Z" fill="url(#paint10_linear)"/>
<path d="M253.752 207.341H175.885V209.452H253.752V207.341Z" fill="white"/>
<path d="M253.752 214.832H190.867V216.943H253.752V214.832Z" fill="white"/>
<path opacity="0.15" d="M173.588 251.557H205.656C209.016 251.569 212.236 252.91 214.613 255.286C216.989 257.663 218.33 260.882 218.342 264.243V272.707C218.33 276.068 216.989 279.288 214.613 281.664C212.236 284.04 209.016 285.381 205.656 285.393H173.588L160.902 292.903V264.243C160.912 260.882 162.251 257.661 164.628 255.284C167.005 252.907 170.227 251.567 173.588 251.557V251.557Z" fill="url(#paint11_linear)"/>
<path opacity="0.5" d="M180.015 268.475C180.015 269.208 179.797 269.924 179.39 270.533C178.983 271.142 178.405 271.617 177.728 271.897C177.051 272.178 176.306 272.251 175.588 272.108C174.869 271.965 174.209 271.612 173.691 271.094C173.173 270.576 172.821 269.916 172.678 269.198C172.535 268.479 172.608 267.734 172.888 267.058C173.169 266.381 173.644 265.802 174.253 265.395C174.862 264.988 175.578 264.771 176.311 264.771C177.289 264.783 178.224 265.177 178.916 265.869C179.609 266.561 180.003 267.496 180.015 268.475V268.475Z" fill="url(#paint12_linear)"/>
<path opacity="0.5" d="M187.506 269.225C189.577 269.225 191.256 267.546 191.256 265.475C191.256 263.404 189.577 261.725 187.506 261.725C185.435 261.725 183.756 263.404 183.756 265.475C183.756 267.546 185.435 269.225 187.506 269.225Z" fill="url(#paint13_linear)"/>
<path opacity="0.5" d="M202.489 272.966C202.489 273.699 202.271 274.415 201.864 275.024C201.457 275.633 200.879 276.108 200.202 276.388C199.525 276.669 198.78 276.742 198.062 276.599C197.343 276.456 196.683 276.104 196.165 275.586C195.647 275.067 195.295 274.407 195.152 273.689C195.009 272.97 195.082 272.226 195.362 271.549C195.643 270.872 196.118 270.293 196.727 269.886C197.336 269.479 198.052 269.262 198.785 269.262C199.767 269.262 200.709 269.652 201.404 270.347C202.098 271.042 202.489 271.984 202.489 272.966Z" fill="url(#paint14_linear)"/>
<path d="M318.85 259.465C319.868 261.493 320.776 263.53 321.729 265.567C322.683 267.604 323.581 269.679 324.433 271.753C325.285 273.827 326.174 275.911 326.989 278.031C327.804 280.152 328.628 282.272 329.378 284.513L326.063 281.393C327.996 282.053 330.021 282.403 332.064 282.43C334.433 282.494 336.803 282.385 339.157 282.106C341.601 281.846 344.065 281.439 346.565 280.976C349.065 280.513 351.565 279.939 353.973 279.374L356.167 284.708C353.758 286.032 351.265 287.198 348.704 288.199C346.139 289.228 343.513 290.1 340.842 290.81C338.065 291.558 335.226 292.054 332.36 292.292C329.163 292.602 325.936 292.338 322.831 291.514L320.655 290.912L319.47 288.365C317.692 284.467 315.766 280.467 313.914 276.475C312.988 274.475 312.016 272.466 311.09 270.456C310.164 268.447 309.238 266.428 308.312 264.41L318.85 259.465Z" fill="#FFE0DB"/>
<path d="M350.954 281.004L354.593 277.448L360.372 283.698C360.372 283.698 358.279 287.356 353.074 285.226L350.954 281.004Z" fill="#FFE0DB"/>
<path d="M360.084 275.096L363.27 280.291L360.381 283.699L354.602 277.448L360.084 275.096Z" fill="#FFE0DB"/>
<path d="M302.496 251.14C309.905 248.279 315.646 252.548 325.008 264.364L314.044 275.633C314.044 275.633 288.05 256.678 302.496 251.14Z" fill="#263238"/>
<path opacity="0.2" d="M316.405 263.364C312.905 261.095 309.858 261.734 307.284 263.845C308.256 267.448 310.747 271.578 313.145 274.958C313.71 275.402 314.071 275.643 314.071 275.643L320.183 269.355C320.024 268.143 319.603 266.98 318.951 265.945C318.299 264.911 317.43 264.03 316.405 263.364Z" fill="black"/>
<path d="M358.917 329.694L367.789 328.666L367.048 310.479L358.186 311.497L358.917 329.694Z" fill="#FFE0DB"/>
<path d="M367.863 324.841L357.871 324.979C357.709 324.988 357.555 325.054 357.438 325.166C357.32 325.278 357.247 325.429 357.232 325.591L356.102 333.453C356.069 333.638 356.076 333.829 356.123 334.012C356.17 334.194 356.255 334.365 356.374 334.512C356.493 334.658 356.641 334.778 356.81 334.862C356.979 334.946 357.164 334.993 357.352 334.999C360.455 334.897 361.881 334.666 365.798 334.601C368.215 334.601 375.493 334.74 378.827 334.693C382.161 334.647 382.383 330.989 381.003 330.665C374.808 329.276 371.243 327.285 369.178 325.359C368.825 325.019 368.353 324.833 367.863 324.841V324.841Z" fill="#263238"/>
<path d="M369.983 322.526C370.123 322.473 370.273 322.454 370.422 322.472C370.57 322.49 370.712 322.543 370.835 322.627C370.933 322.676 371.017 322.748 371.08 322.836C371.143 322.925 371.183 323.029 371.196 323.137C371.307 324.063 369.344 325.73 369.076 325.915C369.049 325.934 369.016 325.945 368.983 325.945C368.95 325.945 368.917 325.934 368.89 325.915C368.859 325.898 368.833 325.873 368.817 325.841C368.8 325.81 368.794 325.774 368.798 325.739C368.863 324.739 369.094 322.961 369.881 322.563L369.983 322.526ZM369.177 325.359C369.955 324.683 370.918 323.665 370.854 323.155C370.854 323.1 370.854 323.016 370.696 322.942C370.605 322.876 370.497 322.835 370.384 322.826C370.272 322.816 370.159 322.837 370.057 322.887C369.631 323.118 369.307 324.035 369.177 325.359Z" fill="url(#paint15_linear)"/>
<path d="M369.891 325.026C370.218 324.853 370.577 324.748 370.946 324.716C371.315 324.685 371.687 324.727 372.039 324.841C372.16 324.917 372.253 325.03 372.305 325.164C372.357 325.297 372.364 325.444 372.326 325.582C372.307 325.712 372.258 325.836 372.182 325.943C372.107 326.051 372.007 326.14 371.891 326.202C370.965 326.711 369.002 325.952 368.918 325.924C368.89 325.911 368.864 325.892 368.843 325.868C368.822 325.844 368.807 325.816 368.798 325.785C368.792 325.755 368.794 325.724 368.803 325.694C368.813 325.665 368.83 325.639 368.854 325.619C369.163 325.363 369.513 325.162 369.891 325.026V325.026ZM371.613 325.952L371.715 325.906C371.788 325.864 371.85 325.806 371.898 325.737C371.946 325.669 371.978 325.59 371.993 325.507C371.993 325.285 371.946 325.202 371.872 325.165C371.428 324.878 370.067 325.248 369.335 325.72C370.058 326.008 370.847 326.088 371.613 325.952V325.952Z" fill="url(#paint16_linear)"/>
<path opacity="0.2" d="M358.186 311.506L367.048 310.479L367.428 319.859L358.519 319.896L358.186 311.506Z" fill="black"/>
<path d="M314.692 300.95C314.692 300.95 337.712 279.541 352.658 279.216C363.566 278.985 371.363 315.062 371.363 315.062L358.399 315.312C358.399 315.312 356.121 302.552 347.648 299.033C335.406 317.405 285.504 353.713 290.236 314.349C297.644 311.562 314.692 300.95 314.692 300.95Z" fill="url(#paint17_linear)"/>
<path opacity="0.2" d="M314.692 300.95C314.692 300.95 337.712 279.541 352.658 279.216C363.566 278.985 371.363 315.062 371.363 315.062L358.399 315.312C358.399 315.312 356.121 302.552 347.648 299.033C335.406 317.405 285.504 353.713 290.236 314.349C297.644 311.562 314.692 300.95 314.692 300.95Z" fill="black"/>
<path d="M371.317 316.85L356.075 318.313L356.121 312.757L372.243 310.84L371.317 316.85Z" fill="#263238"/>
<path d="M284.467 315.71C284.467 315.71 274.568 296.375 273.355 265.234C273.077 257.9 279.68 250.983 287.245 250.594C293.598 250.261 300.32 250.177 305.765 250.196C311.21 250.214 315.377 253.826 315.997 259.067C317.368 270.623 317.609 288.171 324.693 309.071L284.467 315.71Z" fill="#263238"/>
<path opacity="0.2" d="M277.994 265.391C283.449 259.233 285.329 261.197 286.144 261.937C293.7 268.781 282.606 290.088 280.384 293.228C278.822 285.27 277.893 277.2 277.606 269.096C277.549 267.848 277.68 266.6 277.994 265.391V265.391Z" fill="black"/>
<path d="M294.617 232.084C294.005 237.761 292.505 246.474 288.644 250.521C291.681 253.383 296.626 256.198 303.655 257.374C307.285 255.874 307.766 252.531 306.007 250.206C299.802 249.123 299.876 247.363 302.219 243.409L294.617 232.084Z" fill="#FFE0DB"/>
<path opacity="0.2" d="M297.719 236.705L302.219 243.4C301.623 244.322 301.158 245.322 300.84 246.373C298.636 245.447 296.209 242.076 296.691 239.594C296.859 238.578 297.207 237.599 297.719 236.705Z" fill="black"/>
<path d="M310.877 221.62C314.516 225.481 322.165 225.5 318.877 220.925C315.59 216.351 308.043 218.61 310.877 221.62Z" fill="#263238"/>
<path d="M296.126 221.203C294.098 228.611 292.542 232.76 294.848 237.872C295.548 239.539 296.694 240.981 298.159 242.04C299.625 243.1 301.353 243.735 303.156 243.878C304.958 244.02 306.765 243.664 308.379 242.848C309.992 242.032 311.35 240.788 312.304 239.251C316.008 233.399 318.73 222.333 312.795 216.712C311.565 215.456 310.023 214.55 308.327 214.087C306.631 213.625 304.843 213.622 303.146 214.079C301.449 214.536 299.904 215.437 298.67 216.689C297.436 217.941 296.558 219.499 296.126 221.203Z" fill="#FFE0DB"/>
<path d="M294.468 228.074C295.394 227.908 299.969 226.519 302.201 224.37C304.71 221.953 304.729 219.611 304.053 218.546C303.377 217.481 298.08 215.434 295.607 215.907C291.7 216.657 292.663 223.574 292.718 225.445C292.748 226 292.926 226.536 293.234 226.999C293.541 227.462 293.968 227.833 294.468 228.074Z" fill="#FFE0DB"/>
<path opacity="0.7" d="M294.468 228.074C295.394 227.908 299.969 226.519 302.201 224.37C304.71 221.953 304.729 219.611 304.053 218.546C303.377 217.481 298.08 215.434 295.607 215.907C291.7 216.657 292.663 223.574 292.718 225.445C292.748 226 292.926 226.536 293.234 226.999C293.541 227.462 293.968 227.833 294.468 228.074Z" fill="#263238"/>
<path d="M290.588 228.584C291.309 230.175 292.601 231.438 294.209 232.121C296.339 232.983 297.552 231.195 297.089 229.019C296.672 227.102 295.061 224.333 292.866 224.389C290.672 224.445 289.718 226.621 290.588 228.584Z" fill="#FFE0DB"/>
<path d="M297.552 218.12C306.998 220.138 313.711 225.454 318.175 222.259C321.333 219.999 319.258 215.879 315.637 212.897C312.545 210.35 308.229 209.563 306.933 207.479C306.782 208.172 306.84 208.895 307.101 209.554C307.361 210.214 307.812 210.781 308.396 211.184C308.396 211.184 299.867 209.869 297.506 207.646C296.941 208.97 299.126 211.526 299.126 211.526C299.126 211.526 296.719 213.813 289.866 211.23C290.274 213.443 292.181 216.971 297.552 218.12Z" fill="#263238"/>
<path d="M316.312 223.009H315.942V222.528C316.758 222.629 317.584 222.46 318.295 222.047C319.006 221.634 319.562 220.999 319.878 220.24C320.232 219.226 320.258 218.125 319.952 217.095C319.647 216.064 319.024 215.156 318.174 214.499C317.356 213.862 316.463 213.327 315.516 212.906C313.321 211.804 310.83 210.554 309.626 206.915L310.08 206.767C311.219 210.211 313.516 211.397 315.738 212.471C316.728 212.912 317.661 213.472 318.516 214.138C319.452 214.854 320.135 215.849 320.468 216.979C320.801 218.11 320.766 219.316 320.368 220.425C320.043 221.223 319.478 221.9 318.752 222.363C318.025 222.826 317.173 223.052 316.312 223.009V223.009Z" fill="#263238"/>
<path d="M306.83 228.398C306.626 228.981 306.774 229.583 307.145 229.731C307.515 229.879 307.987 229.528 308.191 228.944C308.395 228.361 308.247 227.759 307.876 227.611C307.506 227.463 307.024 227.796 306.83 228.398Z" fill="#263238"/>
<path d="M313.812 230.509C313.618 231.092 313.756 231.685 314.136 231.833C314.516 231.981 314.979 231.639 315.173 231.046C315.368 230.454 315.238 229.87 314.858 229.713C314.479 229.555 314.016 229.916 313.812 230.509Z" fill="#263238"/>
<path d="M311.247 229.796C311.32 231.87 311.669 233.926 312.284 235.908C310.932 236.463 309.349 235.334 309.349 235.334L311.247 229.796Z" fill="#ED847E"/>
<path d="M305.58 236.741C304.325 236.05 303.394 234.892 302.987 233.518C302.98 233.496 302.978 233.472 302.981 233.449C302.984 233.425 302.992 233.403 303.004 233.383C303.016 233.363 303.033 233.345 303.052 233.332C303.071 233.319 303.093 233.31 303.117 233.305C303.14 233.3 303.164 233.299 303.187 233.303C303.211 233.308 303.233 233.316 303.253 233.329C303.273 233.342 303.29 233.359 303.303 233.379C303.316 233.399 303.325 233.421 303.33 233.444C303.567 234.191 303.969 234.875 304.506 235.445C305.043 236.016 305.701 236.459 306.432 236.741C306.477 236.759 306.513 236.795 306.532 236.84C306.552 236.885 306.552 236.936 306.534 236.982C306.528 237.004 306.517 237.026 306.502 237.043C306.487 237.061 306.468 237.076 306.447 237.086C306.425 237.095 306.402 237.1 306.379 237.1C306.355 237.1 306.332 237.094 306.311 237.084C306.06 236.986 305.816 236.872 305.58 236.741V236.741Z" fill="#263238"/>
<path d="M304.933 224.565C304.876 224.534 304.828 224.489 304.794 224.435C304.741 224.355 304.722 224.258 304.741 224.164C304.76 224.07 304.816 223.988 304.896 223.935C305.365 223.617 305.906 223.421 306.47 223.364C307.035 223.308 307.604 223.392 308.127 223.611C308.172 223.631 308.212 223.659 308.245 223.695C308.279 223.73 308.305 223.772 308.322 223.818C308.339 223.863 308.347 223.912 308.345 223.961C308.344 224.009 308.333 224.057 308.313 224.102C308.295 224.144 308.268 224.183 308.235 224.215C308.201 224.247 308.162 224.272 308.119 224.288C308.075 224.305 308.029 224.312 307.983 224.311C307.937 224.309 307.891 224.297 307.85 224.277V224.277C307.432 224.116 306.981 224.057 306.536 224.107C306.091 224.157 305.665 224.314 305.294 224.565C305.239 224.596 305.177 224.613 305.113 224.613C305.05 224.613 304.987 224.596 304.933 224.565V224.565Z" fill="#263238"/>
<path d="M316.192 228.778C316.135 228.758 316.083 228.725 316.041 228.682C315.999 228.638 315.968 228.585 315.951 228.528C315.832 228.077 315.612 227.659 315.307 227.305C315.002 226.952 314.62 226.674 314.192 226.49C314.1 226.459 314.024 226.393 313.979 226.307C313.934 226.221 313.924 226.121 313.951 226.027C313.962 225.982 313.983 225.94 314.012 225.904C314.04 225.867 314.076 225.837 314.117 225.815C314.158 225.794 314.203 225.781 314.25 225.777C314.296 225.774 314.342 225.78 314.386 225.796C314.931 226.015 315.418 226.359 315.807 226.799C316.196 227.24 316.476 227.765 316.627 228.333C316.643 228.378 316.649 228.426 316.646 228.473C316.643 228.521 316.63 228.567 316.608 228.61C316.587 228.652 316.557 228.69 316.52 228.72C316.484 228.751 316.441 228.773 316.395 228.787C316.328 228.802 316.258 228.799 316.192 228.778Z" fill="#263238"/>
<path d="M389.689 334.018L394.967 326.341L380.753 313.96L375.474 321.637L389.689 334.018Z" fill="#FFE0DB"/>
<path d="M391.318 322.711L385.123 330.425C385.015 330.555 384.955 330.719 384.955 330.888C384.955 331.057 385.015 331.221 385.123 331.351L389.948 337.352C390.062 337.495 390.207 337.61 390.373 337.689C390.538 337.768 390.718 337.81 390.902 337.81C391.085 337.81 391.265 337.768 391.431 337.689C391.596 337.61 391.741 337.495 391.855 337.352C393.809 334.833 395.115 332.898 397.624 329.768C399.171 327.841 404.033 322.211 406.172 319.581C408.311 316.951 405.866 314.359 404.746 315.248C399.717 319.22 395.245 321.656 392.541 322.026C392.062 322.095 391.626 322.339 391.318 322.711Z" fill="#263238"/>
<path d="M390.911 319.544C390.955 319.401 391.032 319.27 391.135 319.161C391.237 319.052 391.363 318.968 391.503 318.915C391.601 318.864 391.709 318.838 391.818 318.838C391.928 318.838 392.036 318.864 392.133 318.915C392.976 319.405 393.059 321.98 393.059 322.276C393.058 322.31 393.047 322.343 393.027 322.371C393.007 322.399 392.98 322.421 392.948 322.433C392.919 322.451 392.885 322.461 392.851 322.461C392.816 322.461 392.783 322.451 392.753 322.433C391.994 321.785 390.735 320.581 390.901 319.655C390.899 319.618 390.902 319.581 390.911 319.544V319.544ZM392.698 321.887C392.624 320.85 392.392 319.479 391.948 319.22C391.905 319.199 391.857 319.188 391.809 319.188C391.761 319.188 391.713 319.199 391.67 319.22C391.564 319.257 391.469 319.321 391.394 319.405C391.32 319.49 391.268 319.592 391.244 319.702C391.179 320.183 391.698 320.989 392.698 321.887V321.887Z" fill="url(#paint18_linear)"/>
<path d="M392.874 321.118C393.087 320.331 393.494 319.479 394.004 319.266C394.138 319.214 394.285 319.207 394.423 319.245C394.562 319.283 394.684 319.365 394.772 319.479C394.865 319.573 394.934 319.687 394.976 319.812C395.018 319.938 395.03 320.071 395.013 320.201C394.883 321.22 393.087 322.368 393.004 322.415C392.977 322.431 392.947 322.44 392.916 322.44C392.885 322.44 392.854 322.431 392.828 322.415C392.798 322.405 392.773 322.386 392.754 322.361C392.736 322.336 392.726 322.306 392.726 322.276C392.71 321.884 392.76 321.493 392.874 321.118V321.118ZM394.633 320.275C394.633 320.275 394.633 320.211 394.633 320.174C394.645 320.091 394.637 320.007 394.609 319.928C394.582 319.849 394.536 319.778 394.476 319.72C394.328 319.553 394.217 319.562 394.133 319.599C393.643 319.785 393.124 321.1 393.059 321.961C393.728 321.554 394.273 320.971 394.633 320.275V320.275Z" fill="url(#paint19_linear)"/>
<path opacity="0.2" d="M375.474 321.637L380.753 313.96L388.087 320.34L382.031 327.35L375.474 321.637Z" fill="black"/>
<path d="M298.922 312.886C298.922 312.886 339.388 271.772 357.602 289.365C368.946 300.329 385.614 315.432 385.614 315.432L375.956 324.831C375.956 324.831 351.491 311.821 345.12 304.635C311.691 342.009 281.819 344.564 284.504 315.747C289.243 314.482 294.059 313.526 298.922 312.886V312.886Z" fill="url(#paint20_linear)"/>
<path d="M388.494 315.516L377.882 328.851L373.381 325.832L384.225 311.673L388.494 315.516Z" fill="#263238"/>
<path d="M284.606 262.623L285.402 279.476C285.55 282.254 285.726 285.032 285.939 287.81C286.05 289.171 286.199 290.514 286.347 291.801C286.43 292.449 286.513 293.079 286.615 293.653C286.717 294.227 286.828 294.764 286.902 295.088C286.907 295.137 286.907 295.187 286.902 295.236C286.75 294.961 286.534 294.726 286.273 294.551C286.122 294.442 285.952 294.36 285.773 294.31C285.671 294.31 285.615 294.31 285.661 294.31C286.419 294.427 287.194 294.377 287.93 294.162C290.38 293.551 292.765 292.704 295.051 291.634C297.524 290.551 299.987 289.301 302.459 288.004C304.932 286.708 307.404 285.328 309.802 283.985L313.266 288.615C308.924 292.656 304.208 296.274 299.181 299.422C297.894 300.209 296.56 300.968 295.153 301.681C293.683 302.44 292.157 303.084 290.588 303.607C289.695 303.902 288.782 304.131 287.856 304.293C286.718 304.505 285.556 304.561 284.402 304.459C283.657 304.39 282.923 304.228 282.217 303.978C281.366 303.678 280.567 303.251 279.846 302.709C279.095 302.127 278.447 301.422 277.929 300.626C277.693 300.261 277.483 299.881 277.3 299.487L276.948 298.635C276.622 297.753 276.347 296.853 276.124 295.94C275.92 295.116 275.753 294.347 275.605 293.579C275.3 292.051 275.068 290.56 274.864 289.088C274.438 286.143 274.133 283.235 273.874 280.337C273.355 274.54 273.049 268.808 272.948 262.984L284.606 262.623Z" fill="#FFE0DB"/>
<path d="M281.763 251.761C277.402 252.251 270.873 256.391 270.651 275.633L289.357 274.161C289.357 274.161 298.173 249.881 281.763 251.761Z" fill="#263238"/>
<path d="M325.536 274.235L318.59 274.688C318.18 274.745 317.797 274.924 317.49 275.201C317.183 275.479 316.966 275.842 316.868 276.244L313.618 291.505C313.563 291.671 313.55 291.848 313.581 292.02C313.612 292.193 313.686 292.354 313.795 292.491C313.905 292.627 314.047 292.734 314.208 292.801C314.37 292.868 314.546 292.894 314.72 292.876L321.665 292.422C322.076 292.367 322.46 292.19 322.768 291.912C323.075 291.634 323.291 291.269 323.387 290.866L326.638 275.605C326.693 275.439 326.705 275.262 326.674 275.09C326.643 274.918 326.57 274.756 326.46 274.62C326.35 274.483 326.208 274.377 326.047 274.309C325.885 274.242 325.71 274.216 325.536 274.235Z" fill="url(#paint21_linear)"/>
<path d="M310.367 283.625L316.118 281.625L314.701 290.635C314.701 290.635 308.293 292.042 307.765 288.597L308.691 285.532C308.808 285.108 309.02 284.716 309.31 284.386C309.6 284.055 309.962 283.795 310.367 283.625V283.625Z" fill="#FFE0DB"/>
<path d="M322.693 282.384L320.202 290.403L314.701 290.635L316.118 281.625L322.693 282.384Z" fill="#FFE0DB"/>
<path d="M123.51 93.5259C118.992 83.0343 143.632 72.0519 150.596 88.3866C162.421 93.5259 147.309 115.379 150.726 119.083C154.143 122.787 156.717 118.296 156.717 118.296C156.717 118.296 160.171 127.501 151.365 134.872C143.475 141.493 119.742 143.289 119.686 130.242C119.612 113.277 129.437 107.277 123.51 93.5259Z" fill="#263238"/>
<path d="M146.17 313.785L139.539 317.647L123.621 299.45L131.881 291.996L146.17 313.785Z" fill="#FEE4CB"/>
<path d="M138.78 315.979L145.623 310.729C145.73 310.633 145.869 310.58 146.012 310.58C146.156 310.58 146.294 310.633 146.401 310.729L150.939 315.211C151.05 315.336 151.133 315.484 151.182 315.643C151.232 315.803 151.248 315.972 151.227 316.138C151.207 316.304 151.152 316.464 151.066 316.608C150.979 316.751 150.863 316.875 150.726 316.97C148.318 318.757 147.068 319.507 144.058 321.822C142.206 323.239 138.502 326.351 135.965 328.305C133.428 330.259 131.501 328.008 132.4 326.98C136.456 322.35 137.335 319.572 137.956 317.1C138.096 316.644 138.387 316.249 138.78 315.979V315.979Z" fill="#263238"/>
<path d="M137.243 318.72C136.766 319.164 136.158 319.44 135.511 319.507C135.356 319.501 135.206 319.456 135.074 319.377C134.941 319.297 134.83 319.186 134.752 319.053C134.706 318.969 134.682 318.875 134.682 318.78C134.682 318.685 134.706 318.591 134.752 318.507C135.215 317.581 138.511 316.849 138.882 316.766C138.917 316.76 138.954 316.765 138.987 316.78C139.02 316.795 139.047 316.819 139.067 316.849C139.085 316.88 139.094 316.915 139.094 316.951C139.094 316.987 139.085 317.022 139.067 317.053C138.511 317.663 137.9 318.221 137.243 318.72V318.72ZM135.279 318.377C135.182 318.444 135.103 318.533 135.048 318.637C135.027 318.668 135.016 318.705 135.016 318.743C135.016 318.781 135.027 318.818 135.048 318.85C135.096 318.939 135.167 319.014 135.253 319.067C135.339 319.121 135.437 319.151 135.539 319.155C136.141 319.155 137.187 318.47 138.372 317.229C137.285 317.44 136.24 317.827 135.279 318.377V318.377Z" fill="url(#paint22_linear)"/>
<path d="M138.984 317.071H138.91C137.984 317.321 135.604 317.192 135.206 316.46C135.122 316.294 135.094 316.007 135.465 315.664C135.729 315.418 136.077 315.282 136.437 315.284C137.65 315.284 138.947 316.72 138.993 316.784C139.009 316.809 139.017 316.838 139.017 316.868C139.017 316.897 139.009 316.926 138.993 316.951C139.002 316.991 138.999 317.033 138.984 317.071V317.071ZM135.798 315.877L135.715 315.951C135.474 316.173 135.53 316.284 135.548 316.321C135.77 316.766 137.465 316.979 138.521 316.831C137.968 316.227 137.233 315.82 136.428 315.673C136.201 315.668 135.979 315.74 135.798 315.877V315.877Z" fill="url(#paint23_linear)"/>
<path d="M122.066 131.566C121.631 133.557 121.14 135.353 120.584 137.215C120.029 139.076 119.454 140.919 118.788 142.697C117.507 146.35 116.004 149.922 114.287 153.392L112.926 155.985C112.435 156.837 112 157.689 111.444 158.532L110.648 159.782C110.37 160.208 110.157 160.588 109.777 161.088C109.592 161.328 109.407 161.569 109.157 161.856C108.842 162.227 108.489 162.562 108.101 162.856C107.633 163.215 107.093 163.467 106.518 163.597C106.25 163.657 105.977 163.688 105.703 163.69C105.368 163.693 105.034 163.647 104.712 163.551C104.111 163.388 103.565 163.069 103.129 162.625C102.691 162.187 102.373 161.645 102.203 161.051C102.117 160.776 102.058 160.494 102.027 160.208C101.954 159.54 101.954 158.866 102.027 158.198C102.091 157.643 102.184 157.124 102.277 156.624C102.462 155.615 102.703 154.67 102.953 153.726C103.473 151.867 104.091 150.037 104.805 148.244L108.509 149.059L108.259 154.615C108.259 155.541 108.203 156.411 108.194 157.263C108.194 157.689 108.194 158.106 108.194 158.476C108.192 158.743 108.23 159.008 108.305 159.263C108.305 159.263 108.305 159.263 108.305 159.097C108.191 158.746 107.994 158.429 107.731 158.171C107.372 157.805 106.926 157.538 106.435 157.393C106.168 157.321 105.895 157.281 105.62 157.272C105.402 157.276 105.185 157.301 104.971 157.347C104.64 157.427 104.326 157.569 104.045 157.763C103.851 157.902 103.925 157.828 103.962 157.763L104.175 157.402L105.416 155.18C105.833 154.402 106.212 153.605 106.62 152.818L107.759 150.411C109.203 147.142 110.537 143.78 111.648 140.354C112.222 138.641 112.75 136.909 113.278 135.177C113.806 133.446 114.278 131.659 114.695 130.02L122.066 131.566Z" fill="#FEE4CB"/>
<path d="M118.899 121.926C116.213 122.362 111.953 139.428 111.953 139.428L118.149 144.197C118.149 144.197 124.362 131.863 124.631 126.316C124.816 122.297 120.927 121.602 118.899 121.926Z" fill="#FEE4CB"/>
<path d="M109.185 149.882L108.138 141.4L103.277 148.53C103.484 149.39 103.936 150.17 104.579 150.777C105.222 151.384 106.028 151.79 106.897 151.947L109.185 149.882Z" fill="#FEE4CB"/>
<path d="M143.16 328.184L135.752 328.434L134.335 302.58L144.614 302.728L143.16 328.184Z" fill="#FEE4CB"/>
<path d="M135.252 326.072L143.586 326.016C143.726 326.011 143.862 326.061 143.965 326.154C144.069 326.247 144.132 326.377 144.142 326.517L144.642 333.082C144.647 333.427 144.515 333.759 144.276 334.008C144.036 334.256 143.709 334.399 143.364 334.406C140.475 334.406 139.086 334.212 135.437 334.24C133.187 334.24 129.881 334.508 126.788 334.536C123.695 334.564 123.723 331.489 125.038 331.202C130.918 329.915 131.946 328.193 134.011 326.572C134.36 326.275 134.795 326.1 135.252 326.072V326.072Z" fill="#263238"/>
<path d="M118.445 121.871C118.445 121.871 114.741 122.797 114.741 166.624L144.456 169.254C145.947 157.04 147.151 149.53 156.994 125.065C152.956 123.829 148.829 122.9 144.651 122.287C140.191 121.562 135.685 121.163 131.168 121.093C125.242 121.102 118.445 121.871 118.445 121.871Z" fill="url(#paint24_linear)"/>
<path opacity="0.2" d="M151.096 130.659L152.679 136.057C151.438 139.4 150.411 142.354 149.549 145.012C148.893 140.173 149.424 135.247 151.096 130.659Z" fill="black"/>
<path d="M108.138 141.4L103.277 148.53L109.185 148.188L112.333 141.668L108.138 141.4Z" fill="#FEE4CB"/>
<path d="M111.222 157.8L116.778 157.717C116.961 157.713 117.142 157.671 117.307 157.593C117.473 157.515 117.62 157.402 117.739 157.263C117.858 157.124 117.946 156.961 117.997 156.786C118.049 156.61 118.063 156.426 118.038 156.244L116.306 143.789C116.265 143.477 116.11 143.191 115.871 142.985C115.631 142.78 115.325 142.671 115.01 142.678L109.454 142.761C109.271 142.762 109.09 142.802 108.924 142.879C108.757 142.955 108.609 143.067 108.49 143.206C108.371 143.344 108.282 143.507 108.231 143.683C108.18 143.859 108.168 144.043 108.194 144.225L109.926 156.68C109.967 156.993 110.121 157.28 110.361 157.487C110.6 157.694 110.906 157.805 111.222 157.8Z" fill="#263238"/>
<path d="M145.763 106.87C144.198 111.167 142.059 119.094 144.605 122.279C140.176 125.983 135.212 128.995 129.882 131.215C126.779 123.974 131.123 121.085 131.123 121.085C136.151 120.353 136.614 116.723 136.318 113.25L145.763 106.87Z" fill="#FEE4CB"/>
<path d="M125.409 101.944C124.631 114.806 116.899 118.492 118.714 125.094C121.279 134.355 131.743 127.104 131.743 127.104C131.743 127.104 126.048 128.956 125.687 124.456C125.391 120.751 138.54 121.326 134.892 112.612C132.549 107 125.409 101.944 125.409 101.944Z" fill="#263238"/>
<path opacity="0.2" d="M143.068 110.121L136.327 113.251C136.401 114.064 136.401 114.882 136.327 115.695C137.734 115.825 141.383 114.769 142.763 112.491C143.145 111.763 143.253 110.922 143.068 110.121Z" fill="black"/>
<path d="M146.93 94.7766C147.606 102.074 148.05 105.157 144.967 109.436C140.336 115.871 131.215 115.112 128.372 108.148C125.807 101.888 125.131 90.9984 131.771 87.0257C133.229 86.1402 134.891 85.6426 136.596 85.5804C138.301 85.5182 139.994 85.8933 141.514 86.6702C143.033 87.447 144.328 88.5998 145.276 90.0187C146.224 91.4376 146.794 93.0755 146.93 94.7766Z" fill="#FEE4CB"/>
<path d="M145.318 87.4516C139.558 83.4975 134.77 91.0909 144.993 98.4713C155.217 105.852 151.865 91.9428 145.318 87.4516Z" fill="#263238"/>
<path d="M142.254 85.3311C144.633 87.4702 130.465 95.3599 122.761 92.7393C115.056 90.1186 121.242 84.2384 124.048 83.479C121.64 85.8033 125.854 89.3315 127.891 87.1276C129.928 84.9236 137.475 81.0436 142.254 85.3311Z" fill="#263238"/>
<path d="M114.704 166.625C114.704 166.625 99.0266 233.009 100.406 249.77C102.008 269.364 123.436 300.95 123.436 300.95L133.279 292.014C133.279 292.014 123.51 266.142 116.278 249.289C118.593 232.435 139.058 184.82 139.058 168.782L114.704 166.625Z" fill="url(#paint25_linear)"/>
<path opacity="0.6" d="M114.704 166.625C114.704 166.625 99.0266 233.009 100.406 249.77C102.008 269.364 123.436 300.95 123.436 300.95L133.279 292.014C133.279 292.014 123.51 266.142 116.278 249.289C118.593 232.435 139.058 184.82 139.058 168.782L114.704 166.625Z" fill="black"/>
<path d="M135.094 293.348L123.464 302.015L120.482 299.747L133.242 289.681L135.094 293.348Z" fill="url(#paint26_linear)"/>
<path opacity="0.2" d="M126.307 195.821C117.667 207.785 117.25 229.787 117.787 242.121C120.751 230.769 126.964 213.813 131.918 198.534C131.798 192.682 130.344 190.219 126.307 195.821Z" fill="black"/>
<path d="M120.278 166.68C120.278 166.68 126.019 224.008 127.936 243.362C130.214 266.336 133.557 303.181 133.557 303.181L144.613 302.718C144.613 302.718 147.04 271.484 145.243 250.862C145.567 223.545 149.595 186.403 144.41 169.217L120.278 166.68Z" fill="url(#paint27_linear)"/>
<path opacity="0.6" d="M120.278 166.68C120.278 166.68 126.019 224.008 127.936 243.362C130.214 266.336 133.557 303.181 133.557 303.181L144.613 302.718C144.613 302.718 147.04 271.484 145.243 250.862C145.567 223.545 149.595 186.403 144.41 169.217L120.278 166.68Z" fill="black"/>
<path d="M145.456 304.747L132.77 304.385L131.881 300.394L146.234 299.996L145.456 304.747Z" fill="url(#paint28_linear)"/>
<path d="M135.577 98.8045C135.669 99.3879 135.429 99.9157 135.04 99.9806C134.651 100.045 134.271 99.6102 134.179 99.0545C134.086 98.4989 134.327 97.9433 134.716 97.8785C135.105 97.8137 135.484 98.2119 135.577 98.8045Z" fill="#263238"/>
<path d="M128.919 99.8326C129.011 100.425 128.77 100.953 128.382 101.009C127.993 101.064 127.613 100.638 127.52 100.083C127.428 99.527 127.668 98.9621 128.057 98.9065C128.446 98.851 128.826 99.2492 128.919 99.8326Z" fill="#263238"/>
<path d="M128.224 98.8786L126.752 98.6934C126.752 98.6934 127.65 99.6842 128.224 98.8786Z" fill="#263238"/>
<path d="M131.104 100.416C130.785 101.84 130.274 103.213 129.585 104.5C129.919 104.667 130.284 104.759 130.657 104.77C131.03 104.781 131.4 104.711 131.743 104.565L131.104 100.416Z" fill="#FF5652"/>
<path d="M135.577 106.185C135.276 106.291 134.966 106.369 134.651 106.416C134.605 106.424 134.559 106.414 134.521 106.388C134.482 106.362 134.456 106.323 134.447 106.277C134.443 106.254 134.444 106.23 134.449 106.208C134.455 106.185 134.464 106.163 134.478 106.144C134.492 106.125 134.509 106.109 134.53 106.097C134.55 106.085 134.572 106.077 134.595 106.074C135.331 105.978 136.034 105.709 136.646 105.289C137.258 104.869 137.761 104.309 138.114 103.657C138.136 103.617 138.171 103.586 138.214 103.571C138.257 103.556 138.304 103.556 138.346 103.573C138.367 103.582 138.386 103.596 138.402 103.612C138.419 103.629 138.431 103.648 138.44 103.67C138.449 103.691 138.453 103.714 138.453 103.738C138.452 103.761 138.447 103.784 138.438 103.805C137.832 104.941 136.805 105.795 135.577 106.185Z" fill="#263238"/>
<path d="M148.957 99.7582C148.907 100.467 148.718 101.159 148.4 101.795C148.082 102.431 147.642 102.997 147.105 103.462C145.679 104.685 144.169 103.61 143.901 101.842C143.651 100.258 144.104 97.7117 145.854 97.2116C146.234 97.0949 146.637 97.0741 147.027 97.1509C147.417 97.2278 147.782 97.4 148.089 97.6522C148.396 97.9043 148.636 98.2286 148.788 98.5961C148.939 98.9636 148.997 99.3628 148.957 99.7582Z" fill="#FEE4CB"/>
<path d="M138.604 95.1558C138.558 95.165 138.51 95.1648 138.464 95.1553C138.418 95.1458 138.374 95.127 138.335 95.1003C137.982 94.8375 137.57 94.6626 137.135 94.5901C136.701 94.5177 136.255 94.5497 135.835 94.6836C135.793 94.7015 135.747 94.7107 135.701 94.7105C135.655 94.7104 135.609 94.701 135.567 94.6829C135.524 94.6647 135.486 94.6382 135.454 94.6049C135.422 94.5716 135.398 94.5322 135.381 94.4891C135.348 94.4031 135.349 94.3073 135.386 94.2224C135.422 94.1375 135.49 94.0703 135.576 94.0354C136.103 93.856 136.665 93.807 137.215 93.8924C137.765 93.9779 138.286 94.1953 138.734 94.5261C138.809 94.5786 138.86 94.6582 138.878 94.7481C138.895 94.838 138.876 94.9311 138.826 95.0077C138.771 95.0812 138.693 95.1335 138.604 95.1558V95.1558Z" fill="#263238"/>
<path d="M126.03 97.2767C125.989 97.2951 125.945 97.3046 125.9 97.3046C125.855 97.3046 125.811 97.2951 125.77 97.2767C125.728 97.2578 125.691 97.2307 125.66 97.1969C125.628 97.1632 125.604 97.1236 125.589 97.0804C125.573 97.0372 125.567 96.9914 125.569 96.9455C125.572 96.8997 125.583 96.8549 125.604 96.8136C125.823 96.3031 126.162 95.853 126.593 95.5015C127.023 95.1501 127.532 94.9077 128.076 94.7949C128.165 94.7884 128.253 94.8157 128.322 94.8713C128.391 94.9269 128.437 95.0068 128.45 95.0948C128.463 95.1828 128.442 95.2724 128.392 95.3456C128.341 95.4188 128.265 95.4702 128.178 95.4894C127.749 95.5862 127.348 95.7836 127.01 96.0653C126.672 96.3471 126.406 96.7051 126.233 97.11C126.212 97.1501 126.184 97.1856 126.149 97.2143C126.113 97.2429 126.073 97.2642 126.03 97.2767Z" fill="#263238"/>
<path d="M158.949 133.955C159.088 135.298 159.162 136.474 159.199 137.724C159.236 138.974 159.264 140.178 159.254 141.428C159.217 143.897 159.06 146.367 158.782 148.836C158.498 151.336 158.034 153.812 157.393 156.245C157.063 157.501 156.661 158.738 156.189 159.949C155.958 160.56 155.699 161.171 155.43 161.801C155.43 161.801 155.291 162.097 155.199 162.264C155.101 162.456 154.986 162.638 154.856 162.81C154.627 163.148 154.36 163.459 154.059 163.736C153.572 164.153 153.026 164.496 152.439 164.755C151.6 165.106 150.714 165.33 149.809 165.421C149.087 165.501 148.36 165.532 147.633 165.514C146.325 165.479 145.02 165.364 143.725 165.171C141.299 164.788 138.897 164.269 136.53 163.616C134.206 162.977 131.9 162.273 129.649 161.523C127.399 160.773 125.158 159.939 122.927 159.004L124.084 155.448C126.334 155.939 128.622 156.457 130.9 156.893C133.178 157.328 135.446 157.819 137.706 158.152C139.965 158.485 142.225 158.828 144.41 158.967C145.455 159.049 146.503 159.068 147.55 159.023C147.997 159.001 148.442 158.952 148.883 158.874C149.15 158.833 149.409 158.752 149.652 158.634C149.652 158.634 149.652 158.634 149.513 158.708C149.427 158.773 149.353 158.851 149.29 158.939L149.179 159.106C149.179 159.106 149.096 159.291 149.179 159.171C149.355 158.689 149.531 158.245 149.679 157.708C149.994 156.708 150.254 155.68 150.485 154.633C150.919 152.492 151.228 150.328 151.411 148.151C151.615 145.947 151.68 143.706 151.68 141.465C151.68 140.345 151.68 139.224 151.68 138.104C151.68 136.983 151.578 135.826 151.513 134.826L158.949 133.955Z" fill="#FEE4CB"/>
<path d="M156.92 125.065C160.115 127.149 159.031 145.308 159.031 145.308L151.512 146.818C151.512 146.818 151.447 137.558 150.642 131.548C150.095 127.464 154.642 123.575 156.92 125.065Z" fill="#FEE4CB"/>
<path d="M131.177 326.934C131.087 326.814 131.026 326.674 130.998 326.526C130.971 326.378 130.979 326.226 131.02 326.082C131.037 325.975 131.081 325.874 131.147 325.788C131.214 325.702 131.3 325.635 131.4 325.591C132.326 325.193 134.437 326.628 134.678 326.786C134.705 326.805 134.726 326.832 134.737 326.864C134.749 326.895 134.751 326.929 134.743 326.962C134.734 326.996 134.717 327.028 134.693 327.054C134.668 327.08 134.638 327.099 134.604 327.11C133.631 327.341 131.9 327.638 131.251 327.008L131.177 326.934ZM134.122 326.86C133.196 326.313 131.992 325.693 131.52 325.934C131.477 325.954 131.44 325.985 131.412 326.024C131.385 326.063 131.367 326.108 131.363 326.156C131.329 326.262 131.324 326.376 131.348 326.485C131.372 326.594 131.425 326.695 131.501 326.776C131.853 327.091 132.816 327.128 134.122 326.878V326.86Z" fill="url(#paint29_linear)"/>
<path d="M133.603 326.276C133.341 326.013 133.133 325.701 132.992 325.358C132.851 325.015 132.778 324.647 132.779 324.276C132.82 324.138 132.902 324.017 133.015 323.929C133.128 323.841 133.266 323.791 133.409 323.785C133.538 323.765 133.67 323.774 133.796 323.812C133.921 323.851 134.035 323.918 134.131 324.007C134.881 324.711 134.751 326.841 134.742 326.933C134.741 326.965 134.732 326.996 134.716 327.024C134.699 327.051 134.677 327.074 134.65 327.091C134.622 327.105 134.592 327.112 134.562 327.112C134.531 327.112 134.501 327.105 134.474 327.091C134.143 326.867 133.849 326.592 133.603 326.276V326.276ZM133.955 324.35C133.933 324.323 133.908 324.298 133.881 324.276C133.822 324.218 133.75 324.175 133.671 324.149C133.593 324.124 133.509 324.116 133.427 324.127C133.196 324.127 133.149 324.257 133.122 324.34C132.983 324.85 133.742 326.044 134.409 326.6C134.47 325.822 134.313 325.043 133.955 324.35V324.35Z" fill="url(#paint30_linear)"/>
<path d="M145.142 167.532L145.466 170.31C145.54 170.523 145.262 170.717 144.92 170.68L114.361 167.976C114.092 167.976 113.889 167.8 113.898 167.634L114.074 164.93C114.074 164.745 114.343 164.606 114.63 164.633L144.716 167.3C144.801 167.299 144.885 167.319 144.96 167.36C145.034 167.4 145.097 167.46 145.142 167.532V167.532Z" fill="white"/>
<path d="M140.548 170.569L141.354 170.634C141.521 170.634 141.65 170.578 141.66 170.476L141.845 166.967C141.845 166.865 141.724 166.763 141.567 166.754L140.752 166.68C140.595 166.68 140.456 166.735 140.447 166.837L140.261 170.356C140.261 170.458 140.391 170.55 140.548 170.569Z" fill="url(#paint31_linear)"/>
<path opacity="0.6" d="M140.548 170.569L141.354 170.634C141.521 170.634 141.65 170.578 141.66 170.476L141.845 166.967C141.845 166.865 141.724 166.763 141.567 166.754L140.752 166.68C140.595 166.68 140.456 166.735 140.447 166.837L140.261 170.356C140.261 170.458 140.391 170.55 140.548 170.569Z" fill="black"/>
<path d="M116.556 168.439L117.361 168.513C117.528 168.513 117.658 168.458 117.667 168.356L117.852 164.837C117.852 164.735 117.732 164.642 117.574 164.624L116.769 164.559C116.602 164.559 116.472 164.615 116.463 164.717L116.278 168.226C116.269 168.328 116.398 168.43 116.556 168.439Z" fill="url(#paint32_linear)"/>
<path opacity="0.6" d="M116.556 168.439L117.361 168.513C117.528 168.513 117.658 168.458 117.667 168.356L117.852 164.837C117.852 164.735 117.732 164.642 117.574 164.624L116.769 164.559C116.602 164.559 116.472 164.615 116.463 164.717L116.278 168.226C116.269 168.328 116.398 168.43 116.556 168.439Z" fill="black"/>
<path d="M128.557 169.505L129.362 169.579C129.52 169.579 129.659 169.514 129.659 169.412L129.853 165.902C129.853 165.8 129.733 165.708 129.566 165.689L128.76 165.615C128.603 165.615 128.464 165.68 128.464 165.782L128.27 169.292C128.27 169.393 128.399 169.458 128.557 169.505Z" fill="url(#paint33_linear)"/>
<path opacity="0.6" d="M128.557 169.505L129.362 169.579C129.52 169.579 129.659 169.514 129.659 169.412L129.853 165.902C129.853 165.8 129.733 165.708 129.566 165.689L128.76 165.615C128.603 165.615 128.464 165.68 128.464 165.782L128.27 169.292C128.27 169.393 128.399 169.458 128.557 169.505Z" fill="black"/>
<path d="M125.242 155.67L120.612 149.493L118.685 156.901C118.685 156.901 122.13 159.911 125.056 158.753L125.242 155.67Z" fill="#FEE4CB"/>
<path d="M114.685 148.132L113.398 154.383L119.649 157.578L120.64 149.494L114.685 148.132Z" fill="#FEE4CB"/>
<path d="M134.892 97.8507L133.41 97.6655C133.41 97.6655 134.271 98.6564 134.892 97.8507Z" fill="#263238"/>
<defs>
<linearGradient id="paint0_linear" x1="292.865" y1="67.518" x2="292.876" y2="73.7651" gradientUnits="userSpaceOnUse">
<stop stop-color="#FF8B94" stop-opacity="0.7"/>
<stop offset="1" stop-color="#FFD3B6" stop-opacity="0.7"/>
</linearGradient>
<linearGradient id="paint1_linear" x1="286.171" y1="48.0499" x2="286.175" y2="62.7182" gradientUnits="userSpaceOnUse">
<stop stop-color="#FF8B94" stop-opacity="0.7"/>
<stop offset="1" stop-color="#FFD3B6" stop-opacity="0.7"/>
</linearGradient>
<linearGradient id="paint2_linear" x1="214.892" y1="44.6097" x2="215.043" y2="334.379" gradientUnits="userSpaceOnUse">
<stop stop-color="#FF8B94" stop-opacity="0.7"/>
<stop offset="1" stop-color="#FFD3B6" stop-opacity="0.7"/>
</linearGradient>
<linearGradient id="paint3_linear" x1="214.33" y1="304.018" x2="214.335" y2="319.683" gradientUnits="userSpaceOnUse">
<stop stop-color="#FF8B94" stop-opacity="0.7"/>
<stop offset="1" stop-color="#FFD3B6" stop-opacity="0.7"/>
</linearGradient>
<linearGradient id="paint4_linear" x1="214.797" y1="55.0395" x2="214.798" y2="61.505" gradientUnits="userSpaceOnUse">
<stop stop-color="#FF8B94" stop-opacity="0.7"/>
<stop offset="1" stop-color="#FFD3B6" stop-opacity="0.7"/>
</linearGradient>
<linearGradient id="paint5_linear" x1="214.698" y1="81.5179" x2="214.702" y2="123.917" gradientUnits="userSpaceOnUse">
<stop stop-color="#FF8B94" stop-opacity="0.7"/>
<stop offset="1" stop-color="#FFD3B6" stop-opacity="0.7"/>
</linearGradient>
<linearGradient id="paint6_linear" x1="214.651" y1="137.856" x2="214.656" y2="180.246" gradientUnits="userSpaceOnUse">
<stop stop-color="#FF8B94" stop-opacity="0.7"/>
<stop offset="1" stop-color="#FFD3B6" stop-opacity="0.7"/>
</linearGradient>
<linearGradient id="paint7_linear" x1="214.714" y1="150.959" x2="214.714" y2="153.123" gradientUnits="userSpaceOnUse">
<stop stop-color="#FF8B94" stop-opacity="0.7"/>
<stop offset="1" stop-color="#FFD3B6" stop-opacity="0.7"/>
</linearGradient>
<linearGradient id="paint8_linear" x1="193.894" y1="158.45" x2="193.894" y2="160.615" gradientUnits="userSpaceOnUse">
<stop stop-color="#FF8B94" stop-opacity="0.7"/>
<stop offset="1" stop-color="#FFD3B6" stop-opacity="0.7"/>
</linearGradient>
<linearGradient id="paint9_linear" x1="224.962" y1="158.45" x2="224.962" y2="160.615" gradientUnits="userSpaceOnUse">
<stop stop-color="#FF8B94" stop-opacity="0.7"/>
<stop offset="1" stop-color="#FFD3B6" stop-opacity="0.7"/>
</linearGradient>
<linearGradient id="paint10_linear" x1="214.698" y1="194.185" x2="214.702" y2="236.574" gradientUnits="userSpaceOnUse">
<stop stop-color="#FF8B94" stop-opacity="0.7"/>
<stop offset="1" stop-color="#FFD3B6" stop-opacity="0.7"/>
</linearGradient>
<linearGradient id="paint11_linear" x1="189.545" y1="250.513" x2="189.554" y2="292.903" gradientUnits="userSpaceOnUse">
<stop stop-color="#FF8B94" stop-opacity="0.7"/>
<stop offset="1" stop-color="#FFD3B6" stop-opacity="0.7"/>
</linearGradient>
<linearGradient id="paint12_linear" x1="176.301" y1="264.584" x2="176.303" y2="272.179" gradientUnits="userSpaceOnUse">
<stop stop-color="#FF8B94" stop-opacity="0.7"/>
<stop offset="1" stop-color="#FFD3B6" stop-opacity="0.7"/>
</linearGradient>
<linearGradient id="paint13_linear" x1="187.496" y1="261.535" x2="187.498" y2="269.225" gradientUnits="userSpaceOnUse">
<stop stop-color="#FF8B94" stop-opacity="0.7"/>
<stop offset="1" stop-color="#FFD3B6" stop-opacity="0.7"/>
</linearGradient>
<linearGradient id="paint14_linear" x1="198.775" y1="269.075" x2="198.777" y2="276.67" gradientUnits="userSpaceOnUse">
<stop stop-color="#FF8B94" stop-opacity="0.7"/>
<stop offset="1" stop-color="#FFD3B6" stop-opacity="0.7"/>
</linearGradient>
<linearGradient id="paint15_linear" x1="369.995" y1="322.377" x2="369.997" y2="325.945" gradientUnits="userSpaceOnUse">
<stop stop-color="#FF8B94" stop-opacity="0.7"/>
<stop offset="1" stop-color="#FFD3B6" stop-opacity="0.7"/>
</linearGradient>
<linearGradient id="paint16_linear" x1="370.567" y1="324.664" x2="370.568" y2="326.377" gradientUnits="userSpaceOnUse">
<stop stop-color="#FF8B94" stop-opacity="0.7"/>
<stop offset="1" stop-color="#FFD3B6" stop-opacity="0.7"/>
</linearGradient>
<linearGradient id="paint17_linear" x1="330.533" y1="277.884" x2="330.543" y2="331.964" gradientUnits="userSpaceOnUse">
<stop stop-color="#FF8B94" stop-opacity="0.7"/>
<stop offset="1" stop-color="#FFD3B6" stop-opacity="0.7"/>
</linearGradient>
<linearGradient id="paint18_linear" x1="391.97" y1="318.746" x2="391.971" y2="322.461" gradientUnits="userSpaceOnUse">
<stop stop-color="#FF8B94" stop-opacity="0.7"/>
<stop offset="1" stop-color="#FFD3B6" stop-opacity="0.7"/>
</linearGradient>
<linearGradient id="paint19_linear" x1="393.869" y1="319.139" x2="393.87" y2="322.44" gradientUnits="userSpaceOnUse">
<stop stop-color="#FF8B94" stop-opacity="0.7"/>
<stop offset="1" stop-color="#FFD3B6" stop-opacity="0.7"/>
</linearGradient>
<linearGradient id="paint20_linear" x1="334.84" y1="283.718" x2="334.847" y2="335.278" gradientUnits="userSpaceOnUse">
<stop stop-color="#FF8B94" stop-opacity="0.7"/>
<stop offset="1" stop-color="#FFD3B6" stop-opacity="0.7"/>
</linearGradient>
<linearGradient id="paint21_linear" x1="320.11" y1="273.758" x2="320.118" y2="292.881" gradientUnits="userSpaceOnUse">
<stop stop-color="#FF8B94" stop-opacity="0.7"/>
<stop offset="1" stop-color="#FFD3B6" stop-opacity="0.7"/>
</linearGradient>
<linearGradient id="paint22_linear" x1="136.882" y1="316.694" x2="136.883" y2="319.507" gradientUnits="userSpaceOnUse">
<stop stop-color="#FF8B94" stop-opacity="0.7"/>
<stop offset="1" stop-color="#FFD3B6" stop-opacity="0.7"/>
</linearGradient>
<linearGradient id="paint23_linear" x1="137.08" y1="315.236" x2="137.08" y2="317.188" gradientUnits="userSpaceOnUse">
<stop stop-color="#FF8B94" stop-opacity="0.7"/>
<stop offset="1" stop-color="#FFD3B6" stop-opacity="0.7"/>
</linearGradient>
<linearGradient id="paint24_linear" x1="135.811" y1="119.877" x2="135.827" y2="169.254" gradientUnits="userSpaceOnUse">
<stop stop-color="#FF8B94" stop-opacity="0.7"/>
<stop offset="1" stop-color="#FFD3B6" stop-opacity="0.7"/>
</linearGradient>
<linearGradient id="paint25_linear" x1="119.637" y1="163.233" x2="119.77" y2="300.95" gradientUnits="userSpaceOnUse">
<stop stop-color="#FF8B94" stop-opacity="0.7"/>
<stop offset="1" stop-color="#FFD3B6" stop-opacity="0.7"/>
</linearGradient>
<linearGradient id="paint26_linear" x1="127.769" y1="289.369" x2="127.772" y2="302.015" gradientUnits="userSpaceOnUse">
<stop stop-color="#FF8B94" stop-opacity="0.7"/>
<stop offset="1" stop-color="#FFD3B6" stop-opacity="0.7"/>
</linearGradient>
<linearGradient id="paint27_linear" x1="133.623" y1="163.234" x2="133.821" y2="303.181" gradientUnits="userSpaceOnUse">
<stop stop-color="#FF8B94" stop-opacity="0.7"/>
<stop offset="1" stop-color="#FFD3B6" stop-opacity="0.7"/>
</linearGradient>
<linearGradient id="paint28_linear" x1="139.038" y1="299.876" x2="139.039" y2="304.747" gradientUnits="userSpaceOnUse">
<stop stop-color="#FF8B94" stop-opacity="0.7"/>
<stop offset="1" stop-color="#FFD3B6" stop-opacity="0.7"/>
</linearGradient>
<linearGradient id="paint29_linear" x1="132.86" y1="325.474" x2="132.86" y2="327.386" gradientUnits="userSpaceOnUse">
<stop stop-color="#FF8B94" stop-opacity="0.7"/>
<stop offset="1" stop-color="#FFD3B6" stop-opacity="0.7"/>
</linearGradient>
<linearGradient id="paint30_linear" x1="133.765" y1="323.69" x2="133.767" y2="327.112" gradientUnits="userSpaceOnUse">
<stop stop-color="#FF8B94" stop-opacity="0.7"/>
<stop offset="1" stop-color="#FFD3B6" stop-opacity="0.7"/>
</linearGradient>
<linearGradient id="paint31_linear" x1="141.051" y1="166.58" x2="141.054" y2="170.634" gradientUnits="userSpaceOnUse">
<stop stop-color="#FF8B94" stop-opacity="0.7"/>
<stop offset="1" stop-color="#FFD3B6" stop-opacity="0.7"/>
</linearGradient>
<linearGradient id="paint32_linear" x1="117.063" y1="164.459" x2="117.065" y2="168.513" gradientUnits="userSpaceOnUse">
<stop stop-color="#FF8B94" stop-opacity="0.7"/>
<stop offset="1" stop-color="#FFD3B6" stop-opacity="0.7"/>
</linearGradient>
<linearGradient id="paint33_linear" x1="129.059" y1="165.515" x2="129.062" y2="169.579" gradientUnits="userSpaceOnUse">
<stop stop-color="#FF8B94" stop-opacity="0.7"/>
<stop offset="1" stop-color="#FFD3B6" stop-opacity="0.7"/>
</linearGradient>
</defs>
</svg>
