<svg width="24" height="24" viewBox="0 0 24 24" fill="none" xmlns="http://www.w3.org/2000/svg">
<path d="M8.073 11.901L4.212 8.04C2.692 9.697 2.116 11.357 2.106 11.391L2 11.707L2.105 12.023C2.127 12.09 4.421 18.707 12.054 18.707C12.983 18.707 13.829 18.605 14.606 18.434L11.86 15.688C10.8713 15.6395 9.93595 15.225 9.23598 14.525C8.53601 13.825 8.12147 12.8897 8.073 11.901ZM12.054 4.707C10.199 4.707 8.679 5.111 7.412 5.705L3.707 2L2.293 3.414L20.293 21.414L21.707 20L18.409 16.702C21.047 14.749 21.988 12.065 22.002 12.023L22.107 11.707L22.002 11.391C21.98 11.324 19.687 4.707 12.054 4.707ZM13.96 12.253C14.147 11.576 13.988 10.814 13.468 10.293C12.948 9.772 12.185 9.614 11.508 9.801L10 8.293C10.618 7.91298 11.3285 7.71026 12.054 7.707C14.26 7.707 16.054 9.501 16.054 11.707C16.051 12.4323 15.8479 13.1427 15.467 13.76L13.96 12.253Z" fill="#EEEEEE"/>
</svg>
