<svg width="20" height="20" viewBox="0 0 20 20" fill="none" xmlns="http://www.w3.org/2000/svg">
<path d="M7.55016 1.60843C5.97516 1.6001 4.44183 3.11677 5.14183 5.0001H2.50016C2.05814 5.0001 1.63421 5.17569 1.32165 5.48825C1.00909 5.80082 0.833496 6.22474 0.833496 6.66677V8.33343C0.833496 8.55445 0.921293 8.76641 1.07757 8.92269C1.23385 9.07897 1.44582 9.16677 1.66683 9.16677H9.16683V6.66677H10.8335V9.16677H18.3335C18.5545 9.16677 18.7665 9.07897 18.9228 8.92269C19.079 8.76641 19.1668 8.55445 19.1668 8.33343V6.66677C19.1668 6.22474 18.9912 5.80082 18.6787 5.48825C18.3661 5.17569 17.9422 5.0001 17.5002 5.0001H14.8585C15.8335 2.2751 12.1668 0.350099 10.4752 2.7001L10.0002 3.33343L9.52516 2.68343C9.00016 1.94177 8.27516 1.61677 7.55016 1.60843V1.60843ZM7.50016 3.33343C8.24183 3.33343 8.61683 4.23343 8.09183 4.75843C7.56683 5.28343 6.66683 4.90843 6.66683 4.16677C6.66683 3.94575 6.75463 3.73379 6.91091 3.57751C7.06719 3.42123 7.27915 3.33343 7.50016 3.33343V3.33343ZM12.5002 3.33343C13.2418 3.33343 13.6168 4.23343 13.0918 4.75843C12.5668 5.28343 11.6668 4.90843 11.6668 4.16677C11.6668 3.94575 11.7546 3.73379 11.9109 3.57751C12.0672 3.42123 12.2791 3.33343 12.5002 3.33343V3.33343ZM1.66683 10.0001V16.6668C1.66683 17.1088 1.84242 17.5327 2.15498 17.8453C2.46755 18.1578 2.89147 18.3334 3.3335 18.3334H16.6668C17.1089 18.3334 17.5328 18.1578 17.8453 17.8453C18.1579 17.5327 18.3335 17.1088 18.3335 16.6668V10.0001H10.8335V16.6668H9.16683V10.0001H1.66683Z" fill="#FFAAA5"/>
</svg>
