<svg width="48" height="48" viewBox="0 0 48 48" fill="none" xmlns="http://www.w3.org/2000/svg">
<circle cx="24" cy="24" r="24" fill="white"/>
<path d="M24 14C25.3261 14 26.5979 14.5268 27.5355 15.4645C28.4732 16.4021 29 17.6739 29 19C29 20.3261 28.4732 21.5979 27.5355 22.5355C26.5979 23.4732 25.3261 24 24 24C22.6739 24 21.4021 23.4732 20.4645 22.5355C19.5268 21.5979 19 20.3261 19 19C19 17.6739 19.5268 16.4021 20.4645 15.4645C21.4021 14.5268 22.6739 14 24 14V14ZM24 26.5C29.525 26.5 34 28.7375 34 31.5V34H14V31.5C14 28.7375 18.475 26.5 24 26.5Z" fill="#EEEEEE"/>
</svg>
