<svg width="32" height="32" viewBox="0 0 32 32" fill="none" xmlns="http://www.w3.org/2000/svg">
<path d="M15.5 9C16.3284 9 17 8.32843 17 7.5C17 6.67157 16.3284 6 15.5 6C14.6716 6 14 6.67157 14 7.5C14 8.32843 14.6716 9 15.5 9Z" fill="black"/>
<path d="M15.5 17C16.3284 17 17 16.3284 17 15.5C17 14.6716 16.3284 14 15.5 14C14.6716 14 14 14.6716 14 15.5C14 16.3284 14.6716 17 15.5 17Z" fill="black"/>
<path d="M15.5 25C16.3284 25 17 24.3284 17 23.5C17 22.6716 16.3284 22 15.5 22C14.6716 22 14 22.6716 14 23.5C14 24.3284 14.6716 25 15.5 25Z" fill="black"/>
</svg>
