<svg width="36" height="36" viewBox="0 0 36 36" fill="none" xmlns="http://www.w3.org/2000/svg">
<path d="M32.51 27.83C31.5457 26.9704 30.7015 25.9849 30 24.9C29.2342 23.4026 28.7752 21.7673 28.65 20.09V15.15C28.6566 12.5156 27.701 9.9695 25.9627 7.99C24.2245 6.0105 21.8232 4.73389 19.21 4.40002V3.11002C19.21 2.75596 19.0694 2.4164 18.819 2.16604C18.5686 1.91568 18.2291 1.77502 17.875 1.77502C17.5209 1.77502 17.1814 1.91568 16.931 2.16604C16.6807 2.4164 16.54 2.75596 16.54 3.11002V4.42002C13.9503 4.77795 11.578 6.06228 9.86253 8.03513C8.14709 10.008 7.20473 12.5357 7.21 15.15V20.09C7.08476 21.7673 6.62578 23.4026 5.86 24.9C5.17089 25.9824 4.3402 26.9678 3.39 27.83C3.28333 27.9237 3.19784 28.0391 3.13922 28.1684C3.0806 28.2977 3.05018 28.438 3.05 28.58V29.94C3.05 30.2052 3.15536 30.4596 3.3429 30.6471C3.53043 30.8347 3.78479 30.94 4.05 30.94H31.85C32.1152 30.94 32.3696 30.8347 32.5571 30.6471C32.7446 30.4596 32.85 30.2052 32.85 29.94V28.58C32.8498 28.438 32.8194 28.2977 32.7608 28.1684C32.7022 28.0391 32.6167 27.9237 32.51 27.83ZM5.13 28.94C6.06041 28.0412 6.8796 27.034 7.57 25.94C8.53462 24.1315 9.09743 22.136 9.22 20.09V15.15C9.18034 13.9781 9.37693 12.8101 9.79805 11.7157C10.2192 10.6213 10.8562 9.62281 11.6713 8.77973C12.4863 7.93664 13.4626 7.26619 14.5422 6.8083C15.6217 6.3504 16.7824 6.11443 17.955 6.11443C19.1276 6.11443 20.2883 6.3504 21.3678 6.8083C22.4474 7.26619 23.4237 7.93664 24.2388 8.77973C25.0538 9.62281 25.6908 10.6213 26.112 11.7157C26.5331 12.8101 26.7297 13.9781 26.69 15.15V20.09C26.8126 22.136 27.3754 24.1315 28.34 25.94C29.0304 27.034 29.8496 28.0412 30.78 28.94H5.13Z" fill="black"/>
<path d="M18 34.28C18.6299 34.2655 19.2345 34.0287 19.7066 33.6114C20.1788 33.1942 20.4881 32.6234 20.58 32H15.32C15.4145 32.6403 15.7383 33.2245 16.2313 33.6439C16.7243 34.0633 17.3528 34.2894 18 34.28Z" fill="black"/>
</svg>
