<svg width="25" height="25" viewBox="0 0 25 25" fill="none" xmlns="http://www.w3.org/2000/svg">
<path d="M9.92504 1.56218C10.1326 1.10062 10.4885 0.705344 10.9473 0.427018C11.406 0.148692 11.9467 0 12.5 0C13.0533 0 13.594 0.148692 14.0527 0.427018C14.5115 0.705344 14.8674 1.10062 15.075 1.56218C17.1287 2.07048 18.9403 3.17146 20.2315 4.69602C21.5226 6.22058 22.222 8.08443 22.2221 10.0013V15.8719L24.7665 19.3066C24.906 19.4948 24.9862 19.7136 24.9984 19.9396C25.0106 20.1656 24.9544 20.3904 24.8357 20.5899C24.7171 20.7894 24.5405 20.9562 24.3248 21.0725C24.1091 21.1887 23.8624 21.2501 23.6109 21.2501H17.3124C17.1452 22.2914 16.5667 23.2436 15.6829 23.9323C14.799 24.6209 13.6691 25 12.5 25C11.3309 25 10.201 24.6209 9.31713 23.9323C8.43331 23.2436 7.8548 22.2914 7.68758 21.2501H1.38907C1.13763 21.2501 0.890892 21.1887 0.675184 21.0725C0.459477 20.9562 0.282892 20.7894 0.164269 20.5899C0.0456465 20.3904 -0.0105634 20.1656 0.00163587 19.9396C0.0138351 19.7136 0.0939859 19.4948 0.233537 19.3066L2.77794 15.8719V10.0013C2.77794 5.97172 5.80567 2.57708 9.92504 1.56218ZM10.5361 21.2501C10.6796 21.6159 10.9456 21.9326 11.2974 22.1567C11.6493 22.3807 12.0697 22.501 12.5007 22.501C12.9317 22.501 13.3521 22.3807 13.704 22.1567C14.0558 21.9326 14.3218 21.6159 14.4652 21.2501H10.5348H10.5361ZM12.5 3.75195C10.6582 3.75195 8.89193 4.41036 7.58962 5.58234C6.2873 6.75432 5.55567 8.34387 5.55567 10.0013V16.2506C5.55573 16.4975 5.47454 16.7389 5.32234 16.9443L3.98486 18.7504H21.0137L19.6763 16.9443C19.5246 16.7388 19.4439 16.4974 19.4443 16.2506V10.0013C19.4443 8.34387 18.7127 6.75432 17.4104 5.58234C16.1081 4.41036 14.3418 3.75195 12.5 3.75195V3.75195Z" fill="black"/>
<path d="M24.5 4.25C24.5 6.04493 23.0449 7.5 21.25 7.5C19.4551 7.5 18 6.04493 18 4.25C18 2.45507 19.4551 1 21.25 1C23.0449 1 24.5 2.45507 24.5 4.25Z" fill="#FF4747"/>
</svg>
