<svg width="13" height="20" viewBox="0 0 13 20" fill="none" xmlns="http://www.w3.org/2000/svg">
<g clip-path="url(#clip0)">
<path d="M2.12451 0.702324C2.38605 0.701642 2.64446 0.745934 2.88077 0.831946C3.11707 0.917959 3.32526 1.04351 3.49003 1.19936L11.9457 9.25939C12.2032 9.49976 12.344 9.80126 12.344 10.1124C12.344 10.4236 12.2032 10.7251 11.9457 10.9654L3.19241 19.0255C2.89526 19.2998 2.46825 19.4723 2.00533 19.5051C1.54241 19.5378 1.08149 19.4281 0.723977 19.2001C0.366462 18.9721 0.141634 18.6444 0.0989536 18.2892C0.0562728 17.934 0.199235 17.5803 0.49639 17.306L8.32186 10.1057L0.758991 2.9054C0.544914 2.70822 0.408927 2.46811 0.367122 2.21348C0.325317 1.95885 0.379442 1.70036 0.523095 1.4686C0.666747 1.23683 0.893913 1.0415 1.17771 0.9057C1.46151 0.769901 1.79007 0.699326 2.12451 0.702324Z" fill="#F9DA78"/>
</g>
<defs>
<clipPath id="clip0">
<path d="M12.344 16.5107C12.344 18.1676 11.0008 19.5107 9.34399 19.5107L3.09155 19.5107C1.43469 19.5107 0.0915458 18.1676 0.0915458 16.5107L0.0915458 3.70223C0.0915458 2.04537 1.43469 0.702232 3.09155 0.702232L9.34399 0.702232C11.0008 0.702232 12.344 2.04538 12.344 3.70223L12.344 16.5107Z" fill="white"/>
</clipPath>
</defs>
</svg>
