<svg width="14" height="15" viewBox="0 0 14 15" fill="none" xmlns="http://www.w3.org/2000/svg">
<g clip-path="url(#clip0)">
<path d="M6.68498 6.35626L8.52245 3.6989C8.56073 3.64353 8.57418 3.58562 8.5628 3.52515C8.55143 3.46467 8.51775 3.41508 8.46177 3.37638C8.4058 3.33767 8.34751 3.32367 8.28692 3.33438C8.22632 3.34509 8.17689 3.37812 8.13861 3.43348L6.30114 6.09085C6.26286 6.14621 6.24941 6.20413 6.26078 6.2646C6.27216 6.32507 6.30584 6.37466 6.36181 6.41337C6.41779 6.45207 6.47608 6.46607 6.53667 6.45536C6.59726 6.44466 6.6467 6.41162 6.68498 6.35626ZM9.2716 11.231C9.20051 11.3338 9.101 11.3965 8.97308 11.4191C8.84516 11.4417 8.72922 11.4171 8.62526 11.3452L6.05232 9.56614L3.76543 12.2196C3.72462 12.2615 3.6756 12.2876 3.61838 12.2977C3.56115 12.3078 3.50854 12.2962 3.46056 12.2631L3.45457 12.2589C3.34661 12.1843 3.31955 12.0867 3.37339 11.9661L4.90679 8.77405L2.48379 7.09864C2.37983 7.02675 2.31585 6.92698 2.29183 6.79932C2.26781 6.67166 2.29135 6.55642 2.36244 6.4536C2.69877 5.96721 3.15853 5.63777 3.74173 5.46529C4.32493 5.29281 4.81445 5.34343 5.21029 5.61713L7.31025 2.58014C7.10233 2.43638 6.97436 2.23683 6.92633 1.98151C6.87829 1.72618 6.92537 1.4957 7.06755 1.29007C7.20974 1.08444 7.40875 0.959023 7.66459 0.913814C7.92044 0.868605 8.15231 0.917883 8.36023 1.06165L12.1986 3.71577C12.4066 3.85953 12.5345 4.05908 12.5826 4.3144C12.6306 4.56973 12.5835 4.80021 12.4413 5.00584C12.2992 5.21147 12.1001 5.33689 11.8443 5.3821C11.5885 5.4273 11.3566 5.37803 11.1487 5.23426L9.04871 8.27125C9.44454 8.54496 9.66473 8.98508 9.70927 9.59162C9.75381 10.1982 9.60792 10.7446 9.2716 11.231Z" fill="#FFB800"/>
</g>
<defs>
<clipPath id="clip0">
<rect width="8.3077" height="12" fill="white" transform="translate(6.82486) rotate(34.6624)"/>
</clipPath>
</defs>
</svg>
