<svg width="20" height="20" viewBox="0 0 20 20" fill="none" xmlns="http://www.w3.org/2000/svg">
<path d="M7.85547 1.14325e-07C9.34879 -0.00025458 10.8113 0.425052 12.0715 1.22609C13.3318 2.02714 14.3377 3.17074 14.9714 4.52292C15.6051 5.87511 15.8403 7.37987 15.6495 8.86092C15.4587 10.342 14.8497 11.738 13.894 12.8854L19.7897 18.7795C19.9162 18.9055 19.991 19.0743 19.9992 19.2527C20.0075 19.4311 19.9486 19.6061 19.8343 19.7432C19.7199 19.8803 19.5583 19.9697 19.3814 19.9936C19.2044 20.0175 19.0249 19.9742 18.8782 19.8724L18.7782 19.7909L12.884 13.8954C11.9143 14.7026 10.7644 15.2645 9.53167 15.5334C8.29892 15.8023 7.01953 15.7704 5.80172 15.4403C4.58391 15.1102 3.4635 14.4918 2.53525 13.6372C1.60701 12.7826 0.89824 11.717 0.468889 10.5305C0.0395373 9.34411 -0.0977648 8.07173 0.0685955 6.82102C0.234956 5.57031 0.700085 4.37805 1.42464 3.3451C2.1492 2.31215 3.11187 1.46889 4.23123 0.886632C5.3506 0.304377 6.59372 0.000258561 7.85547 1.14325e-07V1.14325e-07ZM7.85547 1.42854C6.15052 1.42854 4.5154 2.10581 3.30982 3.31138C2.10424 4.51694 1.42695 6.15203 1.42695 7.85695C1.42695 9.56187 2.10424 11.197 3.30982 12.4025C4.5154 13.6081 6.15052 14.2854 7.85547 14.2854C9.56042 14.2854 11.1955 13.6081 12.4011 12.4025C13.6067 11.197 14.284 9.56187 14.284 7.85695C14.284 6.15203 13.6067 4.51694 12.4011 3.31138C11.1955 2.10581 9.56042 1.42854 7.85547 1.42854Z" fill="black"/>
</svg>
