<svg width="32" height="32" viewBox="0 0 32 32" fill="none" xmlns="http://www.w3.org/2000/svg">
<path d="M12.5688 1.8292e-07C14.9581 -0.000407327 17.298 0.680084 19.3145 1.96175C21.3309 3.24342 22.9404 5.07318 23.9543 7.23667C24.9682 9.40017 25.3445 11.8078 25.0392 14.1775C24.7339 16.5472 23.7596 18.7808 22.2304 20.6166L31.6635 30.0473C31.8659 30.2488 31.9856 30.5189 31.9988 30.8043C32.012 31.0897 31.9178 31.3697 31.7348 31.5891C31.5518 31.8085 31.2933 31.9515 31.0102 31.9897C30.727 32.028 30.4398 31.9588 30.2052 31.7958L30.0452 31.6655L20.6144 22.2326C19.0629 23.5242 17.2231 24.4231 15.2507 24.8534C13.2783 25.2837 11.2312 25.2326 9.28275 24.7045C7.33425 24.1764 5.5416 23.1868 4.05641 21.8194C2.57122 20.4521 1.43718 18.7472 0.750222 16.8489C0.0632596 14.9506 -0.156424 12.9148 0.109753 10.9136C0.375929 8.91249 1.12014 7.00489 2.27943 5.35217C3.43872 3.69944 4.97899 2.35022 6.76997 1.41861C8.56096 0.487003 10.55 0.000413698 12.5688 1.8292e-07ZM12.5688 2.28566C9.84084 2.28566 7.22465 3.3693 5.29571 5.2982C3.36678 7.2271 2.28312 9.84325 2.28312 12.5711C2.28312 15.299 3.36678 17.9151 5.29571 19.844C7.22465 21.7729 9.84084 22.8566 12.5688 22.8566C15.2967 22.8566 17.9129 21.7729 19.8418 19.844C21.7707 17.9151 22.8544 15.299 22.8544 12.5711C22.8544 9.84325 21.7707 7.2271 19.8418 5.2982C17.9129 3.3693 15.2967 2.28566 12.5688 2.28566Z" fill="black"/>
</svg>
