<svg width="25" height="26" viewBox="0 0 25 26" fill="none" xmlns="http://www.w3.org/2000/svg">
<g clip-path="url(#clip0)">
<path d="M9.92504 2.06218C10.1326 1.60062 10.4885 1.20534 10.9473 0.927018C11.406 0.648692 11.9467 0.5 12.5 0.5C13.0533 0.5 13.594 0.648692 14.0527 0.927018C14.5115 1.20534 14.8674 1.60062 15.075 2.06218C17.1287 2.57048 18.9403 3.67146 20.2315 5.19602C21.5226 6.72058 22.222 8.58442 22.2221 10.5013V16.3719L24.7665 19.8066C24.906 19.9948 24.9862 20.2136 24.9984 20.4396C25.0106 20.6656 24.9544 20.8904 24.8357 21.0899C24.7171 21.2894 24.5405 21.4562 24.3248 21.5725C24.1091 21.6887 23.8624 21.7501 23.6109 21.7501H17.3124C17.1452 22.7914 16.5667 23.7436 15.6829 24.4323C14.799 25.1209 13.6691 25.5 12.5 25.5C11.3309 25.5 10.201 25.1209 9.31713 24.4323C8.43332 23.7436 7.8548 22.7914 7.68758 21.7501H1.38907C1.13763 21.7501 0.890892 21.6887 0.675184 21.5725C0.459477 21.4562 0.282892 21.2894 0.164269 21.0899C0.0456465 20.8904 -0.0105634 20.6656 0.00163587 20.4396C0.0138351 20.2136 0.0939859 19.9948 0.233537 19.8066L2.77794 16.3719V10.5013C2.77794 6.47172 5.80567 3.07708 9.92504 2.06218ZM10.5361 21.7501C10.6796 22.1159 10.9456 22.4326 11.2974 22.6567C11.6493 22.8807 12.0697 23.001 12.5007 23.001C12.9317 23.001 13.3521 22.8807 13.704 22.6567C14.0558 22.4326 14.3218 22.1159 14.4652 21.7501H10.5348H10.5361ZM12.5 4.25195C10.6582 4.25195 8.89193 4.91036 7.58962 6.08234C6.2873 7.25432 5.55567 8.84387 5.55567 10.5013V16.7506C5.55573 16.9975 5.47454 17.2389 5.32234 17.4443L3.98486 19.2504H21.0137L19.6763 17.4443C19.5246 17.2388 19.4439 16.9974 19.4443 16.7506V10.5013C19.4443 8.84387 18.7127 7.25432 17.4104 6.08234C16.1081 4.91036 14.3418 4.25195 12.5 4.25195Z" fill="#424242"/>
</g>
<defs>
<clipPath id="clip0">
<rect width="25" height="25" fill="white" transform="translate(0 0.5)"/>
</clipPath>
</defs>
</svg>
