<svg width="12" height="12" viewBox="0 0 12 12" fill="none" xmlns="http://www.w3.org/2000/svg">
<g clip-path="url(#clip0)">
<path d="M11.4141 3.35904L9.11596 1.06093C9.03357 0.978225 8.93565 0.912603 8.82783 0.867826C8.72001 0.82305 8.60442 0.8 8.48767 0.8C8.37093 0.8 8.25533 0.82305 8.14751 0.867826C8.03969 0.912603 7.94178 0.978225 7.85938 1.06093L1.37859 7.54172C1.205 7.71531 1.048 7.97243 0.934252 8.24555C0.820501 8.51985 0.75 8.81371 0.75 9.05898V11.725H3.41602C3.66129 11.725 3.95396 11.6545 4.22826 11.5407C4.50257 11.427 4.7591 11.27 4.93269 11.0964L11.4141 4.61562C11.4968 4.53322 11.5624 4.43531 11.6072 4.32749C11.6519 4.21967 11.675 4.10407 11.675 3.98733C11.675 3.87058 11.6519 3.75499 11.6072 3.64717C11.5624 3.53935 11.4968 3.44144 11.4141 3.35904ZM2.3899 8.20645L7.30307 3.29327L8.03297 4.02317L3.11979 8.93634L2.3899 8.20645ZM3.41602 10.5401H2.52735L1.9349 9.94765V9.05898C1.9349 9.01336 1.95445 8.87829 2.0285 8.70055C2.03443 8.6887 3.7863 10.4412 3.7863 10.4412C3.59553 10.5206 3.46164 10.5401 3.41602 10.5401ZM4.26855 10.0851L3.53865 9.35521L8.45183 4.44203L9.18173 5.17193L4.26855 10.0851ZM9.60059 4.75307L7.72134 2.87382L8.48738 2.10779L10.3654 3.98703L9.60059 4.75307Z" fill="#979797"/>
</g>
<defs>
<clipPath id="clip0">
<rect width="10.925" height="10.925" fill="white" transform="translate(0.75 0.8)"/>
</clipPath>
</defs>
</svg>
