<svg width="25" height="26" viewBox="0 0 25 26" fill="none" xmlns="http://www.w3.org/2000/svg">
<g clip-path="url(#clip0)">
<path d="M10.6912 21.8812C13.0633 21.8807 15.367 21.0867 17.2355 19.6255L23.1103 25.5L25 23.6104L19.1252 17.7359C20.5872 15.8673 21.3818 13.5632 21.3824 11.1906C21.3824 5.29608 16.586 0.5 10.6912 0.5C4.79633 0.5 0 5.29608 0 11.1906C0 17.0851 4.79633 21.8812 10.6912 21.8812ZM10.6912 3.17265C15.1133 3.17265 18.7096 6.76871 18.7096 11.1906C18.7096 15.6125 15.1133 19.2086 10.6912 19.2086C6.26904 19.2086 2.6728 15.6125 2.6728 11.1906C2.6728 6.76871 6.26904 3.17265 10.6912 3.17265Z" fill="#424242"/>
</g>
<defs>
<clipPath id="clip0">
<rect width="25" height="25" fill="white" transform="translate(0 0.5)"/>
</clipPath>
</defs>
</svg>
