<svg width="25" height="26" viewBox="0 0 25 26" fill="none" xmlns="http://www.w3.org/2000/svg">
<g clip-path="url(#clip0)">
<path d="M14.846 25.5H10.1561C9.86224 25.5 9.5772 25.4026 9.34825 25.2239C9.11929 25.0452 8.96018 24.796 8.89729 24.5175L8.3729 22.1625C7.67336 21.8651 7.01004 21.4933 6.39516 21.0538L4.02831 21.785C3.74816 21.8717 3.44587 21.8628 3.17166 21.7598C2.89744 21.6568 2.66779 21.4659 2.52084 21.2188L0.170744 17.28C0.0253388 17.0327 -0.0292428 16.7448 0.0159294 16.4634C0.0611017 16.1821 0.203353 15.924 0.419412 15.7313L2.25543 14.1063C2.17193 13.3701 2.17193 12.6274 2.25543 11.8912L0.419412 10.27C0.203047 10.0772 0.0606022 9.81884 0.0154226 9.53723C-0.0297571 9.25561 0.0250089 8.96746 0.170744 8.72L2.51569 4.77875C2.66264 4.53164 2.89229 4.34074 3.1665 4.23773C3.44072 4.13473 3.743 4.12583 4.02316 4.2125L6.39001 4.94375C6.70438 4.71875 7.03164 4.50875 7.36921 4.31875C7.69519 4.14125 8.03018 3.98 8.3729 3.83625L8.89858 1.48375C8.96116 1.20525 9.11998 0.95586 9.34869 0.776936C9.57741 0.598012 9.86228 0.5003 10.1561 0.5H14.846C15.1398 0.5003 15.4247 0.598012 15.6534 0.776936C15.8821 0.95586 16.0409 1.20525 16.1035 1.48375L16.6343 3.8375C17.3335 4.13487 17.9964 4.50674 18.6108 4.94625L20.9789 4.215C21.2589 4.12865 21.5609 4.13771 21.8348 4.2407C22.1088 4.34369 22.3382 4.53441 22.4851 4.78125L24.83 8.7225C25.129 9.23125 25.0259 9.875 24.5814 10.2713L22.7454 11.8962C22.8289 12.6324 22.8289 13.3751 22.7454 14.1112L24.5814 15.7362C25.0259 16.1337 25.129 16.7763 24.83 17.285L22.4851 21.2262C22.3382 21.4734 22.1085 21.6643 21.8343 21.7673C21.5601 21.8703 21.2578 21.8792 20.9776 21.7925L18.6108 21.0612C17.9964 21.5004 17.3335 21.8719 16.6343 22.1687L16.1035 24.5175C16.0407 24.7958 15.8817 25.0449 15.653 25.2236C15.4244 25.4022 15.1396 25.4998 14.846 25.5ZM6.85771 18.2863L7.91422 19.0363C8.15258 19.2063 8.39996 19.3625 8.65765 19.505C8.89987 19.6413 9.14725 19.7638 9.40365 19.875L10.6058 20.3862L11.1946 23H13.8101L14.3989 20.385L15.601 19.8738C16.1254 19.6488 16.624 19.37 17.0866 19.0413L18.1431 18.2913L20.7741 19.1037L22.0818 16.9062L20.0422 15.1025L20.1865 13.8375C20.251 13.2838 20.251 12.725 20.1865 12.1725L20.0422 10.9075L22.0831 9.1L20.7741 6.90125L18.1444 7.71375L17.0866 6.96375C16.6238 6.63336 16.1257 6.35217 15.601 6.125L14.3989 5.61375L13.8101 3H11.1946L10.6019 5.615L9.40365 6.125C8.87821 6.34826 8.37996 6.62747 7.91809 6.9575L6.86028 7.7075L4.23188 6.895L2.92155 9.1L4.96113 10.9012L4.81683 12.1675C4.75241 12.7212 4.75241 13.28 4.81683 13.8325L4.96113 15.0975L2.92155 16.9013L4.22931 19.0987L6.85771 18.2863ZM12.4959 18C11.129 18 9.81816 17.4732 8.85165 16.5355C7.88514 15.5979 7.34216 14.3261 7.34216 13C7.34216 11.6739 7.88514 10.4021 8.85165 9.46447C9.81816 8.52678 11.129 8 12.4959 8C13.8627 8 15.1736 8.52678 16.1401 9.46447C17.1066 10.4021 17.6496 11.6739 17.6496 13C17.6496 14.3261 17.1066 15.5979 16.1401 16.5355C15.1736 17.4732 13.8627 18 12.4959 18ZM12.4959 10.5C11.9913 10.5005 11.4979 10.6447 11.077 10.9148C10.6562 11.1848 10.3262 11.5688 10.1283 12.0191C9.93028 12.4694 9.87292 12.9662 9.96331 13.4478C10.0537 13.9295 10.2879 14.3747 10.6367 14.7284C10.9856 15.0821 11.4338 15.3287 11.9258 15.4375C12.4178 15.5463 12.9319 15.5125 13.4043 15.3405C13.8767 15.1684 14.2866 14.8655 14.5832 14.4694C14.8798 14.0734 15.05 13.6016 15.0728 13.1125V13.6125V13C15.0728 12.337 14.8013 11.7011 14.318 11.2322C13.8347 10.7634 13.1793 10.5 12.4959 10.5Z" fill="#424242"/>
</g>
<defs>
<clipPath id="clip0">
<rect width="25" height="25" fill="white" transform="translate(0 0.5)"/>
</clipPath>
</defs>
</svg>
