<svg width="25" height="26" viewBox="0 0 25 26" fill="none" xmlns="http://www.w3.org/2000/svg">
<g clip-path="url(#clip0)">
<path d="M24.5776 4.76857L20.7314 0.922409C20.4609 0.651944 20.0941 0.5 19.7116 0.5C19.3291 0.5 18.9622 0.651944 18.6918 0.922409L7.15326 12.4609C6.8828 12.7314 6.73083 13.0982 6.73079 13.4807V17.3269C6.73079 17.7094 6.88274 18.0763 7.15323 18.3468C7.42372 18.6173 7.79057 18.7692 8.1731 18.7692H12.0193C12.4018 18.7692 12.7686 18.6172 13.0391 18.3467L24.5776 6.80824C24.8481 6.53776 25 6.17092 25 5.78841C25 5.4059 24.8481 5.03906 24.5776 4.76857ZM19.7116 3.98191L21.5181 5.78841L20.1924 7.11413L18.3859 5.30764L19.7116 3.98191ZM11.4219 15.8846H9.61541V14.0781L16.3462 7.34731L18.1527 9.1538L11.4219 15.8846ZM24.0385 13.549V23.0961C24.0378 23.7335 23.7843 24.3445 23.3336 24.7951C22.883 25.2458 22.272 25.4993 21.6347 25.5H2.40385C1.76654 25.4993 1.15553 25.2458 0.70488 24.7951C0.254229 24.3445 0.000731653 23.7335 0 23.0961V3.86533C0.000699905 3.228 0.254187 2.61698 0.704845 2.16632C1.1555 1.71566 1.76653 1.46217 2.40385 1.46147H11.951C12.3335 1.46147 12.7004 1.61343 12.9709 1.88392C13.2413 2.1544 13.3933 2.52126 13.3933 2.90378C13.3933 3.28631 13.2413 3.65317 12.9709 3.92365C12.7004 4.19414 12.3335 4.3461 11.951 4.3461H2.88462V22.6154H21.1539V13.549C21.1539 13.1665 21.3059 12.7996 21.5763 12.5291C21.8468 12.2587 22.2137 12.1067 22.5962 12.1067C22.9787 12.1067 23.3456 12.2587 23.6161 12.5291C23.8866 12.7996 24.0385 13.1665 24.0385 13.549Z" fill="#424242"/>
</g>
<defs>
<clipPath id="clip0">
<rect width="25" height="25" fill="white" transform="translate(0 0.5)"/>
</clipPath>
</defs>
</svg>
