<svg width="32" height="32" viewBox="0 0 32 32" fill="none" xmlns="http://www.w3.org/2000/svg">
<path d="M31.713 5.51136L26.4885 0.286879C26.3975 0.195927 26.2896 0.12378 26.1707 0.0745575C26.0519 0.0253347 25.9245 0 25.7959 0C25.6673 0 25.5399 0.0253347 25.4211 0.0745575C25.3023 0.12378 25.1943 0.195927 25.1033 0.286879L9.42987 15.9603C9.33886 16.0513 9.26667 16.1593 9.21742 16.2781C9.16817 16.397 9.14283 16.5244 9.14285 16.6531V21.8776C9.14285 22.1374 9.24606 22.3865 9.42977 22.5702C9.61348 22.7539 9.86264 22.8572 10.1224 22.8572H15.3469C15.4755 22.8572 15.6029 22.8318 15.7217 22.7826C15.8406 22.7334 15.9486 22.6612 16.0395 22.5703L31.713 6.89683C31.804 6.80588 31.8761 6.69789 31.9254 6.57902C31.9747 6.46016 32 6.33276 32 6.2041C32 6.07544 31.9747 5.94804 31.9254 5.82917C31.8761 5.71031 31.804 5.60232 31.713 5.51136ZM14.9412 20.898H11.102V17.0588L21.8775 6.28328L25.7167 10.1225L14.9412 20.898ZM27.102 8.73716L23.2628 4.89798L25.7959 2.36492L29.6351 6.2041L27.102 8.73716ZM30.6939 15.347V29.7143C30.6932 30.3203 30.4521 30.9013 30.0236 31.3298C29.5951 31.7583 29.0141 31.9993 28.4081 32H2.28571C1.67972 31.9993 1.09874 31.7583 0.670233 31.3298C0.241729 30.9013 0.000691383 30.3203 0 29.7143V3.59186C0.000691383 2.98586 0.241729 2.40488 0.670233 1.97638C1.09874 1.54787 1.67972 1.30683 2.28571 1.30614H16.653C16.9129 1.30614 17.162 1.40935 17.3457 1.59306C17.5294 1.77677 17.6326 2.02593 17.6326 2.28573C17.6326 2.54554 17.5294 2.7947 17.3457 2.97841C17.162 3.16212 16.9129 3.26533 16.653 3.26533H2.28571C2.19914 3.26541 2.11613 3.29984 2.05492 3.36106C1.9937 3.42228 1.95927 3.50528 1.95918 3.59186V29.7143C1.95927 29.8009 1.9937 29.8839 2.05492 29.9451C2.11613 30.0063 2.19914 30.0407 2.28571 30.0408H28.4081C28.4947 30.0407 28.5777 30.0063 28.6389 29.9451C28.7002 29.8839 28.7346 29.8009 28.7347 29.7143V15.347C28.7347 15.0871 28.8379 14.838 29.0216 14.6543C29.2053 14.4706 29.4545 14.3674 29.7143 14.3674C29.9741 14.3674 30.2232 14.4706 30.4069 14.6543C30.5907 14.838 30.6939 15.0871 30.6939 15.347Z" fill="black"/>
</svg>
